<svg width="377" height="73" viewBox="0 0 377 73" fill="none" xmlns="http://www.w3.org/2000/svg">
<mask id="mask0_1550_3054" style="mask-type:luminance" maskUnits="userSpaceOnUse" x="0" y="0" width="377" height="73">
<path d="M0 0H376.615V72.4688H0V0Z" fill="white"/>
</mask>
<g mask="url(#mask0_1550_3054)">
<path d="M377.271 72.0836C376.536 30.9378 351.307 3.51072 319.917 1.08885C288.526 -1.33303 274.005 4.60968 259.484 24.2659C255.448 29.8388 252.297 35.9274 249.948 42.3805C240.781 18.693 221.125 4.31802 198.167 2.5576C166.776 0.135723 152.255 4.60968 137.734 24.2659C133.703 29.8388 130.474 36.0003 128.125 42.5264C118.958 18.7659 99.3021 4.31802 76.349 2.5576C45.0313 0.135723 30.4375 4.53677 15.9115 24.2659C1.39063 43.9951 0 72.0836 0 72.0836H11.7344C11.7344 72.0836 14.0052 49.568 22.4427 34.3128C30.875 19.0576 45.7656 18.1774 57.276 16.3441C68.7917 14.5107 72.974 14.8024 93.5833 22.7972C114.193 30.792 118.078 72.0836 118.078 72.0836H133.776C133.776 71.792 133.776 71.5732 133.703 71.2763C134.214 67.1722 136.781 47.8805 144.333 34.2399C152.771 18.9847 161.646 18.4743 179.099 17.8128C194.208 17.2243 194.797 14.8024 215.406 22.7972C236.016 30.792 239.828 72.0107 239.828 72.0107H255.521C255.521 71.5003 255.448 71.0576 255.448 70.5472C256.109 65.2659 258.823 47.1461 265.938 34.2399C274.37 18.9847 289.115 16.1253 300.776 16.3441C315.958 16.5628 322.922 14.1461 342.214 25.0003C362.307 36.292 361.573 72.0107 361.573 72.0107L377.271 72.0836Z" fill="#FF8C19"/>
</g>
</svg>
