<svg width="393" height="852" viewBox="0 0 393 852" fill="none" xmlns="http://www.w3.org/2000/svg">
<path fill-rule="evenodd" clip-rule="evenodd" d="M60.2926 0H332.708C365.869 0 393 27.6101 393 61.3548V790.644C393 824.39 365.868 852 332.708 852H60.2926C27.1322 852 0 824.39 0 790.644V61.3548C0 27.6095 27.1315 0 60.2926 0Z" fill="#675BFF"/>
<mask id="mask0_1541_1023" style="mask-type:luminance" maskUnits="userSpaceOnUse" x="0" y="0" width="393" height="852">
<path d="M60.2926 0H332.708C365.869 0 393 27.6101 393 61.3548V790.644C393 824.39 365.868 852 332.708 852H60.2926C27.1322 852 0 824.39 0 790.644V61.3548C0 27.6095 27.1315 0 60.2926 0Z" fill="white"/>
</mask>
<g mask="url(#mask0_1541_1023)">
<path d="M166.237 -200.405L169.538 -207.319C251.063 -167.021 328.865 -128.563 410.389 -88.2637L327.412 86.7797C323.396 95.3397 319.358 103.885 315.567 112.51C311.608 121.614 308.017 130.882 304.806 140.285C286.5 192.348 302.547 228.667 349.593 245.958C357.284 248.783 364.124 252.132 371.475 255.649C426.309 281.285 478.544 300.741 519.122 355.071C534.543 375.881 545.841 399.544 552.387 424.743C553.648 429.73 554.042 435.361 555.306 440.529C557.806 450.032 558.577 460.002 559.879 469.665C561.233 479.716 562.372 487.368 561.452 497.539C560.808 504.665 561.776 512.416 560.301 519.627C560.084 520.688 560.059 522.029 559.899 523.117C559.063 539.331 556.399 555.489 553.302 571.397C552.698 574.501 552.744 577.777 552.102 580.883C550.798 586.137 549.222 591.372 547.831 596.62C539.615 626.673 529.459 656.137 517.424 684.831C515.574 689.251 512.654 694.925 510.563 699.521L493.257 737.75L433.286 870.922C413.38 916.007 393.121 960.713 386.712 1010.24C384.143 1030.1 384.475 1043.18 396.485 1059.16L393.184 1066.07C311.659 1025.77 233.859 987.315 152.333 947.016L235.31 771.974C239.326 763.412 243.364 754.867 247.155 746.243C251.113 737.139 254.705 727.871 257.917 718.468C270.811 681.796 265.661 634.435 226.574 618.744C222.047 617.087 217.629 614.449 213.128 612.795C205.439 609.971 198.598 606.62 191.247 603.103C136.412 577.467 84.1818 558.014 43.5995 503.683C28.1792 482.872 16.8805 459.209 10.3374 434.011C9.07386 429.022 8.68045 423.393 7.41572 418.224C4.91586 408.72 4.14506 398.75 2.84518 389.087C1.48919 379.036 0.349648 371.384 1.26967 361.213C1.91345 354.089 0.945934 346.336 2.42155 339.124C2.63738 338.065 2.66266 336.724 2.8236 335.635C3.65915 319.42 6.32242 303.264 9.42042 287.355C10.0247 284.253 9.97786 280.976 10.6192 277.87C11.924 272.614 13.4989 267.383 14.8919 262.134C23.1061 232.081 33.2628 202.616 45.2978 173.92C47.1452 169.503 50.0675 163.828 52.161 159.232L69.4645 121.004L129.437 -12.1684C149.342 -57.2549 169.601 -101.961 176.01 -151.489C178.579 -171.344 178.247 -184.424 166.237 -200.405Z" fill="#F4F1F8"/>
</g>
<path d="M189.584 217.688H146.843C144.711 217.688 142.984 215.961 142.984 213.829V171.089C142.984 168.958 144.711 167.23 146.843 167.23H172.216C183.939 167.23 193.442 176.734 193.442 188.456V213.829C193.442 215.961 191.715 217.688 189.583 217.688H189.584Z" fill="#807CB6"/>
<path d="M189.584 217.688H146.843C144.711 217.688 142.984 215.961 142.984 213.829V171.089C142.984 168.958 144.711 167.23 146.843 167.23H172.216C183.939 167.23 193.442 176.734 193.442 188.456V213.829C193.442 215.961 191.715 217.688 189.583 217.688H189.584Z" fill="#807CB6"/>
<path d="M200.716 113.236H243.456C245.587 113.236 247.315 114.964 247.315 117.095V159.836C247.315 161.967 245.587 163.694 243.456 163.694H218.083C206.361 163.694 196.857 154.191 196.857 142.468V117.095C196.857 114.964 198.584 113.236 200.716 113.236Z" fill="#55A0FF"/>
<path d="M200.716 113.236H243.456C245.587 113.236 247.315 114.964 247.315 117.095V159.836C247.315 161.967 245.587 163.694 243.456 163.694H218.083C206.361 163.694 196.857 154.191 196.857 142.468V117.095C196.857 114.964 198.584 113.236 200.716 113.236Z" fill="#55A0FF"/>
<path d="M200.716 217.688H243.457C245.588 217.688 247.315 215.961 247.315 213.829V171.089C247.315 168.958 245.588 167.23 243.457 167.23H201.185C198.795 167.23 196.858 169.168 196.858 171.557V213.829C196.858 215.96 198.586 217.687 200.717 217.687L200.716 217.688Z" fill="#BCA3FF"/>
<path d="M200.716 217.688H243.457C245.588 217.688 247.315 215.961 247.315 213.829V171.089C247.315 168.958 245.588 167.23 243.457 167.23H201.185C198.795 167.23 196.858 169.168 196.858 171.557V213.829C196.858 215.96 198.586 217.687 200.717 217.687L200.716 217.688Z" fill="#BCA3FF"/>
<path d="M150.545 167.235H175.918C181.072 167.235 185.918 169.243 189.563 172.887C193.208 176.532 195.214 181.377 195.214 186.532V211.905C195.214 212.968 194.349 213.834 193.285 213.834H150.545C149.482 213.834 148.616 212.968 148.616 211.905V169.164C148.616 168.101 149.482 167.235 150.545 167.235ZM150.545 165.307C148.414 165.307 146.687 167.034 146.687 169.165V211.906C146.687 214.037 148.414 215.764 150.545 215.764H193.285C195.417 215.764 197.144 214.037 197.144 211.906V186.532C197.144 174.81 187.641 165.307 175.92 165.307H150.546H150.545Z" fill="black"/>
<path d="M150.545 167.235H175.918C181.072 167.235 185.918 169.243 189.563 172.887C193.208 176.532 195.214 181.377 195.214 186.532V211.905C195.214 212.968 194.349 213.834 193.285 213.834H150.545C149.482 213.834 148.616 212.968 148.616 211.905V169.164C148.616 168.101 149.482 167.235 150.545 167.235ZM150.545 165.307C148.414 165.307 146.687 167.034 146.687 169.165V211.906C146.687 214.037 148.414 215.764 150.545 215.764H193.285C195.417 215.764 197.144 214.037 197.144 211.906V186.532C197.144 174.81 187.641 165.307 175.92 165.307H150.546H150.545Z" fill="black"/>
<path d="M204.418 113.241H247.158C248.222 113.241 249.087 114.107 249.087 115.17V157.91C249.087 158.974 248.222 159.839 247.158 159.839H221.785C216.631 159.839 211.786 157.832 208.141 154.188C204.496 150.543 202.489 145.698 202.489 140.543V115.17C202.489 114.107 203.354 113.241 204.418 113.241ZM204.418 111.312C202.286 111.312 200.559 113.039 200.559 115.17V140.543C200.559 152.266 210.063 161.769 221.785 161.769H247.158C249.289 161.769 251.017 160.042 251.017 157.91V115.17C251.017 113.039 249.289 111.312 247.158 111.312H204.418Z" fill="black"/>
<path d="M204.418 113.241H247.158C248.222 113.241 249.087 114.107 249.087 115.17V157.91C249.087 158.974 248.222 159.839 247.158 159.839H221.785C216.631 159.839 211.786 157.832 208.141 154.188C204.496 150.543 202.489 145.698 202.489 140.543V115.17C202.489 114.107 203.354 113.241 204.418 113.241ZM204.418 111.312C202.286 111.312 200.559 113.039 200.559 115.17V140.543C200.559 152.266 210.063 161.769 221.785 161.769H247.158C249.289 161.769 251.017 160.042 251.017 157.91V115.17C251.017 113.039 249.289 111.312 247.158 111.312H204.418Z" fill="black"/>
<path d="M204.886 167.236H247.157C248.22 167.236 249.086 168.101 249.086 169.164V211.905C249.086 212.968 248.22 213.834 247.157 213.834H204.417C203.353 213.834 202.488 212.968 202.488 211.905V169.633C202.488 168.311 203.563 167.236 204.886 167.236ZM204.886 165.307C202.496 165.307 200.559 167.245 200.559 169.633V211.905C200.559 214.036 202.286 215.764 204.418 215.764H247.158C249.289 215.764 251.017 214.036 251.017 211.905V169.164C251.017 167.033 249.289 165.306 247.158 165.306H204.887L204.886 165.307Z" fill="black"/>
<path d="M204.886 167.236H247.157C248.22 167.236 249.086 168.101 249.086 169.164V211.905C249.086 212.968 248.22 213.834 247.157 213.834H204.417C203.353 213.834 202.488 212.968 202.488 211.905V169.633C202.488 168.311 203.563 167.236 204.886 167.236ZM204.886 165.307C202.496 165.307 200.559 167.245 200.559 169.633V211.905C200.559 214.036 202.286 215.764 204.418 215.764H247.158C249.289 215.764 251.017 214.036 251.017 211.905V169.164C251.017 167.033 249.289 165.306 247.158 165.306H204.887L204.886 165.307Z" fill="black"/>
<path d="M146.844 163.383H189.585C191.716 163.383 193.443 161.655 193.443 159.524V116.783C193.443 114.653 191.716 112.925 189.585 112.925L147.312 112.925C144.922 112.925 142.986 114.863 142.986 117.251V159.523C142.986 161.655 144.713 163.382 146.844 163.382V163.383Z" fill="#675BFF"/>
<path d="M146.844 163.383H189.585C191.716 163.383 193.443 161.655 193.443 159.524V116.783C193.443 114.653 191.716 112.925 189.585 112.925L147.312 112.925C144.922 112.925 142.986 114.863 142.986 117.251V159.523C142.986 161.655 144.713 163.382 146.844 163.382V163.383Z" fill="#675BFF"/>
<path d="M151.014 112.93H193.286C194.349 112.93 195.214 113.795 195.214 114.859V157.599C195.214 158.662 194.349 159.528 193.286 159.528H150.545C149.482 159.528 148.617 158.662 148.617 157.599V115.327C148.617 114.006 149.692 112.93 151.014 112.93ZM151.014 111.001C148.624 111.001 146.688 112.939 146.688 115.327V157.599C146.688 159.73 148.415 161.457 150.547 161.457H193.287C195.418 161.457 197.145 159.73 197.145 157.599V114.859C197.145 112.727 195.418 111 193.287 111H151.015L151.014 111.001Z" fill="black"/>
<path d="M151.014 112.93H193.286C194.349 112.93 195.214 113.795 195.214 114.859V157.599C195.214 158.662 194.349 159.528 193.286 159.528H150.545C149.482 159.528 148.617 158.662 148.617 157.599V115.327C148.617 114.006 149.692 112.93 151.014 112.93ZM151.014 111.001C148.624 111.001 146.688 112.939 146.688 115.327V157.599C146.688 159.73 148.415 161.457 150.547 161.457H193.287C195.418 161.457 197.145 159.73 197.145 157.599V114.859C197.145 112.727 195.418 111 193.287 111H151.015L151.014 111.001Z" fill="black"/>
<path d="M213.93 132.937C216.036 132.937 217.743 131.23 217.743 129.124C217.743 127.018 216.036 125.312 213.93 125.312C211.825 125.312 210.118 127.018 210.118 129.124C210.118 131.23 211.825 132.937 213.93 132.937Z" fill="black"/>
<path d="M213.93 132.937C216.036 132.937 217.743 131.23 217.743 129.124C217.743 127.018 216.036 125.312 213.93 125.312C211.825 125.312 210.118 127.018 210.118 129.124C210.118 131.23 211.825 132.937 213.93 132.937Z" fill="black"/>
<path d="M233.812 132.937C235.918 132.937 237.625 131.23 237.625 129.124C237.625 127.018 235.918 125.312 233.812 125.312C231.706 125.312 230 127.018 230 129.124C230 131.23 231.706 132.937 233.812 132.937Z" fill="black"/>
<path d="M233.812 132.937C235.918 132.937 237.625 131.23 237.625 129.124C237.625 127.018 235.918 125.312 233.812 125.312C231.706 125.312 230 127.018 230 129.124C230 131.23 231.706 132.937 233.812 132.937Z" fill="black"/>
<path d="M223.871 147.148C219.665 147.148 215.461 145.548 212.259 142.345L214.575 140.03C219.701 145.156 228.042 145.156 233.167 140.03L235.482 142.345C232.281 145.546 228.075 147.147 223.871 147.147V147.148Z" fill="black"/>
<path d="M223.871 147.148C219.665 147.148 215.461 145.548 212.259 142.345L214.575 140.03C219.701 145.156 228.042 145.156 233.167 140.03L235.482 142.345C232.281 145.546 228.075 147.147 223.871 147.147V147.148Z" fill="black"/>
<path d="M115.279 298.676L137.522 316.109C137.901 316.406 138.434 316.406 138.814 316.109L161.059 298.676C161.674 298.193 162.583 298.533 162.731 299.301L174.441 360.018H101.9L113.609 299.301C113.758 298.532 114.666 298.193 115.282 298.676H115.279Z" fill="#675BFF"/>
<path d="M115.279 298.676L137.522 316.109C137.901 316.406 138.434 316.406 138.814 316.109L161.059 298.676C161.674 298.193 162.583 298.533 162.731 299.301L174.441 360.018H101.9L113.609 299.301C113.758 298.532 114.666 298.193 115.282 298.676H115.279Z" fill="#675BFF"/>
<path d="M181.93 299.855H201.325C201.902 299.855 202.371 300.325 202.371 300.902V360.02H180.883V300.902C180.883 300.325 181.352 299.855 181.93 299.855Z" fill="#675BFF"/>
<path d="M181.93 299.855H201.325C201.902 299.855 202.371 300.325 202.371 300.902V360.02H180.883V300.902C180.883 300.325 181.352 299.855 181.93 299.855Z" fill="#675BFF"/>
<path d="M214.465 300.064L241.932 327.15C242.592 327.801 243.713 327.333 243.713 326.404V300.9C243.713 300.323 244.182 299.854 244.759 299.854H264.154C264.732 299.854 265.201 300.323 265.201 300.9V360.019H212.686V300.808C212.686 299.879 213.805 299.412 214.467 300.063L214.465 300.064Z" fill="#675BFF"/>
<path d="M214.465 300.064L241.932 327.15C242.592 327.801 243.713 327.333 243.713 326.404V300.9C243.713 300.323 244.182 299.854 244.759 299.854H264.154C264.732 299.854 265.201 300.323 265.201 300.9V360.019H212.686V300.808C212.686 299.879 213.805 299.412 214.467 300.063L214.465 300.064Z" fill="#675BFF"/>
<path d="M276.559 299.855H295.954C296.531 299.855 297 300.325 297 300.902V360.02H275.512V300.902C275.512 300.325 275.981 299.855 276.559 299.855Z" fill="#675BFF"/>
<path d="M276.559 299.855H295.954C296.531 299.855 297 300.325 297 300.902V360.02H275.512V300.902C275.512 300.325 275.981 299.855 276.559 299.855Z" fill="#675BFF"/>
<path d="M192.984 384.182C192.984 383.09 193.868 382.205 194.96 382.205H214.471C221.605 382.205 240.771 383.064 240.771 403.434C240.771 416.447 232.78 423.144 216.332 424.069C215.285 424.128 214.47 425.004 214.47 426.053V440.393C214.47 441.485 213.585 442.37 212.493 442.37H194.959C193.867 442.37 192.982 441.485 192.982 440.393V384.182L192.984 384.182Z" fill="#675BFF"/>
<path d="M192.984 384.182C192.984 383.09 193.868 382.205 194.96 382.205H214.471C221.605 382.205 240.771 383.064 240.771 403.434C240.771 416.447 232.78 423.144 216.332 424.069C215.285 424.128 214.47 425.004 214.47 426.053V440.393C214.47 441.485 213.585 442.37 212.493 442.37H194.959C193.867 442.37 192.982 441.485 192.982 440.393V384.182L192.984 384.182Z" fill="#675BFF"/>
<path d="M249.795 382.205H291.823C292.916 382.205 293.801 383.09 293.801 384.182V401.372C293.801 402.464 292.916 403.349 291.823 403.349H270.938C269.846 403.349 268.961 404.233 268.961 405.325V408.162C268.961 409.255 269.846 410.139 270.938 410.139L288.199 410.139C288.73 410.139 289.161 410.57 289.161 411.101V413.133C289.161 413.664 288.73 414.094 288.199 414.094H270.938C269.846 414.094 268.961 414.979 268.961 416.072V419.251C268.961 420.344 269.846 421.228 270.938 421.228H291.823C292.916 421.228 293.801 422.113 293.801 423.205V440.394C293.801 441.487 292.916 442.372 291.823 442.372H249.795C248.702 442.372 247.817 441.487 247.817 440.394V384.184C247.817 383.091 248.702 382.206 249.795 382.206V382.205ZM266.782 374.767L272.924 366.344C273.296 365.834 273.891 365.532 274.521 365.532H285.362C287.198 365.532 288.043 367.815 286.649 369.01L276.822 377.433C276.464 377.741 276.007 377.91 275.535 377.91H268.38C266.763 377.91 265.829 376.075 266.782 374.767Z" fill="#675BFF"/>
<path d="M249.795 382.205H291.823C292.916 382.205 293.801 383.09 293.801 384.182V401.372C293.801 402.464 292.916 403.349 291.823 403.349H270.938C269.846 403.349 268.961 404.233 268.961 405.325V408.162C268.961 409.255 269.846 410.139 270.938 410.139L288.199 410.139C288.73 410.139 289.161 410.57 289.161 411.101V413.133C289.161 413.664 288.73 414.094 288.199 414.094H270.938C269.846 414.094 268.961 414.979 268.961 416.072V419.251C268.961 420.344 269.846 421.228 270.938 421.228H291.823C292.916 421.228 293.801 422.113 293.801 423.205V440.394C293.801 441.487 292.916 442.372 291.823 442.372H249.795C248.702 442.372 247.817 441.487 247.817 440.394V384.184C247.817 383.091 248.702 382.206 249.795 382.206V382.205ZM266.782 374.767L272.924 366.344C273.296 365.834 273.891 365.532 274.521 365.532H285.362C287.198 365.532 288.043 367.815 286.649 369.01L276.822 377.433C276.464 377.741 276.007 377.91 275.535 377.91H268.38C266.763 377.91 265.829 376.075 266.782 374.767Z" fill="#675BFF"/>
<path d="M107.077 442.37H124.508C125.905 442.37 127.207 441.671 127.979 440.508L133.566 432.086C134.599 430.529 136.884 430.529 137.917 432.086L143.504 440.508C144.276 441.671 145.579 442.37 146.974 442.37H164.405C165.881 442.37 166.837 440.813 166.167 439.498L137.502 383.096C136.768 381.654 134.71 381.654 133.977 383.096L105.312 439.498C104.644 440.813 105.599 442.37 107.074 442.37H107.077Z" fill="#675BFF"/>
<path d="M107.077 442.37H124.508C125.905 442.37 127.207 441.671 127.979 440.508L133.566 432.086C134.599 430.529 136.884 430.529 137.917 432.086L143.504 440.508C144.276 441.671 145.579 442.37 146.974 442.37H164.405C165.881 442.37 166.837 440.813 166.167 439.498L137.502 383.096C136.768 381.654 134.71 381.654 133.977 383.096L105.312 439.498C104.644 440.813 105.599 442.37 107.074 442.37H107.077Z" fill="#675BFF"/>
<path d="M155.057 300.603L165.124 352.8L101.419 352.801L111.485 300.603L130.376 315.409C131.199 316.053 132.227 316.408 133.271 316.408C134.315 316.408 135.345 316.053 136.167 315.409L155.059 300.603H155.057ZM156.801 294.883C156.58 294.883 156.355 294.953 156.16 295.107L133.915 312.54C133.725 312.688 133.498 312.762 133.27 312.762C133.041 312.762 132.814 312.688 132.624 312.54L110.381 295.107C110.185 294.954 109.96 294.883 109.74 294.883C109.265 294.883 108.81 295.208 108.709 295.732L97 356.449H169.541L157.832 295.732C157.73 295.208 157.275 294.883 156.801 294.883Z" fill="black"/>
<path d="M155.057 300.603L165.124 352.8L101.419 352.801L111.485 300.603L130.376 315.409C131.199 316.053 132.227 316.408 133.271 316.408C134.315 316.408 135.345 316.053 136.167 315.409L155.059 300.603H155.057ZM156.801 294.883C156.58 294.883 156.355 294.953 156.16 295.107L133.915 312.54C133.725 312.688 133.498 312.762 133.27 312.762C133.041 312.762 132.814 312.688 132.624 312.54L110.381 295.107C110.185 294.954 109.96 294.883 109.74 294.883C109.265 294.883 108.81 295.208 108.709 295.732L97 356.449H169.541L157.832 295.732C157.73 295.208 157.275 294.883 156.801 294.883Z" fill="black"/>
<path d="M193.824 299.931V352.801H179.632V299.931H193.824ZM196.427 296.284H177.032C176.454 296.284 175.985 296.753 175.985 297.331V356.449H197.473V297.331C197.473 296.753 197.004 296.284 196.427 296.284Z" fill="black"/>
<path d="M193.824 299.931V352.801H179.632V299.931H193.824ZM196.427 296.284H177.032C176.454 296.284 175.985 296.753 175.985 297.331V356.449H197.473V297.331C197.473 296.753 197.004 296.284 196.427 296.284Z" fill="black"/>
<path d="M256.652 299.93V352.801H211.432V303.456L234.471 326.175C235.356 327.048 236.524 327.529 237.759 327.529C240.35 327.529 242.459 325.423 242.459 322.833V299.93H256.652ZM208.839 296.188C208.302 296.188 207.785 296.607 207.785 297.237V356.447H260.301V297.329C260.301 296.751 259.832 296.282 259.254 296.282H239.859C239.281 296.282 238.812 296.751 238.812 297.329V322.833C238.812 323.463 238.297 323.881 237.759 323.881C237.503 323.881 237.244 323.787 237.031 323.578L209.565 296.493C209.353 296.284 209.093 296.19 208.837 296.19L208.839 296.188Z" fill="black"/>
<path d="M256.652 299.93V352.801H211.432V303.456L234.471 326.175C235.356 327.048 236.524 327.529 237.759 327.529C240.35 327.529 242.459 325.423 242.459 322.833V299.93H256.652ZM208.839 296.188C208.302 296.188 207.785 296.607 207.785 297.237V356.447H260.301V297.329C260.301 296.751 259.832 296.282 259.254 296.282H239.859C239.281 296.282 238.812 296.751 238.812 297.329V322.833C238.812 323.463 238.297 323.881 237.759 323.881C237.503 323.881 237.244 323.787 237.031 323.578L209.565 296.493C209.353 296.284 209.093 296.19 208.837 296.19L208.839 296.188Z" fill="black"/>
<path d="M288.453 299.931V352.801H274.261V299.931H288.453ZM291.055 296.284H271.66C271.083 296.284 270.614 296.753 270.614 297.331V356.449H292.101V297.331C292.101 296.753 291.632 296.284 291.055 296.284Z" fill="black"/>
<path d="M288.453 299.931V352.801H274.261V299.931H288.453ZM291.055 296.284H271.66C271.083 296.284 270.614 296.753 270.614 297.331V356.449H292.101V297.331C292.101 296.753 291.632 296.284 291.055 296.284Z" fill="black"/>
<path d="M209.573 382.283C211.765 382.283 218.434 382.283 223.804 384.892C229.471 387.645 232.226 392.543 232.226 399.865C232.226 405.284 230.67 409.23 227.47 411.927C224.08 414.784 218.616 416.443 211.229 416.859C208.255 417.026 205.924 419.496 205.924 422.484V435.154H191.732V382.284H209.571L209.573 382.283ZM209.573 378.636H190.062C188.969 378.636 188.085 379.521 188.085 380.613V436.824C188.085 437.916 188.969 438.801 190.062 438.801H207.595C208.688 438.801 209.573 437.916 209.573 436.824V422.484C209.573 421.435 210.387 420.559 211.436 420.499C227.881 419.575 235.874 412.878 235.874 399.865C235.874 379.495 216.707 378.636 209.574 378.636H209.573Z" fill="black"/>
<path d="M209.573 382.283C211.765 382.283 218.434 382.283 223.804 384.892C229.471 387.645 232.226 392.543 232.226 399.865C232.226 405.284 230.67 409.23 227.47 411.927C224.08 414.784 218.616 416.443 211.229 416.859C208.255 417.026 205.924 419.496 205.924 422.484V435.154H191.732V382.284H209.571L209.573 382.283ZM209.573 378.636H190.062C188.969 378.636 188.085 379.521 188.085 380.613V436.824C188.085 437.916 188.969 438.801 190.062 438.801H207.595C208.688 438.801 209.573 437.916 209.573 436.824V422.484C209.573 421.435 210.387 420.559 211.436 420.499C227.881 419.575 235.874 412.878 235.874 399.865C235.874 379.495 216.707 378.636 209.574 378.636H209.573Z" fill="black"/>
<path d="M275.947 365.609L270.019 370.691H266.767L270.473 365.609H275.948H275.947ZM285.253 382.283V396.131H266.038C262.937 396.131 260.414 398.654 260.414 401.755V404.591C260.414 406.131 261.036 407.529 262.042 408.546C261.036 409.562 260.414 410.959 260.414 412.5V415.679C260.414 418.78 262.937 421.303 266.038 421.303L285.253 421.303V435.151H246.566V382.281H285.253V382.283ZM280.463 361.962H269.623C268.99 361.962 268.396 362.263 268.025 362.774L261.883 371.197C260.931 372.503 261.864 374.339 263.48 374.339H270.636C271.108 374.339 271.564 374.17 271.923 373.863L281.75 365.439C283.144 364.244 282.299 361.962 280.463 361.962ZM286.924 378.636H244.896C243.804 378.636 242.919 379.521 242.919 380.613V436.824C242.919 437.916 243.804 438.801 244.896 438.801H286.924C288.017 438.801 288.902 437.916 288.902 436.824V419.635C288.902 418.542 288.017 417.658 286.924 417.658H266.039C264.947 417.658 264.063 416.773 264.063 415.68V412.501C264.063 411.409 264.947 410.524 266.039 410.524H283.3C283.831 410.524 284.262 410.093 284.262 409.562V407.531C284.262 406.999 283.831 406.569 283.3 406.569H266.039C264.947 406.569 264.063 405.684 264.063 404.591V401.755C264.063 400.663 264.947 399.778 266.039 399.778H286.924C288.017 399.778 288.902 398.893 288.902 397.801V380.611C288.902 379.519 288.017 378.634 286.924 378.634V378.636Z" fill="black"/>
<path d="M275.947 365.609L270.019 370.691H266.767L270.473 365.609H275.948H275.947ZM285.253 382.283V396.131H266.038C262.937 396.131 260.414 398.654 260.414 401.755V404.591C260.414 406.131 261.036 407.529 262.042 408.546C261.036 409.562 260.414 410.959 260.414 412.5V415.679C260.414 418.78 262.937 421.303 266.038 421.303L285.253 421.303V435.151H246.566V382.281H285.253V382.283ZM280.463 361.962H269.623C268.99 361.962 268.396 362.263 268.025 362.774L261.883 371.197C260.931 372.503 261.864 374.339 263.48 374.339H270.636C271.108 374.339 271.564 374.17 271.923 373.863L281.75 365.439C283.144 364.244 282.299 361.962 280.463 361.962ZM286.924 378.636H244.896C243.804 378.636 242.919 379.521 242.919 380.613V436.824C242.919 437.916 243.804 438.801 244.896 438.801H286.924C288.017 438.801 288.902 437.916 288.902 436.824V419.635C288.902 418.542 288.017 417.658 286.924 417.658H266.039C264.947 417.658 264.063 416.773 264.063 415.68V412.501C264.063 411.409 264.947 410.524 266.039 410.524H283.3C283.831 410.524 284.262 410.093 284.262 409.562V407.531C284.262 406.999 283.831 406.569 283.3 406.569H266.039C264.947 406.569 264.063 405.684 264.063 404.591V401.755C264.063 400.663 264.947 399.778 266.039 399.778H286.924C288.017 399.778 288.902 398.893 288.902 397.801V380.611C288.902 379.519 288.017 378.634 286.924 378.634V378.636Z" fill="black"/>
<path d="M130.843 384.107L156.785 435.152H142.076C141.902 435.152 141.74 435.066 141.644 434.921L136.057 426.499C134.895 424.746 132.945 423.701 130.843 423.701C128.741 423.701 126.791 424.747 125.629 426.499L120.042 434.921C119.946 435.066 119.783 435.152 119.61 435.152H104.9L130.843 384.107ZM130.843 378.442C130.145 378.442 129.446 378.803 129.081 379.523L100.417 435.926C99.749 437.241 100.703 438.798 102.178 438.798H119.61C121.007 438.798 122.308 438.098 123.08 436.935L128.667 428.513C129.184 427.735 130.013 427.345 130.843 427.345C131.672 427.345 132.502 427.734 133.019 428.513L138.606 436.935C139.378 438.098 140.681 438.798 142.076 438.798H159.507C160.983 438.798 161.939 437.241 161.269 435.926L132.603 379.523C132.236 378.802 131.539 378.442 130.841 378.442H130.843Z" fill="black"/>
<path d="M130.843 384.107L156.785 435.152H142.076C141.902 435.152 141.74 435.066 141.644 434.921L136.057 426.499C134.895 424.746 132.945 423.701 130.843 423.701C128.741 423.701 126.791 424.747 125.629 426.499L120.042 434.921C119.946 435.066 119.783 435.152 119.61 435.152H104.9L130.843 384.107ZM130.843 378.442C130.145 378.442 129.446 378.803 129.081 379.523L100.417 435.926C99.749 437.241 100.703 438.798 102.178 438.798H119.61C121.007 438.798 122.308 438.098 123.08 436.935L128.667 428.513C129.184 427.735 130.013 427.345 130.843 427.345C131.672 427.345 132.502 427.734 133.019 428.513L138.606 436.935C139.378 438.098 140.681 438.798 142.076 438.798H159.507C160.983 438.798 161.939 437.241 161.269 435.926L132.603 379.523C132.236 378.802 131.539 378.442 130.841 378.442H130.843Z" fill="black"/>
<path fill-rule="evenodd" clip-rule="evenodd" d="M91.1332 544H312.867C316.79 544 320 547.205 320 551.121V590.879C320 594.795 316.79 598 312.867 598H91.1332C87.2104 598 84 594.796 84 590.879V551.121C84 547.204 87.2097 544 91.1332 544Z" fill="#DED68A" stroke="#493F87" stroke-width="0.944882" stroke-miterlimit="22.9256"/>
<path d="M153.392 582.06C153.272 582.06 153.202 582.03 153.182 581.97C153.162 581.89 153.152 581.75 153.152 581.55C153.132 581.33 153.122 580.96 153.122 580.44C153.122 580.28 153.112 580.11 153.092 579.93C153.072 579.73 153.062 579.47 153.062 579.15V575.04C153.062 574.64 153.072 574.25 153.092 573.87C153.132 573.49 153.152 573.21 153.152 573.03C153.232 572.11 153.272 571.23 153.272 570.39C153.272 569.35 153.242 568.53 153.182 567.93C153.142 567.25 153.122 566.63 153.122 566.07C153.122 564.81 153.152 563.34 153.212 561.66C153.212 561.4 153.262 561.23 153.362 561.15C153.462 561.05 153.602 561 153.782 561L154.232 561.03C154.412 561.03 154.702 561.05 155.102 561.09C155.502 561.11 155.992 561.12 156.572 561.12C157.232 561.12 158.012 561.07 158.912 560.97C159.992 560.89 160.712 560.85 161.072 560.85C161.892 560.85 162.642 560.88 163.322 560.94L164.402 560.97C164.662 560.97 164.832 561.03 164.912 561.15C164.992 561.27 165.032 561.49 165.032 561.81C165.032 561.99 165.052 562.3 165.092 562.74C165.132 563.26 165.152 563.71 165.152 564.09C165.152 564.49 165.122 564.86 165.062 565.2C165.042 565.5 164.902 565.65 164.642 565.65C164.562 565.65 164.452 565.63 164.312 565.59C164.172 565.55 164.062 565.52 163.982 565.5C163.682 565.44 162.812 565.41 161.372 565.41L160.232 565.38C159.972 565.36 159.592 565.35 159.092 565.35C158.732 565.35 158.462 565.36 158.282 565.38C157.682 565.42 157.152 565.44 156.692 565.44L155.102 565.41C154.942 565.41 154.852 565.45 154.832 565.53C154.812 565.59 154.802 565.75 154.802 566.01C154.802 566.37 154.792 566.68 154.772 566.94C154.732 567.74 154.712 568.39 154.712 568.89V570.66C154.712 571.08 154.722 571.4 154.742 571.62C154.902 571.64 155.172 571.65 155.552 571.65C155.892 571.67 156.592 571.68 157.652 571.68C158.092 571.68 158.732 571.66 159.572 571.62C160.212 571.58 160.632 571.56 160.832 571.56C161.112 571.56 161.392 571.58 161.672 571.62C161.952 571.64 162.162 571.65 162.302 571.65C162.562 571.65 162.692 571.77 162.692 572.01C162.692 572.09 162.682 572.21 162.662 572.37C162.642 572.51 162.632 572.7 162.632 572.94L162.662 574.53C162.662 574.71 162.642 574.84 162.602 574.92C162.562 574.98 162.492 575.01 162.392 575.01C162.332 575.01 162.242 575 162.122 574.98C162.022 574.94 161.932 574.92 161.852 574.92C161.672 574.92 161.332 574.91 160.832 574.89C160.352 574.87 159.692 574.86 158.852 574.86C157.952 574.86 157.172 574.9 156.512 574.98C155.852 575.06 155.452 575.1 155.312 575.1C155.092 575.1 154.962 575.09 154.922 575.07C154.822 575.07 154.762 575.06 154.742 575.04V578.04C154.882 578.04 154.992 578.03 155.072 578.01L155.912 577.98L159.452 577.95C160.172 577.95 160.742 577.96 161.162 577.98L163.232 578.01L164.492 577.98C164.732 577.98 164.892 578.04 164.972 578.16C165.052 578.26 165.092 578.41 165.092 578.61L165.062 579.21L165.032 581.31C165.032 581.63 164.962 581.83 164.822 581.91C164.682 581.97 164.482 582 164.222 582C163.962 581.98 163.752 581.97 163.592 581.97C162.732 581.97 161.992 581.96 161.372 581.94L158.312 581.91C158.072 581.91 156.872 581.94 154.712 582L153.572 582.03L153.392 582.06ZM169.312 582.36C169.012 582.36 168.812 582.3 168.712 582.18C168.612 582.08 168.552 581.96 168.532 581.82C168.512 581.68 168.492 581.58 168.472 581.52C168.392 581.16 168.352 580.72 168.352 580.2C168.352 579.72 168.362 579.31 168.382 578.97C168.382 577.93 168.402 576.72 168.442 575.34C168.482 573.94 168.532 572.94 168.592 572.34L168.742 570.21C168.982 566.89 169.102 565.02 169.102 564.6C169.102 563.02 169.132 561.84 169.192 561.06C169.232 560.52 169.512 560.25 170.032 560.25C170.192 560.25 170.342 560.26 170.482 560.28C170.622 560.3 170.732 560.31 170.812 560.31L173.362 560.28C173.802 560.28 174.122 560.33 174.322 560.43C174.542 560.51 174.712 560.66 174.832 560.88C175.032 561.3 175.282 561.84 175.582 562.5L176.692 564.9L178.102 567.99C178.362 568.55 178.702 569.29 179.122 570.21C179.542 571.13 179.842 571.77 180.022 572.13C180.362 572.83 180.582 573.26 180.682 573.42L181.522 575.07L182.452 576.9L182.392 575.16L182.272 572.22V571.32C182.272 570.22 182.292 569.11 182.332 567.99C182.332 567.15 182.322 566.47 182.302 565.95L182.272 563.67L182.392 560.79C182.392 560.49 182.542 560.34 182.842 560.34C182.942 560.34 183.142 560.37 183.442 560.43C183.622 560.47 183.812 560.49 184.012 560.49C184.212 560.49 184.372 560.49 184.492 560.49C184.652 560.49 184.752 560.51 184.792 560.55C184.852 560.59 184.882 560.66 184.882 560.76C184.882 560.84 184.872 560.93 184.852 561.03C184.832 561.13 184.822 561.24 184.822 561.36L184.792 563.94L184.732 570L184.702 570.87C184.702 571.55 184.712 572.17 184.732 572.73C184.752 573.29 184.772 573.75 184.792 574.11C184.852 574.97 184.882 575.69 184.882 576.27C184.882 576.19 184.912 577.38 184.972 579.84L185.032 581.52V581.58C185.032 581.98 184.842 582.16 184.462 582.12C184.402 582.1 184.282 582.09 184.102 582.09L183.232 582.12H183.052C182.912 582.12 182.802 582.09 182.722 582.03C182.662 581.97 182.552 581.8 182.392 581.52C182.332 581.38 182.252 581.18 182.152 580.92C182.052 580.66 181.932 580.37 181.792 580.05C180.932 577.89 180.312 576.42 179.932 575.64C179.492 574.8 178.382 572.39 176.602 568.41C176.202 567.59 175.752 566.72 175.252 565.8L174.382 564.24L174.472 567.09L174.502 568.86C174.542 570.18 174.562 571.05 174.562 571.47C174.562 573.11 174.592 574.76 174.652 576.42L174.682 578.76C174.682 579.18 174.702 579.79 174.742 580.59L174.802 581.64V581.7C174.802 581.9 174.752 582.03 174.652 582.09C174.552 582.15 174.412 582.18 174.232 582.18L173.572 582.21C173.152 582.27 172.702 582.3 172.222 582.3C171.662 582.3 171.202 582.31 170.842 582.33L169.312 582.36ZM197.715 581.82C197.615 581.82 195.975 581.79 192.795 581.73L190.935 581.7C190.735 581.7 190.635 581.5 190.635 581.1C190.635 580.96 190.655 580.69 190.695 580.29C190.735 579.77 190.755 579.37 190.755 579.09C190.715 578.57 190.695 577.66 190.695 576.36C190.695 574.62 190.715 572.76 190.755 570.78C190.815 568.8 190.885 567.31 190.965 566.31C191.005 565.79 191.025 565.09 191.025 564.21C191.025 563.23 190.995 562.49 190.935 561.99L190.395 561.96L187.905 562.02C187.745 562.02 187.665 561.86 187.665 561.54L187.695 560.88C187.695 560.72 187.715 560.62 187.755 560.58C187.815 560.52 187.905 560.49 188.025 560.49C188.105 560.49 188.205 560.5 188.325 560.52C188.445 560.54 188.585 560.55 188.745 560.55L195.135 560.52L200.355 560.46C201.175 560.44 202.015 560.43 202.875 560.43C203.115 560.45 203.255 560.51 203.295 560.61C203.355 560.71 203.375 560.85 203.355 561.03C203.355 561.19 203.355 561.31 203.355 561.39C203.375 561.65 203.325 561.83 203.205 561.93C203.085 562.03 202.895 562.08 202.635 562.08C202.475 562.08 202.165 562.09 201.705 562.11C201.265 562.13 200.725 562.13 200.085 562.11H199.965L199.905 567.54L199.875 572.82C199.875 573.62 199.915 574.64 199.995 575.88C200.095 577.1 200.155 577.87 200.175 578.19C200.295 579.79 200.355 580.69 200.355 580.89C200.375 581.29 200.285 581.55 200.085 581.67C199.885 581.79 199.535 581.85 199.035 581.85L197.715 581.82ZM206.899 582.48C206.639 582.48 206.459 582.43 206.359 582.33C206.279 582.23 206.239 582.06 206.239 581.82L206.269 581.13L206.209 579.39C206.089 577.31 206.029 575.5 206.029 573.96C206.029 573.16 206.059 572.61 206.119 572.31C206.219 571.81 206.269 570.4 206.269 568.08C206.269 565.66 206.229 563.83 206.149 562.59C206.129 562.43 206.119 562.21 206.119 561.93C206.119 561.61 206.149 561.38 206.209 561.24C206.269 561.1 206.329 561.03 206.389 561.03C206.469 561.01 206.599 561 206.779 561L207.439 560.94C208.819 560.78 209.919 560.7 210.739 560.7C212.979 560.7 214.659 561.28 215.779 562.44C216.919 563.58 217.489 565.07 217.489 566.91C217.489 568.37 217.019 569.77 216.079 571.11C215.679 571.69 215.219 572.21 214.699 572.67L216.799 576.48C218.339 579.24 219.239 580.8 219.499 581.16C219.779 581.6 219.919 581.89 219.919 582.03C219.919 582.11 219.869 582.16 219.769 582.18C219.669 582.2 219.579 582.21 219.499 582.21C219.439 582.21 219.389 582.21 219.349 582.21L215.959 582.3C215.799 582.3 215.669 582.23 215.569 582.09C215.489 581.95 215.369 581.7 215.209 581.34C215.109 581.04 214.929 580.64 214.669 580.14C214.269 579.42 213.579 578.07 212.599 576.09L211.069 573.12L211.159 574.71L211.309 576.99C211.429 579.67 211.529 581.15 211.609 581.43C211.629 581.51 211.639 581.61 211.639 581.73C211.639 582.09 211.449 582.27 211.069 582.27C210.949 582.27 210.849 582.26 210.769 582.24C210.449 582.2 209.669 582.24 208.429 582.36C207.589 582.44 207.079 582.48 206.899 582.48ZM210.889 569.13C211.189 569.13 211.459 569.07 211.699 568.95C212.259 568.69 212.539 568.16 212.539 567.36C212.539 566.78 212.449 566.35 212.269 566.07C212.089 565.79 211.859 565.65 211.579 565.65C211.359 565.65 211.169 565.73 211.009 565.89C210.989 565.91 210.989 566.05 211.009 566.31C211.029 566.57 211.039 566.83 211.039 567.09C211.039 567.31 211.029 567.47 211.009 567.57C210.929 567.91 210.889 568.26 210.889 568.62L210.859 568.89L210.889 569.13ZM234.57 582.03C234.49 582.03 234.41 581.96 234.33 581.82C234.25 581.68 234.18 581.54 234.12 581.4C234.06 581.26 234.01 581.14 233.97 581.04C233.87 580.84 233.68 580.38 233.4 579.66C233.14 578.94 232.94 578.37 232.8 577.95C232.74 577.75 232.62 577.46 232.44 577.08C232.26 576.68 232.13 576.4 232.05 576.24C231.97 576 231.89 575.84 231.81 575.76C231.75 575.68 231.65 575.64 231.51 575.64C231.37 575.64 231.19 575.65 230.97 575.67C230.77 575.69 230.55 575.71 230.31 575.73C230.15 575.77 229.65 575.79 228.81 575.79C228.23 575.79 227.66 575.81 227.1 575.85C226.92 575.87 226.6 575.88 226.14 575.88L224.55 575.85C224.45 575.85 224.37 575.89 224.31 575.97C224.27 576.05 224.24 576.15 224.22 576.27C224.2 576.37 224.18 576.45 224.16 576.51L223.98 577.26C223.92 577.54 223.84 577.87 223.74 578.25C223.66 578.61 223.59 578.95 223.53 579.27L223.2 580.56L222.96 581.43C222.9 581.67 222.84 581.83 222.78 581.91C222.74 581.97 222.67 582 222.57 582H220.8C220.7 582 220.65 581.96 220.65 581.88C220.65 581.84 220.69 581.7 220.77 581.46C220.93 581.08 221.07 580.7 221.19 580.32C221.93 577.84 222.37 576.22 222.51 575.46C222.69 574.46 223.06 573.17 223.62 571.59C223.8 570.91 223.97 570.29 224.13 569.73C224.19 569.45 224.28 569.11 224.4 568.71C224.78 567.31 225.16 566 225.54 564.78L226.29 562.38C226.45 561.76 226.65 561.12 226.89 560.46C227.01 560.16 227.15 560.09 227.31 560.25C227.43 560.33 227.52 560.47 227.58 560.67C227.64 560.87 227.68 561.01 227.7 561.09C227.76 561.33 228.29 562.53 229.29 564.69C229.69 565.51 230.12 566.58 230.58 567.9C230.78 568.48 231.33 569.73 232.23 571.65C232.69 572.59 232.99 573.24 233.13 573.6C233.45 574.3 234.31 576 235.71 578.7L236.07 579.45C236.53 580.47 236.88 581.12 237.12 581.4C237.22 581.6 237.27 581.73 237.27 581.79C237.27 581.95 237.09 582.03 236.73 582.03H234.57ZM225.69 571.65C226.11 571.65 226.75 571.64 227.61 571.62C228.49 571.58 229.04 571.54 229.26 571.5C229.4 571.48 229.52 571.47 229.62 571.47C229.72 571.47 229.8 571.46 229.86 571.44C229.92 571.42 229.95 571.39 229.95 571.35C229.95 571.31 229.92 571.23 229.86 571.11C229.76 570.93 229.53 570.43 229.17 569.61C228.81 568.77 228.56 568.14 228.42 567.72C228.22 567.24 228.06 566.84 227.94 566.52C227.84 566.2 227.76 565.98 227.7 565.86C227.66 565.76 227.61 565.66 227.55 565.56C227.51 565.46 227.47 565.38 227.43 565.32C227.39 565.26 227.35 565.23 227.31 565.23C227.25 565.23 227.18 565.38 227.1 565.68C227.04 565.98 226.99 566.21 226.95 566.37C226.59 567.53 226.33 568.41 226.17 569.01C226.09 569.31 225.97 569.68 225.81 570.12C225.67 570.54 225.57 570.83 225.51 570.99C225.45 571.19 225.42 571.35 225.42 571.47C225.42 571.59 225.51 571.65 225.69 571.65ZM239.382 582.33C239.242 582.33 239.152 582.27 239.112 582.15C239.072 582.03 239.042 581.9 239.022 581.76C239.022 581.62 239.022 581.53 239.022 581.49C238.982 581.17 238.962 580.7 238.962 580.08C238.962 579.68 238.972 579.38 238.992 579.18C239.012 578.1 239.042 576.22 239.082 573.54C239.122 570.84 239.142 568.42 239.142 566.28C239.142 563.98 239.112 562.64 239.052 562.26C239.032 562.1 239.022 561.89 239.022 561.63C239.022 561.33 239.062 561.14 239.142 561.06C239.242 560.98 239.382 560.94 239.562 560.94C239.962 560.94 240.352 560.95 240.732 560.97L244.002 561.03C245.202 561.03 246.452 561.24 247.752 561.66C249.052 562.08 249.702 562.86 249.702 564C249.702 565.08 249.302 565.92 248.502 566.52C247.702 567.12 246.802 567.53 245.802 567.75C244.822 567.97 243.962 568.08 243.222 568.08C242.962 568.08 242.822 568.07 242.802 568.05C242.922 568.17 243.712 569.23 245.172 571.23C249.572 577.13 252.002 580.31 252.462 580.77C253.002 581.31 253.272 581.68 253.272 581.88C253.272 581.92 253.222 581.99 253.122 582.09C252.942 582.21 252.492 582.27 251.772 582.27C251.252 582.27 250.922 582.23 250.782 582.15C250.642 582.09 250.532 581.98 250.452 581.82C250.392 581.66 250.342 581.54 250.302 581.46C250.242 581.34 249.992 581 249.552 580.44C249.132 579.86 248.812 579.42 248.592 579.12C247.532 577.76 246.612 576.53 245.832 575.43C245.352 574.75 244.462 573.58 243.162 571.92L242.682 571.32L240.612 568.74L240.492 569.94C240.412 570.54 240.392 571.26 240.432 572.1C240.492 572.66 240.532 574.11 240.552 576.45C240.572 578.79 240.582 580.5 240.582 581.58C240.582 581.9 240.462 582.1 240.222 582.18C239.982 582.28 239.702 582.33 239.382 582.33ZM240.522 566.85C241.182 566.85 241.682 566.84 242.022 566.82C243.182 566.78 244.082 566.7 244.722 566.58C245.642 566.42 246.332 566.2 246.792 565.92C247.272 565.64 247.512 565.2 247.512 564.6C247.512 564.2 247.302 563.86 246.882 563.58C246.462 563.28 245.952 563.06 245.352 562.92C244.772 562.76 244.262 562.68 243.822 562.68C243.322 562.66 242.622 562.65 241.722 562.65H240.702L240.522 566.85Z" fill="#1F1C3D"/>
<path fill-rule="evenodd" clip-rule="evenodd" d="M91.1332 609H312.867C316.79 609 320 612.205 320 616.121V655.879C320 659.795 316.79 663 312.867 663H91.1332C87.2104 663 84 659.796 84 655.879V616.121C84 612.204 87.2097 609 91.1332 609Z" fill="#675BFF" stroke="#493F87" stroke-width="0.944882" stroke-miterlimit="22.9256"/>
<path d="M114.34 645.48C114.08 645.48 113.9 645.43 113.8 645.33C113.72 645.23 113.68 645.06 113.68 644.82L113.71 644.13L113.65 642.39C113.53 640.31 113.47 638.5 113.47 636.96C113.47 636.16 113.5 635.61 113.56 635.31C113.66 634.81 113.71 633.4 113.71 631.08C113.71 628.66 113.67 626.83 113.59 625.59C113.57 625.43 113.56 625.21 113.56 624.93C113.56 624.61 113.59 624.38 113.65 624.24C113.71 624.1 113.77 624.03 113.83 624.03C113.91 624.01 114.04 624 114.22 624L114.88 623.94C116.26 623.78 117.36 623.7 118.18 623.7C120.42 623.7 122.1 624.28 123.22 625.44C124.36 626.58 124.93 628.07 124.93 629.91C124.93 631.37 124.46 632.77 123.52 634.11C123.12 634.69 122.66 635.21 122.14 635.67L124.24 639.48C125.78 642.24 126.68 643.8 126.94 644.16C127.22 644.6 127.36 644.89 127.36 645.03C127.36 645.11 127.31 645.16 127.21 645.18C127.11 645.2 127.02 645.21 126.94 645.21C126.88 645.21 126.83 645.21 126.79 645.21L123.4 645.3C123.24 645.3 123.11 645.23 123.01 645.09C122.93 644.95 122.81 644.7 122.65 644.34C122.55 644.04 122.37 643.64 122.11 643.14C121.71 642.42 121.02 641.07 120.04 639.09L118.51 636.12L118.6 637.71L118.75 639.99C118.87 642.67 118.97 644.15 119.05 644.43C119.07 644.51 119.08 644.61 119.08 644.73C119.08 645.09 118.89 645.27 118.51 645.27C118.39 645.27 118.29 645.26 118.21 645.24C117.89 645.2 117.11 645.24 115.87 645.36C115.03 645.44 114.52 645.48 114.34 645.48ZM118.33 632.13C118.63 632.13 118.9 632.07 119.14 631.95C119.7 631.69 119.98 631.16 119.98 630.36C119.98 629.78 119.89 629.35 119.71 629.07C119.53 628.79 119.3 628.65 119.02 628.65C118.8 628.65 118.61 628.73 118.45 628.89C118.43 628.91 118.43 629.05 118.45 629.31C118.47 629.57 118.48 629.83 118.48 630.09C118.48 630.31 118.47 630.47 118.45 630.57C118.37 630.91 118.33 631.26 118.33 631.62L118.3 631.89L118.33 632.13ZM129.68 645.06C129.56 645.06 129.49 645.03 129.47 644.97C129.45 644.89 129.44 644.75 129.44 644.55C129.42 644.33 129.41 643.96 129.41 643.44C129.41 643.28 129.4 643.11 129.38 642.93C129.36 642.73 129.35 642.47 129.35 642.15V638.04C129.35 637.64 129.36 637.25 129.38 636.87C129.42 636.49 129.44 636.21 129.44 636.03C129.52 635.11 129.56 634.23 129.56 633.39C129.56 632.35 129.53 631.53 129.47 630.93C129.43 630.25 129.41 629.63 129.41 629.07C129.41 627.81 129.44 626.34 129.5 624.66C129.5 624.4 129.55 624.23 129.65 624.15C129.75 624.05 129.89 624 130.07 624L130.52 624.03C130.7 624.03 130.99 624.05 131.39 624.09C131.79 624.11 132.28 624.12 132.86 624.12C133.52 624.12 134.3 624.07 135.2 623.97C136.28 623.89 137 623.85 137.36 623.85C138.18 623.85 138.93 623.88 139.61 623.94L140.69 623.97C140.95 623.97 141.12 624.03 141.2 624.15C141.28 624.27 141.32 624.49 141.32 624.81C141.32 624.99 141.34 625.3 141.38 625.74C141.42 626.26 141.44 626.71 141.44 627.09C141.44 627.49 141.41 627.86 141.35 628.2C141.33 628.5 141.19 628.65 140.93 628.65C140.85 628.65 140.74 628.63 140.6 628.59C140.46 628.55 140.35 628.52 140.27 628.5C139.97 628.44 139.1 628.41 137.66 628.41L136.52 628.38C136.26 628.36 135.88 628.35 135.38 628.35C135.02 628.35 134.75 628.36 134.57 628.38C133.97 628.42 133.44 628.44 132.98 628.44L131.39 628.41C131.23 628.41 131.14 628.45 131.12 628.53C131.1 628.59 131.09 628.75 131.09 629.01C131.09 629.37 131.08 629.68 131.06 629.94C131.02 630.74 131 631.39 131 631.89V633.66C131 634.08 131.01 634.4 131.03 634.62C131.19 634.64 131.46 634.65 131.84 634.65C132.18 634.67 132.88 634.68 133.94 634.68C134.38 634.68 135.02 634.66 135.86 634.62C136.5 634.58 136.92 634.56 137.12 634.56C137.4 634.56 137.68 634.58 137.96 634.62C138.24 634.64 138.45 634.65 138.59 634.65C138.85 634.65 138.98 634.77 138.98 635.01C138.98 635.09 138.97 635.21 138.95 635.37C138.93 635.51 138.92 635.7 138.92 635.94L138.95 637.53C138.95 637.71 138.93 637.84 138.89 637.92C138.85 637.98 138.78 638.01 138.68 638.01C138.62 638.01 138.53 638 138.41 637.98C138.31 637.94 138.22 637.92 138.14 637.92C137.96 637.92 137.62 637.91 137.12 637.89C136.64 637.87 135.98 637.86 135.14 637.86C134.24 637.86 133.46 637.9 132.8 637.98C132.14 638.06 131.74 638.1 131.6 638.1C131.38 638.1 131.25 638.09 131.21 638.07C131.11 638.07 131.05 638.06 131.03 638.04V641.04C131.17 641.04 131.28 641.03 131.36 641.01L132.2 640.98L135.74 640.95C136.46 640.95 137.03 640.96 137.45 640.98L139.52 641.01L140.78 640.98C141.02 640.98 141.18 641.04 141.26 641.16C141.34 641.26 141.38 641.41 141.38 641.61L141.35 642.21L141.32 644.31C141.32 644.63 141.25 644.83 141.11 644.91C140.97 644.97 140.77 645 140.51 645C140.25 644.98 140.04 644.97 139.88 644.97C139.02 644.97 138.28 644.96 137.66 644.94L134.6 644.91C134.36 644.91 133.16 644.94 131 645L129.86 645.03L129.68 645.06ZM151.09 645.39C149.59 645.39 148.3 644.82 147.22 643.68C146.16 642.54 145.36 641.08 144.82 639.3C144.3 637.5 144.04 635.66 144.04 633.78C144.04 632.02 144.36 630.37 145 628.83C145.66 627.29 146.53 626.06 147.61 625.14C148.71 624.22 149.87 623.76 151.09 623.76C152.45 623.76 153.48 623.99 154.18 624.45C154.9 624.91 155.4 625.34 155.68 625.74C155.96 626.12 156.14 626.35 156.22 626.43C156.38 626.61 156.46 626.8 156.46 627C156.46 627.24 156.37 627.45 156.19 627.63C156.01 627.81 155.78 628.01 155.5 628.23C155.24 628.45 155 628.64 154.78 628.8C154.68 628.86 154.59 628.89 154.51 628.89C154.33 628.89 154.15 628.8 153.97 628.62C153.93 628.58 153.64 628.25 153.1 627.63C152.56 626.99 151.75 626.67 150.67 626.67C149.85 626.67 149.14 627.11 148.54 627.99C147.94 628.85 147.48 629.9 147.16 631.14C146.86 632.36 146.71 633.5 146.71 634.56C146.71 635.66 146.87 636.83 147.19 638.07C147.51 639.31 148.02 640.37 148.72 641.25C149.44 642.13 150.34 642.57 151.42 642.57C152.86 642.57 153.96 642.01 154.72 640.89C155.04 640.37 155.25 639.8 155.35 639.18H154.48L153.13 639.15L150.1 639.12C149.76 639.12 149.59 638.96 149.59 638.64V637.47C149.59 637.27 149.62 637.15 149.68 637.11C149.74 637.05 149.82 637.02 149.92 637.02H151.3L157.45 636.87C157.63 636.87 157.76 636.96 157.84 637.14C157.94 637.32 157.98 637.56 157.96 637.86C157.96 638.56 157.83 639.47 157.57 640.59C157.31 641.69 156.67 642.77 155.65 643.83C154.63 644.87 153.11 645.39 151.09 645.39ZM160.726 645.24C160.426 645.26 160.236 645.19 160.156 645.03C160.076 644.89 160.026 644.65 160.006 644.31C159.966 644.17 159.986 643.8 160.066 643.2C160.146 642.64 160.186 642.16 160.186 641.76C160.186 641.62 160.256 640.27 160.396 637.71C160.516 635.83 160.576 634.8 160.576 634.62L160.636 631.68L160.696 628.95L160.756 627.33L160.816 626.25V624.99C160.816 624.21 161.016 623.82 161.416 623.82C161.516 623.82 161.596 623.83 161.656 623.85C161.916 623.87 162.166 623.88 162.406 623.88C162.666 623.86 162.886 623.85 163.066 623.85C163.506 623.85 163.826 623.86 164.026 623.88C164.266 623.9 164.436 623.95 164.536 624.03C164.636 624.11 164.686 624.22 164.686 624.36C164.686 624.46 164.676 624.57 164.656 624.69C164.636 624.81 164.616 624.92 164.596 625.02C164.376 626.72 164.256 628.47 164.236 630.27C164.216 630.79 164.206 631.59 164.206 632.67L164.236 636.3C164.256 636.6 164.266 636.91 164.266 637.23L164.296 638.43C164.336 639.47 164.356 640.24 164.356 640.74C164.356 641.12 164.346 641.35 164.326 641.43C164.306 641.51 164.296 641.74 164.296 642.12L164.326 643.77C164.346 644.01 164.356 644.31 164.356 644.67C164.376 644.93 164.296 645.09 164.116 645.15C163.956 645.23 163.736 645.26 163.456 645.24H160.726ZM174.111 645.63C171.231 645.63 169.401 645.08 168.621 643.98C167.841 642.86 167.431 642.28 167.391 642.24C167.311 642.14 167.271 642.04 167.271 641.94C167.271 641.88 167.351 641.75 167.511 641.55C167.771 641.19 168.151 640.76 168.651 640.26C168.731 640.18 168.811 640.14 168.891 640.14C168.991 640.14 169.101 640.22 169.221 640.38C169.341 640.52 169.441 640.63 169.521 640.71C170.701 641.89 172.041 642.48 173.541 642.48C174.301 642.48 174.961 642.34 175.521 642.06C176.081 641.76 176.361 641.21 176.361 640.41C176.361 639.03 175.271 637.56 173.091 636C172.731 635.76 172.391 635.56 172.071 635.4C171.231 634.94 170.511 634.49 169.911 634.05C169.311 633.61 168.781 633.03 168.321 632.31C167.861 631.59 167.631 630.75 167.631 629.79C167.631 628.59 168.001 627.51 168.741 626.55C169.501 625.59 170.401 624.84 171.441 624.3C172.501 623.76 173.421 623.49 174.201 623.49C176.101 623.49 177.661 623.87 178.881 624.63C180.121 625.37 181.081 626.08 181.761 626.76C181.841 626.84 181.881 626.93 181.881 627.03C181.881 627.09 181.851 627.17 181.791 627.27C181.751 627.35 181.721 627.41 181.701 627.45C181.601 627.59 181.431 627.84 181.191 628.2C180.971 628.54 180.791 628.79 180.651 628.95C180.591 629.03 180.521 629.12 180.441 629.22C180.381 629.3 180.321 629.36 180.261 629.4C180.221 629.44 180.151 629.46 180.051 629.46C180.011 629.46 179.911 629.4 179.751 629.28C179.611 629.14 179.471 629.02 179.331 628.92C178.531 628.22 177.751 627.62 176.991 627.12C176.231 626.62 175.501 626.37 174.801 626.37C174.241 626.37 173.781 626.5 173.421 626.76C173.061 627 172.881 627.56 172.881 628.44C172.881 629.3 173.201 629.97 173.841 630.45C174.481 630.93 175.331 631.39 176.391 631.83C176.491 631.87 177.071 632.12 178.131 632.58C179.211 633.04 180.161 633.92 180.981 635.22C181.821 636.52 182.241 638.07 182.241 639.87C182.241 641.79 181.521 643.23 180.081 644.19C178.641 645.15 176.651 645.63 174.111 645.63ZM194.306 644.82C194.206 644.82 192.566 644.79 189.386 644.73L187.526 644.7C187.326 644.7 187.226 644.5 187.226 644.1C187.226 643.96 187.246 643.69 187.286 643.29C187.326 642.77 187.346 642.37 187.346 642.09C187.306 641.57 187.286 640.66 187.286 639.36C187.286 637.62 187.306 635.76 187.346 633.78C187.406 631.8 187.476 630.31 187.556 629.31C187.596 628.79 187.616 628.09 187.616 627.21C187.616 626.23 187.586 625.49 187.526 624.99L186.986 624.96L184.496 625.02C184.336 625.02 184.256 624.86 184.256 624.54L184.286 623.88C184.286 623.72 184.306 623.62 184.346 623.58C184.406 623.52 184.496 623.49 184.616 623.49C184.696 623.49 184.796 623.5 184.916 623.52C185.036 623.54 185.176 623.55 185.336 623.55L191.726 623.52L196.946 623.46C197.766 623.44 198.606 623.43 199.466 623.43C199.706 623.45 199.846 623.51 199.886 623.61C199.946 623.71 199.966 623.85 199.946 624.03C199.946 624.19 199.946 624.31 199.946 624.39C199.966 624.65 199.916 624.83 199.796 624.93C199.676 625.03 199.486 625.08 199.226 625.08C199.066 625.08 198.756 625.09 198.296 625.11C197.856 625.13 197.316 625.13 196.676 625.11H196.556L196.496 630.54L196.466 635.82C196.466 636.62 196.506 637.64 196.586 638.88C196.686 640.1 196.746 640.87 196.766 641.19C196.886 642.79 196.946 643.69 196.946 643.89C196.966 644.29 196.876 644.55 196.676 644.67C196.476 644.79 196.126 644.85 195.626 644.85L194.306 644.82ZM203.49 645.48C203.23 645.48 203.05 645.43 202.95 645.33C202.87 645.23 202.83 645.06 202.83 644.82L202.86 644.13L202.8 642.39C202.68 640.31 202.62 638.5 202.62 636.96C202.62 636.16 202.65 635.61 202.71 635.31C202.81 634.81 202.86 633.4 202.86 631.08C202.86 628.66 202.82 626.83 202.74 625.59C202.72 625.43 202.71 625.21 202.71 624.93C202.71 624.61 202.74 624.38 202.8 624.24C202.86 624.1 202.92 624.03 202.98 624.03C203.06 624.01 203.19 624 203.37 624L204.03 623.94C205.41 623.78 206.51 623.7 207.33 623.7C209.57 623.7 211.25 624.28 212.37 625.44C213.51 626.58 214.08 628.07 214.08 629.91C214.08 631.37 213.61 632.77 212.67 634.11C212.27 634.69 211.81 635.21 211.29 635.67L213.39 639.48C214.93 642.24 215.83 643.8 216.09 644.16C216.37 644.6 216.51 644.89 216.51 645.03C216.51 645.11 216.46 645.16 216.36 645.18C216.26 645.2 216.17 645.21 216.09 645.21C216.03 645.21 215.98 645.21 215.94 645.21L212.55 645.3C212.39 645.3 212.26 645.23 212.16 645.09C212.08 644.95 211.96 644.7 211.8 644.34C211.7 644.04 211.52 643.64 211.26 643.14C210.86 642.42 210.17 641.07 209.19 639.09L207.66 636.12L207.75 637.71L207.9 639.99C208.02 642.67 208.12 644.15 208.2 644.43C208.22 644.51 208.23 644.61 208.23 644.73C208.23 645.09 208.04 645.27 207.66 645.27C207.54 645.27 207.44 645.26 207.36 645.24C207.04 645.2 206.26 645.24 205.02 645.36C204.18 645.44 203.67 645.48 203.49 645.48ZM207.48 632.13C207.78 632.13 208.05 632.07 208.29 631.95C208.85 631.69 209.13 631.16 209.13 630.36C209.13 629.78 209.04 629.35 208.86 629.07C208.68 628.79 208.45 628.65 208.17 628.65C207.95 628.65 207.76 628.73 207.6 628.89C207.58 628.91 207.58 629.05 207.6 629.31C207.62 629.57 207.63 629.83 207.63 630.09C207.63 630.31 207.62 630.47 207.6 630.57C207.52 630.91 207.48 631.26 207.48 631.62L207.45 631.89L207.48 632.13ZM216.94 645C216.76 645 216.71 644.87 216.79 644.61C216.79 644.55 216.8 644.5 216.82 644.46C216.82 644.42 216.83 644.37 216.85 644.31C216.87 644.25 216.9 644.16 216.94 644.04L217.21 642.93C217.25 642.81 217.32 642.6 217.42 642.3C217.52 642 217.59 641.72 217.63 641.46C217.73 640.98 217.92 640.25 218.2 639.27L218.44 638.43C218.82 637.19 219.06 636.32 219.16 635.82L219.58 634.23C219.78 633.57 219.9 633.15 219.94 632.97C220.08 632.37 220.28 631.62 220.54 630.72L220.75 629.88L220.93 629.25C221.13 628.57 221.3 628.08 221.44 627.78C221.48 627.66 221.62 627.25 221.86 626.55C222.12 625.83 222.29 625.26 222.37 624.84C222.51 624.36 222.65 624 222.79 623.76C222.95 623.52 223.16 623.4 223.42 623.4C223.52 623.4 223.62 623.49 223.72 623.67C223.82 623.85 223.92 624.07 224.02 624.33C224.12 624.59 224.19 624.78 224.23 624.9C224.39 625.28 224.67 626.23 225.07 627.75L225.31 628.59C225.33 628.75 225.66 629.73 226.3 631.53L226.87 633.18L227.41 634.59C227.97 636.17 228.33 637.13 228.49 637.47C229.19 639.59 229.6 640.87 229.72 641.31C229.86 641.83 230.08 642.48 230.38 643.26C230.7 644.04 230.88 644.48 230.92 644.58C230.98 644.72 231.01 644.82 231.01 644.88C231.01 644.96 230.9 645 230.68 645H229C228.92 645 228.85 644.99 228.79 644.97C228.75 644.93 228.71 644.85 228.67 644.73C228.59 644.51 228.48 644.15 228.34 643.65C228.16 643.15 228.04 642.7 227.98 642.3C227.92 642 227.82 641.64 227.68 641.22C227.56 640.8 227.45 640.48 227.35 640.26C227.17 639.88 227.01 639.45 226.87 638.97L226.6 638.1C226.5 637.88 226.42 637.75 226.36 637.71C226.32 637.65 226.24 637.62 226.12 637.62C225.7 637.62 225.39 637.63 225.19 637.65L223.9 637.71C223.74 637.73 223 637.74 221.68 637.74H219.85H219.79C219.67 637.74 219.58 637.85 219.52 638.07L219.46 638.37L219.34 638.94C219.3 639.06 219.17 639.64 218.95 640.68C218.89 641.02 218.79 641.46 218.65 642C218.61 642.4 218.52 642.73 218.38 642.99C218.34 643.05 218.29 643.19 218.23 643.41C218.17 643.63 218.12 643.81 218.08 643.95C218.02 644.11 217.95 644.37 217.87 644.73C217.85 644.75 217.83 644.8 217.81 644.88C217.79 644.94 217.76 644.98 217.72 645C217.68 645 217.62 645 217.54 645H216.94ZM222.67 635.7C222.91 635.66 223.25 635.64 223.69 635.64L225.31 635.67C225.57 635.67 225.7 635.6 225.7 635.46C225.7 635.36 225.63 635.14 225.49 634.8C225.37 634.5 225.19 633.94 224.95 633.12C224.77 632.46 224.59 631.89 224.41 631.41C224.21 630.81 223.99 630.1 223.75 629.28C223.53 628.46 223.4 627.93 223.36 627.69C223.06 626.63 222.86 626.1 222.76 626.1C222.7 626.1 222.6 626.37 222.46 626.91L222.28 627.57C222.14 628.11 221.96 628.79 221.74 629.61C221.52 630.41 221.32 631.09 221.14 631.65C221.02 632.17 220.85 632.83 220.63 633.63C220.43 634.41 220.27 634.95 220.15 635.25C220.11 635.37 220.09 635.44 220.09 635.46C220.09 635.6 220.15 635.69 220.27 635.73C220.41 635.77 220.54 635.79 220.66 635.79C220.8 635.77 220.89 635.76 220.93 635.76L222.67 635.7ZM233.219 645.33C233.079 645.33 232.989 645.27 232.949 645.15C232.909 645.03 232.879 644.9 232.859 644.76C232.859 644.62 232.859 644.53 232.859 644.49C232.819 644.17 232.799 643.7 232.799 643.08C232.799 642.68 232.809 642.38 232.829 642.18C232.849 641.1 232.879 639.22 232.919 636.54C232.959 633.84 232.979 631.42 232.979 629.28C232.979 626.98 232.949 625.64 232.889 625.26C232.869 625.1 232.859 624.89 232.859 624.63C232.859 624.33 232.899 624.14 232.979 624.06C233.079 623.98 233.219 623.94 233.399 623.94C233.799 623.94 234.189 623.95 234.569 623.97L237.839 624.03C239.039 624.03 240.289 624.24 241.589 624.66C242.889 625.08 243.539 625.86 243.539 627C243.539 628.08 243.139 628.92 242.339 629.52C241.539 630.12 240.639 630.53 239.639 630.75C238.659 630.97 237.799 631.08 237.059 631.08C236.799 631.08 236.659 631.07 236.639 631.05C236.759 631.17 237.549 632.23 239.009 634.23C243.409 640.13 245.839 643.31 246.299 643.77C246.839 644.31 247.109 644.68 247.109 644.88C247.109 644.92 247.059 644.99 246.959 645.09C246.779 645.21 246.329 645.27 245.609 645.27C245.089 645.27 244.759 645.23 244.619 645.15C244.479 645.09 244.369 644.98 244.289 644.82C244.229 644.66 244.179 644.54 244.139 644.46C244.079 644.34 243.829 644 243.389 643.44C242.969 642.86 242.649 642.42 242.429 642.12C241.369 640.76 240.449 639.53 239.669 638.43C239.189 637.75 238.299 636.58 236.999 634.92L236.519 634.32L234.449 631.74L234.329 632.94C234.249 633.54 234.229 634.26 234.269 635.1C234.329 635.66 234.369 637.11 234.389 639.45C234.409 641.79 234.419 643.5 234.419 644.58C234.419 644.9 234.299 645.1 234.059 645.18C233.819 645.28 233.539 645.33 233.219 645.33ZM234.359 629.85C235.019 629.85 235.519 629.84 235.859 629.82C237.019 629.78 237.919 629.7 238.559 629.58C239.479 629.42 240.169 629.2 240.629 628.92C241.109 628.64 241.349 628.2 241.349 627.6C241.349 627.2 241.139 626.86 240.719 626.58C240.299 626.28 239.789 626.06 239.189 625.92C238.609 625.76 238.099 625.68 237.659 625.68C237.159 625.66 236.459 625.65 235.559 625.65H234.539L234.359 629.85ZM251.925 638.01C251.505 638.01 251.135 638 250.815 637.98C250.515 637.96 250.285 637.95 250.125 637.95C249.865 637.95 249.705 637.93 249.645 637.89C249.585 637.85 249.555 637.79 249.555 637.71C249.575 637.61 249.585 637.53 249.585 637.47L249.525 636.81C249.445 636.17 249.425 635.8 249.465 635.7C249.465 635.58 249.575 635.52 249.795 635.52C249.855 635.52 250.005 635.54 250.245 635.58H252.405C252.805 635.58 253.145 635.57 253.425 635.55C254.025 635.51 255.005 635.49 256.365 635.49H260.565C260.705 635.49 260.785 635.53 260.805 635.61C260.845 635.67 260.855 635.74 260.835 635.82C260.835 635.9 260.835 635.96 260.835 636V637.56C260.835 637.72 260.725 637.8 260.505 637.8L260.055 637.77C259.915 637.77 259.615 637.79 259.155 637.83C258.715 637.85 258.335 637.86 258.015 637.86L255.435 637.92C254.515 637.92 253.895 637.93 253.575 637.95C253.255 637.95 253.035 637.95 252.915 637.95C252.735 637.99 252.405 638.01 251.925 638.01ZM270.615 645.63C267.735 645.63 265.905 645.08 265.125 643.98C264.345 642.86 263.935 642.28 263.895 642.24C263.815 642.14 263.775 642.04 263.775 641.94C263.775 641.88 263.855 641.75 264.015 641.55C264.275 641.19 264.655 640.76 265.155 640.26C265.235 640.18 265.315 640.14 265.395 640.14C265.495 640.14 265.605 640.22 265.725 640.38C265.845 640.52 265.945 640.63 266.025 640.71C267.205 641.89 268.545 642.48 270.045 642.48C270.805 642.48 271.465 642.34 272.025 642.06C272.585 641.76 272.865 641.21 272.865 640.41C272.865 639.03 271.775 637.56 269.595 636C269.235 635.76 268.895 635.56 268.575 635.4C267.735 634.94 267.015 634.49 266.415 634.05C265.815 633.61 265.285 633.03 264.825 632.31C264.365 631.59 264.135 630.75 264.135 629.79C264.135 628.59 264.505 627.51 265.245 626.55C266.005 625.59 266.905 624.84 267.945 624.3C269.005 623.76 269.925 623.49 270.705 623.49C272.605 623.49 274.165 623.87 275.385 624.63C276.625 625.37 277.585 626.08 278.265 626.76C278.345 626.84 278.385 626.93 278.385 627.03C278.385 627.09 278.355 627.17 278.295 627.27C278.255 627.35 278.225 627.41 278.205 627.45C278.105 627.59 277.935 627.84 277.695 628.2C277.475 628.54 277.295 628.79 277.155 628.95C277.095 629.03 277.025 629.12 276.945 629.22C276.885 629.3 276.825 629.36 276.765 629.4C276.725 629.44 276.655 629.46 276.555 629.46C276.515 629.46 276.415 629.4 276.255 629.28C276.115 629.14 275.975 629.02 275.835 628.92C275.035 628.22 274.255 627.62 273.495 627.12C272.735 626.62 272.005 626.37 271.305 626.37C270.745 626.37 270.285 626.5 269.925 626.76C269.565 627 269.385 627.56 269.385 628.44C269.385 629.3 269.705 629.97 270.345 630.45C270.985 630.93 271.835 631.39 272.895 631.83C272.995 631.87 273.575 632.12 274.635 632.58C275.715 633.04 276.665 633.92 277.485 635.22C278.325 636.52 278.745 638.07 278.745 639.87C278.745 641.79 278.025 643.23 276.585 644.19C275.145 645.15 273.155 645.63 270.615 645.63ZM282.17 645.06C282.05 645.06 281.98 645.03 281.96 644.97C281.94 644.89 281.93 644.75 281.93 644.55C281.91 644.33 281.9 643.96 281.9 643.44C281.9 643.28 281.89 643.11 281.87 642.93C281.85 642.73 281.84 642.47 281.84 642.15V638.04C281.84 637.64 281.85 637.25 281.87 636.87C281.91 636.49 281.93 636.21 281.93 636.03C282.01 635.11 282.05 634.23 282.05 633.39C282.05 632.35 282.02 631.53 281.96 630.93C281.92 630.25 281.9 629.63 281.9 629.07C281.9 627.81 281.93 626.34 281.99 624.66C281.99 624.4 282.04 624.23 282.14 624.15C282.24 624.05 282.38 624 282.56 624L283.01 624.03C283.19 624.03 283.48 624.05 283.88 624.09C284.28 624.11 284.77 624.12 285.35 624.12C286.01 624.12 286.79 624.07 287.69 623.97C288.77 623.89 289.49 623.85 289.85 623.85C290.67 623.85 291.42 623.88 292.1 623.94L293.18 623.97C293.44 623.97 293.61 624.03 293.69 624.15C293.77 624.27 293.81 624.49 293.81 624.81C293.81 624.99 293.83 625.3 293.87 625.74C293.91 626.26 293.93 626.71 293.93 627.09C293.93 627.49 293.9 627.86 293.84 628.2C293.82 628.5 293.68 628.65 293.42 628.65C293.34 628.65 293.23 628.63 293.09 628.59C292.95 628.55 292.84 628.52 292.76 628.5C292.46 628.44 291.59 628.41 290.15 628.41L289.01 628.38C288.75 628.36 288.37 628.35 287.87 628.35C287.51 628.35 287.24 628.36 287.06 628.38C286.46 628.42 285.93 628.44 285.47 628.44L283.88 628.41C283.72 628.41 283.63 628.45 283.61 628.53C283.59 628.59 283.58 628.75 283.58 629.01C283.58 629.37 283.57 629.68 283.55 629.94C283.51 630.74 283.49 631.39 283.49 631.89V633.66C283.49 634.08 283.5 634.4 283.52 634.62C283.68 634.64 283.95 634.65 284.33 634.65C284.67 634.67 285.37 634.68 286.43 634.68C286.87 634.68 287.51 634.66 288.35 634.62C288.99 634.58 289.41 634.56 289.61 634.56C289.89 634.56 290.17 634.58 290.45 634.62C290.73 634.64 290.94 634.65 291.08 634.65C291.34 634.65 291.47 634.77 291.47 635.01C291.47 635.09 291.46 635.21 291.44 635.37C291.42 635.51 291.41 635.7 291.41 635.94L291.44 637.53C291.44 637.71 291.42 637.84 291.38 637.92C291.34 637.98 291.27 638.01 291.17 638.01C291.11 638.01 291.02 638 290.9 637.98C290.8 637.94 290.71 637.92 290.63 637.92C290.45 637.92 290.11 637.91 289.61 637.89C289.13 637.87 288.47 637.86 287.63 637.86C286.73 637.86 285.95 637.9 285.29 637.98C284.63 638.06 284.23 638.1 284.09 638.1C283.87 638.1 283.74 638.09 283.7 638.07C283.6 638.07 283.54 638.06 283.52 638.04V641.04C283.66 641.04 283.77 641.03 283.85 641.01L284.69 640.98L288.23 640.95C288.95 640.95 289.52 640.96 289.94 640.98L292.01 641.01L293.27 640.98C293.51 640.98 293.67 641.04 293.75 641.16C293.83 641.26 293.87 641.41 293.87 641.61L293.84 642.21L293.81 644.31C293.81 644.63 293.74 644.83 293.6 644.91C293.46 644.97 293.26 645 293 645C292.74 644.98 292.53 644.97 292.37 644.97C291.51 644.97 290.77 644.96 290.15 644.94L287.09 644.91C286.85 644.91 285.65 644.94 283.49 645L282.35 645.03L282.17 645.06Z" fill="#FEFEFE"/>
<path d="M330.386 783.785C321.531 783.761 312.735 787.261 310.436 791.607C308.712 794.426 308.805 796.572 310.318 799.181C311.469 801.163 310.995 801.079 314.561 802.253C314.851 802.349 316.302 803.734 316.658 804.028C317.421 804.158 317.291 804.098 318.275 803.946C318.977 804.118 319.063 804.241 319.353 804.583C319.961 805.297 322.639 804.985 323.604 805.436L323.35 805.666L323.6 805.795L324.116 805.575L324.372 805.592C324.572 805.888 324.574 805.982 325.037 806.163C326.932 806.333 332.069 806.154 333.132 806.418L333.266 806.455C333.955 806.351 334.71 806.313 335.434 806.232C351.452 804.439 359.895 795.212 351.591 788.94C349.986 787.729 346.494 785.714 343.651 785.265C343.499 785.426 343.523 785.428 343.249 785.543C342.166 785.301 342.601 784.853 341.463 784.658C340.719 784.742 340.073 784.865 339.543 784.623L340.195 784.477L340.11 784.302C337.877 783.919 336.042 783.853 333.686 783.708C331.995 783.603 331.528 783.797 330.386 783.785Z" fill="#675BFF"/>
<path d="M330.386 783.785C321.531 783.761 312.735 787.261 310.436 791.607C308.712 794.426 308.805 796.572 310.318 799.181C311.469 801.163 310.995 801.079 314.561 802.253C314.851 802.349 316.302 803.734 316.658 804.028C317.421 804.158 317.291 804.098 318.275 803.946C318.977 804.118 319.063 804.241 319.353 804.583C319.961 805.297 322.639 804.985 323.604 805.436L323.35 805.666L323.6 805.795L324.116 805.575L324.372 805.592C324.572 805.888 324.574 805.982 325.037 806.163C326.932 806.333 332.069 806.154 333.132 806.418L333.266 806.455C333.955 806.351 334.71 806.313 335.434 806.232C351.452 804.439 359.895 795.212 351.591 788.94C349.986 787.729 346.494 785.714 343.651 785.265C343.499 785.426 343.523 785.428 343.249 785.543C342.166 785.301 342.601 784.853 341.463 784.658C340.719 784.742 340.073 784.865 339.543 784.623L340.195 784.477L340.11 784.302C337.877 783.919 336.042 783.853 333.686 783.708C331.995 783.603 331.528 783.797 330.386 783.785Z" fill="#675BFF"/>
<path fill-rule="evenodd" clip-rule="evenodd" d="M366.813 733.025C366.626 733.108 366.772 734.466 366.73 734.863L366.52 736.93L366.458 737.66V738.808L366.291 740.395C366.291 740.833 366.25 741.271 366.144 741.709C366.041 742.21 365.853 743.087 365.811 743.505C365.768 743.923 366.041 742.962 366.082 743.568C366.166 743.903 366.124 744.237 365.998 744.549C365.874 744.946 365.769 744.486 365.769 744.486L365.539 745.259L365.436 746.136C365.373 746.742 365.268 747.346 365.08 747.932C364.871 748.829 364.663 749.643 364.558 750.103L364.35 751.354C363.45 753.13 362.492 754.987 361.343 756.909L361.614 757.054C360.738 758.579 359.758 760.082 358.755 761.543L358.399 762.023C357.69 763.568 356.855 765.07 355.894 766.491C355.894 766.491 356.416 765.53 356.124 765.718L356.102 765.759L355.476 766.804C355.185 767.346 355.06 767.535 354.975 767.473L354.891 767.409L354.453 768.119C354.308 768.474 354.14 768.829 353.932 769.163L353.181 770.228L351.615 772.399L350.988 772.984C350.549 773.422 350.675 773.631 350.675 773.631L351.509 772.816C350.675 773.882 349.756 774.967 348.817 776.032L348.148 776.386C348.148 776.386 348.274 775.99 348.023 776.262C347.69 776.575 347.439 776.93 347.23 777.326L347.292 777.389V777.639L345.08 779.916L344.579 780.145L343.889 780.687L342.847 781.648C342.637 781.794 342.428 781.919 342.177 782.002L341.238 782.9L340.737 783.485L340.487 783.672L340.049 784.028C339.694 784.321 339.653 784.528 339.653 784.613V784.653L340.57 783.882C339.631 784.904 339.297 785.718 338.254 786.763L337.794 786.993L337.564 787.096C337.564 787.096 337.731 786.7 337.439 786.971C337.084 787.264 336.791 787.617 336.562 788.036L336.624 788.098V788.348C335.957 788.997 335.517 789.726 334.871 790.331L334.517 790.667L333.911 791.773L333.201 792.315L332.491 793.631C332.283 793.777 332.052 793.902 331.823 793.987C331.635 794.174 331.489 794.383 331.384 794.633L329.151 792.503L327.919 791.147L325.497 788.746L325.1 788.329C323.806 787.305 322.679 786.136 321.698 784.82C321.698 784.82 323.639 786.22 321.134 783.714C319.673 782.232 318.127 780.855 316.499 779.56C314.683 777.744 312.992 775.801 311.488 773.736C310.236 771.961 308.837 770.291 307.355 768.704L304.285 764.862C303.388 763.692 302.552 762.461 301.801 761.21C301.385 760.645 300.987 760.038 300.611 759.435L300.863 759.309L300.82 759.163L300.382 758.036C300.194 757.618 300.006 757.201 299.86 756.782L300.132 756.72C299.757 756.199 299.506 755.405 299.693 755.28C299.881 755.155 299.463 753.922 299.38 753.589C299.296 753.234 299.15 752.42 299.066 751.646L298.941 751L298.627 749.998C298.461 749.496 298.524 749.121 298.378 748.557C298.274 748.16 298.19 747.785 298.148 747.388C298.127 746.825 298.064 746.281 297.961 745.718C297.856 745.342 297.897 746.24 297.689 745.738C297.522 745.489 297.438 745.175 297.48 744.861C297.48 744.486 297.709 744.861 297.709 744.861V744.132L297.543 743.358C297.438 742.816 297.376 742.273 297.334 741.73L297.188 739.726L297 738.599C297.292 736.845 297.668 735.049 298.169 733.171L297.876 733.108C298.274 731.626 298.754 730.185 299.296 728.744L299.485 728.265C299.63 727.387 299.817 726.533 300.09 725.697C300.361 724.778 300.695 724.048 300.695 724.048C300.695 724.048 300.445 724.924 300.654 724.736V724.612L300.987 723.652C301.113 723.15 301.196 722.962 301.279 723.024L301.362 723.067L301.635 722.44C301.697 722.128 301.781 721.814 301.884 721.521C302.032 721.187 302.198 720.875 302.386 720.582C302.762 719.956 303.054 719.266 303.472 718.683C303.659 718.535 303.826 718.369 303.994 718.202C304.348 717.847 304.202 717.638 304.202 717.638L303.535 718.328C304.182 717.388 304.912 716.49 305.684 715.655C305.872 715.572 306.082 715.509 306.269 715.426C306.269 715.426 306.165 715.76 306.394 715.551C306.688 715.321 306.916 715.029 307.063 714.715L307 714.653L306.979 714.424C307.604 713.839 308.273 713.297 308.963 712.795L309.401 712.69L310.048 712.378L311.008 711.773C311.259 711.71 311.467 711.668 311.676 711.668L312.574 711.167L313.055 710.813L313.305 710.729L313.743 710.583C314.077 710.456 314.139 710.29 314.161 710.206V710.165L313.284 710.499C314.036 709.893 314.85 709.351 315.686 708.849H316.311C316.311 708.849 316.102 709.142 316.374 709.016C316.708 708.891 317.022 708.724 317.293 708.515L317.272 708.432L317.293 708.349L317.313 708.244C317.941 707.931 318.566 707.66 319.234 707.43L319.589 707.325L320.404 706.72H321.112L322.095 706.052C322.303 706.031 322.511 706.094 322.7 706.177C323.201 706.157 323.577 705.739 323.89 705.697L324.6 705.655C324.892 705.259 325.142 705.906 325.183 705.53C325.79 705.508 326.394 705.342 326.937 705.049L327 705.029C327.398 705.029 327.877 704.904 327.752 705.175L333.388 705.363L335.33 705.592C336.541 705.676 337.731 705.801 338.901 705.968L339.485 706.052C340.508 706.01 341.531 706.114 342.511 706.406C343.159 706.553 343.785 706.74 344.391 706.99C344.391 706.99 342.011 706.866 345.457 707.617C348.9 708.39 351.322 709.142 351.322 709.142C353.556 710.102 355.602 711.48 357.314 713.213C359.631 715.635 361.49 717.784 361.49 717.784C363.409 720.331 364.935 723.172 365.978 726.177L366.813 728.349L366.541 728.412V728.577L366.751 729.893C366.875 730.373 366.917 730.853 367 731.335L366.73 731.376C366.979 732.065 367.021 732.962 366.813 733.025ZM349.388 732.836C348.862 730.869 347.832 729.085 346.369 727.667C344.402 725.38 341.909 723.596 339.119 722.521C338.432 722.315 337.747 722.155 337.038 722.04L337.129 721.743L336.992 721.652C336.625 721.491 336.214 721.4 335.825 721.286C335.368 721.172 334.911 721.103 334.453 721.058L334.498 720.736C333.836 720.851 332.989 720.692 332.943 720.509C332.898 720.325 331.503 720.256 331.137 720.28C330.428 720.234 329.741 720.234 329.032 720.28L328.277 720.393C327.912 720.462 327.546 720.577 327.179 720.714C326.654 720.897 326.265 720.943 325.694 721.148C325.121 721.377 324.984 721.491 324.527 721.652C323.955 721.812 323.406 722.064 322.925 722.407C322.606 722.681 323.475 722.246 323.063 722.681C322.674 723.115 322.674 723.115 322.309 723.253C321.943 723.39 322.171 723.024 322.171 723.024L321.484 723.39L320.89 723.985L319.678 725.174C319.198 725.654 318.763 726.181 318.375 726.752C318.168 727.072 317.986 727.416 317.826 727.758C316.499 729.062 315.401 730.595 314.577 732.287L314.875 732.402C314.189 733.796 313.686 735.283 313.388 736.816L313.274 737.319L313.525 740.018L313.778 741.733C313.778 741.733 313.548 740.841 313.434 741.115V741.161L313.663 742.191C313.846 742.671 313.891 742.853 313.8 742.877H313.686L313.914 743.563L314.395 744.34L314.715 745.209L315.515 746.993C315.538 747.199 315.584 747.429 315.63 747.634C315.745 748.114 315.996 748.046 315.996 748.046L315.79 747.199C316.201 748.114 316.658 749.052 317.23 750.035L317.276 750.653C317.276 750.653 316.956 750.47 317.117 750.744C317.276 751.087 317.505 751.361 317.826 751.591L317.917 751.523L318.168 751.522C318.672 752.254 319.244 752.94 319.861 753.58L320.022 754.061C320.158 754.266 320.319 754.473 320.502 754.679L321.463 755.547C321.622 755.73 321.759 755.913 321.874 756.119L322.925 756.759C323.131 756.875 323.36 756.966 323.589 757.034L323.84 757.194L324.298 757.445C324.687 757.652 324.871 757.582 324.938 757.537L324.984 757.515L324.023 756.988C325.075 757.263 326.151 757.445 327.226 757.515L327.591 757.789L327.774 757.904C327.774 757.904 327.431 758.063 327.752 758.109C328.117 758.2 328.506 758.177 328.895 758.085V757.995L328.963 757.926L329.055 757.811C329.741 757.811 330.428 757.766 331.113 757.652H331.48C331.777 757.515 332.074 757.354 332.349 757.171L332.989 757.217L333.904 756.599C334.087 756.623 334.27 756.691 334.453 756.782C334.888 756.714 335.139 756.234 335.413 756.187L336.008 756.096C336.168 755.616 336.511 756.279 336.489 755.867C336.489 755.867 336.854 755.867 337.427 755.273C337.655 755.273 337.906 755.273 338.112 755.273C338.432 755.479 339.004 754.792 339.05 755.227C340.445 754.792 341.772 754.152 342.984 753.306C343.441 753.032 343.899 752.78 344.334 752.482C345.111 751.866 345.843 751.156 346.507 750.423L346.849 750.058C347.238 749.281 347.696 748.526 348.221 747.84L349.205 746.399C349.205 746.376 348.725 748.572 350.006 745.53C350.692 743.7 350.898 741.733 350.578 739.834C350.372 737.455 350.005 735.123 349.388 732.836Z" fill="#DB0045"/>
<path fill-rule="evenodd" clip-rule="evenodd" d="M366.813 733.025C366.626 733.108 366.772 734.466 366.73 734.863L366.52 736.93L366.458 737.66V738.808L366.291 740.395C366.291 740.833 366.25 741.271 366.144 741.709C366.041 742.21 365.853 743.087 365.811 743.505C365.768 743.923 366.041 742.962 366.082 743.568C366.166 743.903 366.124 744.237 365.998 744.549C365.874 744.946 365.769 744.486 365.769 744.486L365.539 745.259L365.436 746.136C365.373 746.742 365.268 747.346 365.08 747.932C364.871 748.829 364.663 749.643 364.558 750.103L364.35 751.354C363.45 753.13 362.492 754.987 361.343 756.909L361.614 757.054C360.738 758.579 359.758 760.082 358.755 761.543L358.399 762.023C357.69 763.568 356.855 765.07 355.894 766.491C355.894 766.491 356.416 765.53 356.124 765.718L356.102 765.759L355.476 766.804C355.185 767.346 355.06 767.535 354.975 767.473L354.891 767.409L354.453 768.119C354.308 768.474 354.14 768.829 353.932 769.163L353.181 770.228L351.615 772.399L350.988 772.984C350.549 773.422 350.675 773.631 350.675 773.631L351.509 772.816C350.675 773.882 349.756 774.967 348.817 776.032L348.148 776.386C348.148 776.386 348.274 775.99 348.023 776.262C347.69 776.575 347.439 776.93 347.23 777.326L347.292 777.389V777.639L345.08 779.916L344.579 780.145L343.889 780.687L342.847 781.648C342.637 781.794 342.428 781.919 342.177 782.002L341.238 782.9L340.737 783.485L340.487 783.672L340.049 784.028C339.694 784.321 339.653 784.528 339.653 784.613V784.653L340.57 783.882C339.631 784.904 339.297 785.718 338.254 786.763L337.794 786.993L337.564 787.096C337.564 787.096 337.731 786.7 337.439 786.971C337.084 787.264 336.791 787.617 336.562 788.036L336.624 788.098V788.348C335.957 788.997 335.517 789.726 334.871 790.331L334.517 790.667L333.911 791.773L333.201 792.315L332.491 793.631C332.283 793.777 332.052 793.902 331.823 793.987C331.635 794.174 331.489 794.383 331.384 794.633L329.151 792.503L327.919 791.147L325.497 788.746L325.1 788.329C323.806 787.305 322.679 786.136 321.698 784.82C321.698 784.82 323.639 786.22 321.134 783.714C319.673 782.232 318.127 780.855 316.499 779.56C314.683 777.744 312.992 775.801 311.488 773.736C310.236 771.961 308.837 770.291 307.355 768.704L304.285 764.862C303.388 763.692 302.552 762.461 301.801 761.21C301.385 760.645 300.987 760.038 300.611 759.435L300.863 759.309L300.82 759.163L300.382 758.036C300.194 757.618 300.006 757.201 299.86 756.782L300.132 756.72C299.757 756.199 299.506 755.405 299.693 755.28C299.881 755.155 299.463 753.922 299.38 753.589C299.296 753.234 299.15 752.42 299.066 751.646L298.941 751L298.627 749.998C298.461 749.496 298.524 749.121 298.378 748.557C298.274 748.16 298.19 747.785 298.148 747.388C298.127 746.825 298.064 746.281 297.961 745.718C297.856 745.342 297.897 746.24 297.689 745.738C297.522 745.489 297.438 745.175 297.48 744.861C297.48 744.486 297.709 744.861 297.709 744.861V744.132L297.543 743.358C297.438 742.816 297.376 742.273 297.334 741.73L297.188 739.726L297 738.599C297.292 736.845 297.668 735.049 298.169 733.171L297.876 733.108C298.274 731.626 298.754 730.185 299.296 728.744L299.485 728.265C299.63 727.387 299.817 726.533 300.09 725.697C300.361 724.778 300.695 724.048 300.695 724.048C300.695 724.048 300.445 724.924 300.654 724.736V724.612L300.987 723.652C301.113 723.15 301.196 722.962 301.279 723.024L301.362 723.067L301.635 722.44C301.697 722.128 301.781 721.814 301.884 721.521C302.032 721.187 302.198 720.875 302.386 720.582C302.762 719.956 303.054 719.266 303.472 718.683C303.659 718.535 303.826 718.369 303.994 718.202C304.348 717.847 304.202 717.638 304.202 717.638L303.535 718.328C304.182 717.388 304.912 716.49 305.684 715.655C305.872 715.572 306.082 715.509 306.269 715.426C306.269 715.426 306.165 715.76 306.394 715.551C306.688 715.321 306.916 715.029 307.063 714.715L307 714.653L306.979 714.424C307.604 713.839 308.273 713.297 308.963 712.795L309.401 712.69L310.048 712.378L311.008 711.773C311.259 711.71 311.467 711.668 311.676 711.668L312.574 711.167L313.055 710.813L313.305 710.729L313.743 710.583C314.077 710.456 314.139 710.29 314.161 710.206V710.165L313.284 710.499C314.036 709.893 314.85 709.351 315.686 708.849H316.311C316.311 708.849 316.102 709.142 316.374 709.016C316.708 708.891 317.022 708.724 317.293 708.515L317.272 708.432L317.293 708.349L317.313 708.244C317.941 707.931 318.566 707.66 319.234 707.43L319.589 707.325L320.404 706.72H321.112L322.095 706.052C322.303 706.031 322.511 706.094 322.7 706.177C323.201 706.157 323.577 705.739 323.89 705.697L324.6 705.655C324.892 705.259 325.142 705.906 325.183 705.53C325.79 705.508 326.394 705.342 326.937 705.049L327 705.029C327.398 705.029 327.877 704.904 327.752 705.175L333.388 705.363L335.33 705.592C336.541 705.676 337.731 705.801 338.901 705.968L339.485 706.052C340.508 706.01 341.531 706.114 342.511 706.406C343.159 706.553 343.785 706.74 344.391 706.99C344.391 706.99 342.011 706.866 345.457 707.617C348.9 708.39 351.322 709.142 351.322 709.142C353.556 710.102 355.602 711.48 357.314 713.213C359.631 715.635 361.49 717.784 361.49 717.784C363.409 720.331 364.935 723.172 365.978 726.177L366.813 728.349L366.541 728.412V728.577L366.751 729.893C366.875 730.373 366.917 730.853 367 731.335L366.73 731.376C366.979 732.065 367.021 732.962 366.813 733.025ZM349.388 732.836C348.862 730.869 347.832 729.085 346.369 727.667C344.402 725.38 341.909 723.596 339.119 722.521C338.432 722.315 337.747 722.155 337.038 722.04L337.129 721.743L336.992 721.652C336.625 721.491 336.214 721.4 335.825 721.286C335.368 721.172 334.911 721.103 334.453 721.058L334.498 720.736C333.836 720.851 332.989 720.692 332.943 720.509C332.898 720.325 331.503 720.256 331.137 720.28C330.428 720.234 329.741 720.234 329.032 720.28L328.277 720.393C327.912 720.462 327.546 720.577 327.179 720.714C326.654 720.897 326.265 720.943 325.694 721.148C325.121 721.377 324.984 721.491 324.527 721.652C323.955 721.812 323.406 722.064 322.925 722.407C322.606 722.681 323.475 722.246 323.063 722.681C322.674 723.115 322.674 723.115 322.309 723.253C321.943 723.39 322.171 723.024 322.171 723.024L321.484 723.39L320.89 723.985L319.678 725.174C319.198 725.654 318.763 726.181 318.375 726.752C318.168 727.072 317.986 727.416 317.826 727.758C316.499 729.062 315.401 730.595 314.577 732.287L314.875 732.402C314.189 733.796 313.686 735.283 313.388 736.816L313.274 737.319L313.525 740.018L313.778 741.733C313.778 741.733 313.548 740.841 313.434 741.115V741.161L313.663 742.191C313.846 742.671 313.891 742.853 313.8 742.877H313.686L313.914 743.563L314.395 744.34L314.715 745.209L315.515 746.993C315.538 747.199 315.584 747.429 315.63 747.634C315.745 748.114 315.996 748.046 315.996 748.046L315.79 747.199C316.201 748.114 316.658 749.052 317.23 750.035L317.276 750.653C317.276 750.653 316.956 750.47 317.117 750.744C317.276 751.087 317.505 751.361 317.826 751.591L317.917 751.523L318.168 751.522C318.672 752.254 319.244 752.94 319.861 753.58L320.022 754.061C320.158 754.266 320.319 754.473 320.502 754.679L321.463 755.547C321.622 755.73 321.759 755.913 321.874 756.119L322.925 756.759C323.131 756.875 323.36 756.966 323.589 757.034L323.84 757.194L324.298 757.445C324.687 757.652 324.871 757.582 324.938 757.537L324.984 757.515L324.023 756.988C325.075 757.263 326.151 757.445 327.226 757.515L327.591 757.789L327.774 757.904C327.774 757.904 327.431 758.063 327.752 758.109C328.117 758.2 328.506 758.177 328.895 758.085V757.995L328.963 757.926L329.055 757.811C329.741 757.811 330.428 757.766 331.113 757.652H331.48C331.777 757.515 332.074 757.354 332.349 757.171L332.989 757.217L333.904 756.599C334.087 756.623 334.27 756.691 334.453 756.782C334.888 756.714 335.139 756.234 335.413 756.187L336.008 756.096C336.168 755.616 336.511 756.279 336.489 755.867C336.489 755.867 336.854 755.867 337.427 755.273C337.655 755.273 337.906 755.273 338.112 755.273C338.432 755.479 339.004 754.792 339.05 755.227C340.445 754.792 341.772 754.152 342.984 753.306C343.441 753.032 343.899 752.78 344.334 752.482C345.111 751.866 345.843 751.156 346.507 750.423L346.849 750.058C347.238 749.281 347.696 748.526 348.221 747.84L349.205 746.399C349.205 746.376 348.725 748.572 350.006 745.53C350.692 743.7 350.898 741.733 350.578 739.834C350.372 737.455 350.005 735.123 349.388 732.836Z" fill="#DB0045"/>
<path fill-rule="evenodd" clip-rule="evenodd" d="M337.199 745.157C337.196 745.141 337.188 745.119 337.171 745.098C337.075 745.226 336.989 745.346 336.916 745.45C336.765 745.667 336.674 745.813 336.674 745.813C335.941 747.23 335.026 747.507 334.691 748.161L334.593 748.242L333.999 748.797L333.671 749.074C332.063 750.591 331.936 750.591 330.328 749.074L330 748.797L329.406 748.242L329.309 748.161C328.973 747.507 328.057 747.23 327.326 745.813C326.145 743.92 325.164 743.522 323.666 740.703C323.316 739.994 322.886 739.356 322.477 738.638C322.446 738.559 322.314 738.281 322.211 738.041L322.144 737.801C322.113 737.683 322.077 737.56 322.047 737.443C322.016 737.246 321.949 737.122 321.914 736.925C321.883 736.685 321.883 736.648 321.847 736.488C321.816 736.29 321.78 735.97 321.78 735.809C321.78 735.65 321.811 736.007 321.847 735.809C321.883 735.613 321.878 735.613 321.878 735.452C321.878 735.292 321.847 735.452 321.847 735.452C321.847 735.452 321.847 735.335 321.847 735.132L321.914 734.811C321.914 734.811 321.914 734.651 322.113 734.133C322.247 733.776 322.411 733.498 322.508 733.301C324.57 729.902 329.08 733.585 330.944 735.526C331.041 735.606 331.076 735.606 331.076 735.606C331.527 735.976 331.643 736.506 331.835 736.882C331.985 737.006 332.014 737.006 332.164 736.882C332.356 736.506 332.472 735.976 332.922 735.606C332.922 735.606 332.958 735.606 333.056 735.526L333.286 735.286L333.548 735.132C335.001 733.711 335.431 733.369 337.76 732.105L337.894 732.068C338.324 731.988 338.816 731.951 339.313 731.988V731.908C339.938 731.951 340.666 732.309 341.163 732.943C341.261 733.024 341.394 733.141 341.491 733.301C341.589 733.498 341.752 733.776 341.886 734.133C342.086 734.651 342.086 734.811 342.086 734.811L342.152 735.132C342.152 735.335 342.152 735.452 342.152 735.452C342.152 735.452 342.121 735.292 342.121 735.452C342.121 735.613 342.116 735.613 342.152 735.809C342.188 736.007 342.218 735.65 342.218 735.809C342.218 735.97 342.183 736.29 342.152 736.488C342.116 736.648 342.116 736.685 342.086 736.925C342.05 737.122 341.983 737.246 341.952 737.443C341.921 737.56 341.886 737.683 341.855 737.801L341.789 738.041C341.686 738.281 341.552 738.559 341.521 738.638C341.101 739.378 340.686 739.988 340.333 740.703C338.695 743.783 339.406 742.865 337.199 745.157Z" fill="#DB0045"/>
<path fill-rule="evenodd" clip-rule="evenodd" d="M337.199 745.157C337.196 745.141 337.188 745.119 337.171 745.098C337.075 745.226 336.989 745.346 336.916 745.45C336.765 745.667 336.674 745.813 336.674 745.813C335.941 747.23 335.026 747.507 334.691 748.161L334.593 748.242L333.999 748.797L333.671 749.074C332.063 750.591 331.936 750.591 330.328 749.074L330 748.797L329.406 748.242L329.309 748.161C328.973 747.507 328.057 747.23 327.326 745.813C326.145 743.92 325.164 743.522 323.666 740.703C323.316 739.994 322.886 739.356 322.477 738.638C322.446 738.559 322.314 738.281 322.211 738.041L322.144 737.801C322.113 737.683 322.077 737.56 322.047 737.443C322.016 737.246 321.949 737.122 321.914 736.925C321.883 736.685 321.883 736.648 321.847 736.488C321.816 736.29 321.78 735.97 321.78 735.809C321.78 735.65 321.811 736.007 321.847 735.809C321.883 735.613 321.878 735.613 321.878 735.452C321.878 735.292 321.847 735.452 321.847 735.452C321.847 735.452 321.847 735.335 321.847 735.132L321.914 734.811C321.914 734.811 321.914 734.651 322.113 734.133C322.247 733.776 322.411 733.498 322.508 733.301C324.57 729.902 329.08 733.585 330.944 735.526C331.041 735.606 331.076 735.606 331.076 735.606C331.527 735.976 331.643 736.506 331.835 736.882C331.985 737.006 332.014 737.006 332.164 736.882C332.356 736.506 332.472 735.976 332.922 735.606C332.922 735.606 332.958 735.606 333.056 735.526L333.286 735.286L333.548 735.132C335.001 733.711 335.431 733.369 337.76 732.105L337.894 732.068C338.324 731.988 338.816 731.951 339.313 731.988V731.908C339.938 731.951 340.666 732.309 341.163 732.943C341.261 733.024 341.394 733.141 341.491 733.301C341.589 733.498 341.752 733.776 341.886 734.133C342.086 734.651 342.086 734.811 342.086 734.811L342.152 735.132C342.152 735.335 342.152 735.452 342.152 735.452C342.152 735.452 342.121 735.292 342.121 735.452C342.121 735.613 342.116 735.613 342.152 735.809C342.188 736.007 342.218 735.65 342.218 735.809C342.218 735.97 342.183 736.29 342.152 736.488C342.116 736.648 342.116 736.685 342.086 736.925C342.05 737.122 341.983 737.246 341.952 737.443C341.921 737.56 341.886 737.683 341.855 737.801L341.789 738.041C341.686 738.281 341.552 738.559 341.521 738.638C341.101 739.378 340.686 739.988 340.333 740.703C338.695 743.783 339.406 742.865 337.199 745.157Z" fill="#DB0045"/>
</svg>
