<?xml version="1.0" encoding="UTF-8"?>
<!DOCTYPE svg PUBLIC "-//W3C//DTD SVG 1.1//EN" "http://www.w3.org/Graphics/SVG/1.1/DTD/svg11.dtd">
<!-- Creator: CorelDRAW -->
<svg xmlns="http://www.w3.org/2000/svg" xml:space="preserve" width="297mm" height="210mm" version="1.1" style="shape-rendering:geometricPrecision; text-rendering:geometricPrecision; image-rendering:optimizeQuality; fill-rule:evenodd; clip-rule:evenodd"
viewBox="0 0 29700 21000"
 xmlns:xlink="http://www.w3.org/1999/xlink"
 xmlns:xodm="http://www.corel.com/coreldraw/odm/2003"
 data-name="Camada 1">
 <defs>
  <style type="text/css">
   <![CDATA[
    .fil0 {fill:#009067;fill-rule:nonzero}
    .fil9 {fill:#010000;fill-rule:nonzero}
    .fil3 {fill:#22298B;fill-rule:nonzero}
    .fil13 {fill:#2B1901;fill-rule:nonzero}
    .fil2 {fill:#544BAF;fill-rule:nonzero}
    .fil5 {fill:#ADE1DF;fill-rule:nonzero}
    .fil10 {fill:#C48D66;fill-rule:nonzero}
    .fil4 {fill:#D6302F;fill-rule:nonzero}
    .fil7 {fill:#DB0045;fill-rule:nonzero}
    .fil6 {fill:#F2A2C9;fill-rule:nonzero}
    .fil1 {fill:#F5BE36;fill-rule:nonzero}
    .fil8 {fill:#F5E672;fill-rule:nonzero}
    .fil11 {fill:#F5E672;fill-rule:nonzero}
    .fil12 {fill:#FDE8AE;fill-rule:nonzero}
   ]]>
  </style>
 </defs>
 <g id="Camada_x0020_1">
  <metadata id="CorelCorpID_0Corel-Layer"/>
  <g id="_1713201138880">
   <path class="fil0" d="M14487.16 6771.29l0.34 2.43c-52.56,53.4 -48.42,50.14 -122.05,65.33 341.68,407.18 892.75,796.29 1234.59,1236.37 57.12,73.53 198.14,185.71 242.02,251.88 492.8,404.29 965.96,837.38 1491.77,1200.6 77.37,53.41 189.66,113.82 250.8,159.42 233.26,61.22 230.06,232.98 444.98,184.09 45.13,-47.68 42.21,-47.68 69.37,-108.49 83.09,14.39 100.56,61.63 163.05,122.85 457.78,166.73 377.63,-402.71 255.1,-490.99 -1026.07,-740.31 -2179.09,-1651.94 -3051.4,-2596.95 -266.93,-289.18 -561.17,-104.17 -978.57,-26.54z"/>
   <path class="fil1" d="M15842.06 8327.29c-43.89,-66.16 -184.9,-178.33 -242.02,-251.88 -341.85,-440.06 -892.91,-829.17 -1234.59,-1236.36 -202.49,57.93 -423.35,113.82 -578.09,271.6 12.13,85.46 -7.84,127.78 -31.38,213.25 205.44,181.61 418.52,309.4 631.28,489.36 531.03,455.68 1050.23,924.91 1557.06,1407.29 130.49,122.03 293.71,255.57 421.53,383.37 2.26,2.05 27.44,117.09 29.99,130.66l186.31 27.12c-29.71,-39.45 -259.44,-554.7 -288.57,-627.83 -88.5,-222.29 -448.98,-634.42 -451.52,-806.58z"/>
   <path class="fil0" d="M16395.84 9734.58c-2.55,-13.57 -27.73,-128.61 -29.99,-130.66 -127.82,-127.8 -291.04,-261.34 -421.53,-383.37 -506.83,-482.38 -1026.03,-951.61 -1557.06,-1407.29 -212.76,-179.96 -425.84,-307.75 -631.28,-489.36 -344.2,87.93 -1098.06,1740.92 -1315.38,2120.59 -94.71,165.59 -332.74,576.89 -349.87,762.61 80.9,173.81 561.4,253.51 739.88,262.14 220.65,42.32 882.63,123.28 1107.59,120.81 126.6,10.68 260.29,16.85 387.68,24.64 277.67,-25.88 594.68,-135.99 820.29,-139.68l3.05 -17.68c-176.81,-110.12 -232.36,-66.98 -419.6,-163.54 -76.26,-153.67 -60.28,-999.27 -52.64,-1209.65 293.16,207.91 622.08,544.84 877.08,716.18 205.32,-30.81 373.83,136.01 555.85,260.91 98.09,-54.24 226.06,-230.5 285.93,-326.65z"/>
   <path class="fil1" d="M15554.06 9800.32c-255,-171.34 -583.92,-508.27 -877.08,-716.18 -7.64,210.38 -23.62,1055.98 52.64,1209.65 187.24,96.56 242.79,53.42 419.6,163.54 228.98,-71.5 630.1,-180.79 872.26,-212.85l39.45 -91.2c-254,-59.17 -344.25,-168.89 -506.87,-352.96z"/>
   <path class="fil2" d="M18262.02 9885.78c-62.49,-61.22 -79.96,-108.47 -163.04,-122.86 -27.17,60.82 -24.25,60.82 -69.36,108.48 -214.93,48.9 -211.73,-122.86 -444.99,-184.07 -552.77,-134.37 -427.74,229.28 -794.99,136.01l-57.44 34.1c22.69,225.16 -112.42,169.69 -22.77,392.8l28.06 -1.24c60.17,-42.72 499.03,-119.56 610.47,-146.67l379.58 -56.7 246.21 112.17c95.64,-48.08 200.42,-100.68 258.69,-194.36l106.33 -11.5 -76.75 -66.16z"/>
   <path class="fil2" d="M16582.15 9761.7l-186.31 -27.12c-59.87,96.15 -187.84,272.41 -285.93,326.65l7.07 24.25 96.59 35.33c143.17,-88.34 232.73,-143.41 362.24,-248.99l63.69 -78.89 -57.35 -31.23z"/>
   <path class="fil2" d="M16732.2 9857.44l-92.7 -64.51 -63.69 78.89c58.47,189.41 26.87,272.42 -18.65,460.59 48.74,-34.1 98.74,-55.45 152.27,-82.17 -89.65,-223.11 45.46,-167.64 22.77,-392.8z"/>
   <path class="fil2" d="M16109.91 10061.23c-182.02,-124.9 -350.53,-291.72 -555.85,-260.91 162.62,184.07 252.87,293.79 506.87,352.96l56.05 -67.8 -7.07 -24.25z"/>
   <path class="fil2" d="M16575.81 9871.82c-129.51,105.58 -219.07,160.65 -362.24,248.99 95.41,119.57 101.25,142.17 69.6,290.09 2.85,23.01 -1.02,6.99 29.26,39.44 129.72,-26.29 163.87,-106.42 244.73,-117.93 45.52,-188.17 77.12,-271.18 18.65,-460.59z"/>
   <path class="fil3" d="M16213.57 10120.81l-96.59 -35.33 -56.05 67.8 -39.45 91.2c29.09,83.01 33.13,122.45 97.22,177.1 102.11,26.29 59.91,25.47 164.47,-10.68 31.65,-147.92 25.81,-170.52 -69.6,-290.09z"/>
   <path class="fil4" d="M17347.96 10102.33c-111.44,27.11 -550.3,103.95 -610.47,146.67 42.79,154.51 20.1,631.95 31.08,838.63l111.52 2296.04c27.56,521.83 89.9,1082.28 55.87,1596.31 42.82,224.34 96.89,457.72 24.77,688.65 99.76,219.41 116.54,328.71 126.2,570.71 84.43,-352.94 -17.27,-463.89 434.67,-525.93 28.26,-153.26 43.44,-221.47 40.89,-377.6 -47.63,-67.8 -274.11,-5069.13 -214.53,-5233.48z"/>
   <path class="fil5" d="M14325.88 10614.69c128.15,636.47 150.95,1315.67 305.21,1964.05 72.19,303.23 46.71,716.18 122.93,1058.45l44.74 28.35c279.78,-65.74 459.88,-78.07 740.22,-20.13l66.98 -36.15c33.36,-92.45 -225.74,-2612.85 -272.25,-2823.23 -173.56,-616.52 448.37,-356.93 -1007.83,-171.34z"/>
   <path class="fil5" d="M13938.2 10590.05c-224.96,2.47 -886.94,-78.49 -1107.59,-120.81 19.55,387.47 68.16,1740.83 121.09,1853.82 215.1,2.87 430.24,4.1 645.35,3.28 100.74,0 175.23,8.21 269.75,-25.47 65.51,-298.46 104.39,-1334.27 71.4,-1710.82z"/>
   <path class="fil6" d="M15659.01 14095.33c61.22,-82.58 51.76,-360.76 -27.86,-447.05l-92.17 -2.87c-280.34,-57.94 -460.44,-45.61 -740.22,20.13 15.42,136.83 29.8,325.42 70.85,452.39 155.85,26.71 625.4,-6.99 789.4,-22.6z"/>
   <path class="fil7" d="M16092.86 14924.91c-263.06,-354.18 -526.8,-223.52 -433.85,-829.58 -164,15.61 -633.55,49.31 -789.4,22.6 -6.34,181.2 27.76,632.77 85.25,798.77 130.87,29.58 951.29,10.28 1138,8.21z"/>
   <path class="fil8" d="M14954.86 14916.7c-249.73,-25.89 -507.37,-21.37 -758.95,-22.2 -139.13,122.46 -970.6,104.78 -1141.11,22.62 -203.6,-12.75 -423.14,-32.06 -625.54,-21.79 -30.9,104.37 -63.81,210.78 -90.72,316.38 51.31,150.8 39.72,265.85 94.95,399.8 118.18,70.67 211.53,131.07 303.2,237.09 142.03,94.5 453,195.98 481.48,240.77 201.25,-78.07 1033.87,11.51 1306.44,-1.23 443.41,-20.54 925.54,-24.66 1371.92,-32.45 118.09,-2.07 477.14,-62.06 554.41,-25.49 228.3,-27.94 376.13,-193.11 509.79,-361.57 72.12,-230.93 18.05,-464.31 -24.77,-688.65 -137.28,-17.27 -787.92,-37.8 -843.1,-55.07 -186.71,2.07 -1007.13,21.37 -1138,-8.21z"/>
   <path class="fil2" d="M12433.49 15611.51c-55.23,-133.95 -43.64,-249 -94.95,-399.8 -291.99,-85.88 -375.43,-19.3 -619.14,131.9l-58.74 -29.99c-161.7,117.09 -325.92,458.96 -359.45,655.77 -35.22,213.25 17.7,431.85 146.67,605.65 169.59,231.74 420.19,391.99 706.57,431.43 259.04,34.93 521.3,-34.5 728.84,-193.53 207.74,-160.65 362.77,-382.52 323.62,-649.2 -5.47,-37.39 -4.77,-42.74 11.26,-74.37 -28.48,-44.79 -339.45,-146.27 -481.48,-240.77 39.12,1399.48 -1526.41,-66.98 -303.2,-237.09z"/>
   <path class="fil2" d="M16450.94 16030.2c126.07,204.62 -5.54,280.23 64.28,499.23 255.69,802.47 1437.16,851.37 1838.43,193.53 48.78,-80.11 65.7,-670.57 2.92,-791.78 -127.05,-245.3 -508.65,-543.19 -794.08,-595.37 2.55,156.13 -12.63,224.34 -40.89,377.6 422.84,244.49 480.66,468 181.98,855.89 -104.94,13.96 -211.04,29.58 -316.02,42.32 -149.72,-120.81 -248.18,-182.45 -300.63,-372.28 -9.66,-242 -26.44,-351.3 -126.2,-570.71 -133.66,168.46 -281.49,333.63 -509.79,361.57z"/>
   <path class="fil1" d="M12736.69 15848.6c-91.67,-106.02 -185.02,-166.42 -303.2,-237.09 -1223.21,170.11 342.32,1636.57 303.2,237.09z"/>
   <path class="fil1" d="M17703.58 16569.3c298.68,-387.89 240.86,-611.4 -181.98,-855.89 -451.94,62.04 -350.24,172.99 -434.67,525.93 52.45,189.83 150.91,251.47 300.63,372.28 104.98,-12.74 211.08,-28.36 316.02,-42.32z"/>
   <path class="fil5" d="M13829.37 12347.87c-2.47,-224.97 78.49,-694.99 120.81,-915.63 -387.47,19.55 -2009.6,68.16 -2122.59,121.08 -2.88,215.11 -4.1,238.29 -3.28,453.39 0,100.74 -8.21,175.24 25.47,269.75 210.38,46.19 319.2,45.39 599.43,46.71 312.27,1.45 1089.26,50.18 1380.16,24.7z"/>
   <path class="fil6" d="M12189.84 12129.71c-0.82,-215.1 0.41,-430.25 3.28,-645.35 -183.25,-1.55 -519.76,-8.49 -689.47,62.76 -20.13,242.49 -33.68,555.68 12.75,794.36l5.75 31.64c95.74,80.42 487.31,46.07 635.64,43.27 9.46,-95.74 20.12,-191.31 32.05,-286.68z"/>
   <path class="fil7" d="M10760.77 12728.58c129.43,-112.14 191.07,-235.15 336.52,-349.29 113.41,9.89 272.82,-14.23 388.28,-32.75l30.83 -5.06c-46.43,-238.68 -32.88,-551.87 -12.75,-794.36 -251.46,29.29 -522.65,8.42 -765.49,40.35 -82.16,170.51 -99.84,1001.98 22.61,1141.11z"/>
   <path class="fil9" d="M14200.15 3119.19c-47.26,-99.89 -181.95,-90.41 -278.6,-87.18 -485.11,16.17 -1031.54,277.91 -1311.3,681.2 -32.76,47.29 -103.06,167.42 -142.52,192.84 31.88,17.35 92.04,60.66 96.17,99.14 12.28,113.2 -30.71,302.92 -89.27,401.62 -16.22,27.25 -69.42,43.01 -96.41,49.98 -8.91,-8.48 -8.94,-9.34 -15.42,-19.92l-28.41 23.95 -13.89 -1.82c-14.56,-25.62 -14.63,-35.13 -18.34,-63.41l-5.36 -4.14c-19.11,-14.93 -23.88,-18.48 -30.97,-42.65 3.56,-19.59 2.6,-17.99 11.42,-34.99 21.61,-41.42 -10.79,-119.18 22.59,-151l-15.22 -11.02c26.06,-64.7 42.65,-115.88 75.58,-178.34 -10.85,-9.49 -12,-13.9 -24.35,-15.99 -119.07,-19.09 -232.7,-60.32 -351.9,-80.37 -352.78,-59.27 -801.04,-131.52 -1123.35,63.75 -91.61,55.51 -117.97,196.04 -47.66,276.22 78.42,89.45 249.91,143.07 363.57,167.47 -226.52,13.17 -559.79,83.38 -719.52,261.04 -40.31,44.79 -78.58,118.32 -108.24,172.15 2.58,34.31 14.84,38.61 12.35,63.34 34.33,43.68 42.19,63.33 83.93,106l12.79 -18.62c17.19,-0.35 32.52,0.04 49.43,3.33 131.48,25.49 423.61,-86.3 453.34,-79.76 -14.28,30.5 -75.97,85.95 -102.3,116 -78.51,89.81 -167.74,259.21 -123.54,380.27 28.35,77.58 76.48,99.49 143.33,132.88 252.1,-0.6 405.9,-203.57 565.66,-367.45 -25.3,59.35 -63.87,176.29 -93.75,220.73 3.65,53.85 1.6,108.45 17.16,158.5 128.38,4.2 130.61,45.15 182.1,55.13 21.96,9.82 35.43,21.7 53.11,11.93 53.12,-29.37 98.59,-81.18 136.68,-125.58 223.93,-261.1 407.28,-597.69 534.04,-916.69 13.71,-34.35 30.25,-94.2 39.81,-130.23l1.05 4.73c18.63,88.94 10.7,170.08 19.23,262.92 31.55,342.77 149.77,668.97 394.45,917.62 1.75,1.72 11.78,6.73 14.69,8.11 -7.16,-38.54 -0.99,-76.03 1.93,-114.48 14.19,-190.97 80.65,-277.93 219.87,-394.87 13.31,0.55 15.55,2.06 27.49,6.89l3.66 1.51c62.13,-35.95 120.01,-55.74 187.69,-89.37l9.11 22.39c27.38,4.94 154.27,7.82 172.84,-6.8 5.3,-23.59 -9.02,-137.15 -15.99,-148.85l-21.33 15.43 -7.15 -5.3c6.58,-22.44 14.57,-21.87 37.35,-37.96l-3.94 -8.8 -31.94 0.63 -3.2 -9.51 47.06 -8.37 7.76 -11.69c-11.06,-13.16 -26.32,-28.09 -30.19,-44.11l24.39 -9.16c-10.79,-33.13 -4.21,-31.29 -27.86,-46.23l-2.08 -14.32 17.12 4.69 7.76 -5.34c-44.61,-23.6 -1.48,-28.84 -3.31,-45.02 -2.89,-25.54 -33.8,-82.22 -17.48,-106l16.33 15.86c25.2,-18.3 16.96,-13.55 3.21,-48.69 -19.92,-50.86 12.37,-127.87 32.88,-177.08l-14.9 -28.94c19.37,-77.32 22.48,-158.01 53.7,-223.66 12.08,-3.72 17.98,-4.47 27.59,-12.93 -11.84,-0.59 -23.7,2.46 -35.47,4.7l-4.16 -14.86 8.52 -11.78 26.23 6.2c17.43,-21.85 11.87,-48.77 23.25,-80.62 16.75,1.45 9.54,3.29 23.01,-2.71l-0.86 -14.92 -30.49 -0.37 3.13 -12.15 28.4 -12.87c92.72,-285.42 304.06,-546.31 528.78,-739.96 36.2,-31.21 140.7,-58.35 169.13,-92.27z"/>
   <path class="fil10" d="M15027.2 6543.79c97.8,-30.7 201.25,-55.21 256.04,-78.67 121.25,-56.59 205.78,-122.99 336.47,-158.95 111.3,-30.6 330.11,-259.5 388.45,-357.09 83.9,-140.36 96.92,-334.85 93.23,-493.42 -0.66,-27.48 -0.11,-141.53 -8.5,-177.32 -33.32,-22.41 -64.19,-248.83 -60.31,-243.12 -83.65,-122.68 -142.2,-259.52 -231.48,-375.48 -7.89,-10.24 -26.9,0 -45.83,-33.25 25.31,-65.09 183.57,-104.16 239.8,-143.04l-6.13 -9.94c6.27,-27.05 206.26,-162.66 144.4,-249.59 -116.5,-163.72 -306.14,-121.43 -446.13,-15.52 -34.71,26.29 -119.37,116.99 -158.36,104.83 -92.67,-230.59 -175.8,-404.41 -323.04,-607.38 -68.66,-94.67 -163.9,-160.34 -219.67,-250.91 -50.14,-81.49 -20.7,-23.14 -82.38,-63.33l7.05 -20.4c-37.67,-37.46 -87.02,6.36 -106.31,-59.96 -98.23,-53.17 -220.29,-143.55 -319.99,-170.74 -70.81,-14.11 -143.01,-24.98 -214.59,-34.66 -17.1,-2.33 -38.77,3.06 -59.72,1.35l-10.06 11.99c-28.43,33.92 -132.93,61.08 -169.12,92.28 -224.71,193.63 -436.06,454.54 -528.79,739.94l-28.4 12.88 -3.12 12.14 30.5 0.37 0.84 14.93c-13.46,6 -6.26,4.16 -23,2.71 -11.39,31.86 -5.82,58.77 -23.24,80.62l-26.24 -6.19 -8.52 11.77 4.16 14.86c11.77,-2.24 23.63,-5.3 35.48,-4.71 -9.61,8.47 -15.52,9.23 -27.6,12.94 -31.21,65.64 -34.32,146.35 -53.7,223.66l14.9 28.95c-20.51,49.2 -52.8,126.21 -32.88,177.07 13.76,35.15 21.98,30.39 -3.2,48.69l-16.33 -15.86c-16.34,23.77 14.57,80.47 17.47,105.99 1.83,16.19 -41.31,21.44 3.3,45.03l-7.76 5.33 -17.1 -4.68 2.06 14.31c23.67,14.95 17.09,13.12 27.87,46.24l-24.39 9.16c3.87,16.03 19.13,30.95 30.18,44.11l-7.75 11.7 -47.05 8.35 3.2 9.51 31.92 -0.62 3.94 8.8c-22.77,16.09 -30.75,15.51 -37.33,37.96l7.15 5.3 21.31 -15.42c6.98,11.69 21.3,125.25 16,148.84 -18.57,14.63 -145.46,11.73 -172.85,6.79l-9.1 -22.38c-67.68,33.63 -125.55,53.42 -187.69,89.36l-3.66 -1.5c-11.93,-4.84 -14.18,-6.33 -27.5,-6.88 -139.21,116.93 -205.67,203.88 -219.85,394.85 -2.94,38.47 -9.1,75.95 -1.94,114.48l8.25 12.4c-16.58,40.92 39.33,218.53 67.79,236.07l10.71 1.59c16.21,76.39 112.93,189.94 173.16,240.22 5.71,4.82 11.63,9.46 17.64,13.94 5.56,19.06 5.31,18 -0.02,37.3 20.65,13.17 23.78,13.22 48.43,12.4l7.33 9.69 -7.89 14.15c269.71,194.71 564.34,286.52 885.5,338.7l29.34 541.42 696.93 -369.02 0 -156.48 347.31 -10.57 0.41 1.11zm-12.57 -2393.54c185.69,-131.81 398.04,522.66 77.22,381.49 59.31,60.05 73.02,14.86 130.32,38.39 21.23,72.67 -112.49,114.04 -164.54,105.38 -97.08,-16.13 -104.38,28.63 -188.45,-46.39 -77.18,-68.87 -107.71,-93.93 -115.39,-202.28 -8.38,-118.41 71.78,-255.08 187.55,-286.81 16.2,-4.29 32.71,3.48 49.6,-5.4l23.69 15.62zm-332.37 -440.15c88.04,9.27 81.54,10.2 152.91,65.93 13.28,25.95 13.04,29.88 11.13,58.6l-9.58 15.35c-118.55,2.83 -98.91,-58.53 -230.89,-1.28 -5.44,35.87 -10.86,88.61 -29.97,117.4l-14.92 5.52c-49.85,-26.1 -43.22,-75.31 -38.75,-120.09 11.13,-111.47 60.93,-130.83 160.07,-141.43zm215.12 1497.72c38.81,89.74 120.21,192.22 179.94,269.88 41.15,53.51 67.48,47.23 131.61,64.88 0.73,10.48 0.75,14.31 0.02,24.78 26.43,16.54 157.56,45.32 186.64,41.46 16.01,-2.13 105.62,-37.82 133.52,-45.42l16.63 12.44c5.46,42.11 -36.12,69.49 -69.36,86.25l-5.54 2.87c-49.44,-9.93 -52.62,23.34 -91.02,20.53 -181.88,-13.25 -270.45,-55.09 -411.8,-164.9l-3.88 -12.02 8.17 -15.81c-30.51,-70.16 -103.13,-87.78 -96.56,-153.45 -38.67,-43.28 -38.79,-56.9 -10.44,-115.92 15.13,-10.11 14.85,-10.36 32.07,-15.57z"/>
   <path class="fil11" d="M12360.2 3973.45c-32.93,62.46 -49.52,113.64 -75.58,178.34l15.22 11.02c-33.38,31.82 -0.98,109.58 -22.59,151 -8.82,17 -7.86,15.4 -11.42,34.99 7.09,24.17 11.86,27.72 30.97,42.65l5.36 4.14c3.71,28.28 3.78,37.79 18.34,63.41l13.89 1.82 28.41 -23.95c6.48,10.58 6.51,11.44 15.42,19.92 26.99,-6.97 80.19,-22.73 96.41,-49.98 58.56,-98.7 101.55,-288.42 89.27,-401.62 -4.13,-38.48 -64.29,-81.79 -96.17,-99.14 -98.17,32.42 -51.98,-6.85 -107.53,67.4z"/>
   <path class="fil9" d="M14605.83 3848.7c131.97,-57.25 112.34,4.1 230.88,1.27l9.6 -15.33c1.89,-28.74 2.15,-32.65 -11.14,-58.61 -71.38,-55.74 -64.87,-56.66 -152.91,-65.94 -99.14,10.62 -148.95,29.97 -160.07,141.44 -4.47,44.77 -11.1,93.99 38.75,120.09l14.93 -5.52c19.1,-28.79 24.51,-81.53 29.96,-117.4z"/>
   <path class="fil12" d="M15014.63 4150.25l-23.7 -15.63c-16.88,8.88 -33.39,1.12 -49.58,5.4 -115.78,31.74 -195.94,168.41 -187.55,286.83 7.66,108.34 38.2,133.4 115.38,202.27 84.06,75.01 91.37,30.27 188.44,46.39 52.06,8.65 185.78,-32.72 164.56,-105.38 -57.31,-23.53 -71.02,21.66 -130.32,-38.39l-3.32 -8.05c-53.23,-20.91 -114.17,-170.97 -119.26,-225.14 -5.1,-53.5 11.22,-106.81 45.35,-148.3z"/>
   <path class="fil9" d="M15091.86 4531.74c320.8,141.15 108.47,-513.3 -77.23,-381.49 -34.13,41.49 -50.45,94.8 -45.35,148.3 5.09,54.17 66.03,204.23 119.26,225.14l3.32 8.05z"/>
   <path class="fil13" d="M15470.84 5664.95l5.53 -2.85c33.24,-16.77 74.84,-44.15 69.37,-86.26l-16.64 -12.44c-27.88,7.61 -117.5,43.29 -133.5,45.42 -29.1,3.86 -160.23,-24.91 -186.64,-41.47 0.72,-10.46 0.7,-14.3 -0.02,-24.77 -64.14,-17.66 -90.46,-11.37 -131.61,-64.88 -59.74,-77.67 -141.14,-180.14 -179.95,-269.88 -17.22,5.21 -16.95,5.45 -32.06,15.57 -28.35,59.02 -28.25,72.65 10.43,115.91 -6.57,65.67 66.04,83.31 96.55,153.46l-8.15 15.8 3.87 12.03c141.36,109.82 229.91,151.64 411.8,164.91 38.41,2.8 41.57,-30.47 91.02,-20.55z"/>
  </g>
 </g>
 <g id="Camada_x0020_1_0">
  <metadata id="CorelCorpID_1Corel-Layer"/>
 </g>
</svg>
