<?xml version="1.0" encoding="UTF-8"?>
<!DOCTYPE svg PUBLIC "-//W3C//DTD SVG 1.1//EN" "http://www.w3.org/Graphics/SVG/1.1/DTD/svg11.dtd">
<!-- Creator: CorelDRAW -->
<svg xmlns="http://www.w3.org/2000/svg" xml:space="preserve" width="297mm" height="210mm" version="1.1" style="shape-rendering:geometricPrecision; text-rendering:geometricPrecision; image-rendering:optimizeQuality; fill-rule:evenodd; clip-rule:evenodd"
viewBox="0 0 29700 21000"
 xmlns:xlink="http://www.w3.org/1999/xlink"
 xmlns:xodm="http://www.corel.com/coreldraw/odm/2003"
 data-name="Camada 1">
 <defs>
  <style type="text/css">
   <![CDATA[
    .fil5 {fill:#340200;fill-rule:nonzero}
    .fil2 {fill:#340200;fill-rule:nonzero}
    .fil3 {fill:#544BAF;fill-rule:nonzero}
    .fil7 {fill:#60875E;fill-rule:nonzero}
    .fil0 {fill:#876858;fill-rule:nonzero}
    .fil1 {fill:#E9A890;fill-rule:nonzero}
    .fil4 {fill:#E9A890;fill-rule:nonzero}
    .fil6 {fill:#FDDAD4;fill-rule:nonzero}
   ]]>
  </style>
 </defs>
 <g id="Camada_x0020_1">
  <metadata id="CorelCorpID_0Corel-Layer"/>
  <g id="_1713170436896">
   <path class="fil0" d="M16572.43 4722.94c29.45,-203.2 5.82,-647.5 -38.38,-822.23 -83.49,-329.93 -338.03,-507.12 -662.31,-371.14 -149.33,62.63 -98.63,162.33 -195.96,211.4 -174.55,-64.13 -305.08,-567.28 -741.3,-339.34 -553.91,289.43 -379.59,1033.63 25.68,1375.96 69.25,58.49 168.13,152.95 215.61,228.91 24.31,38.16 -6.59,37.67 -46.02,59.74 -121.04,67.86 -236.3,145.55 -344.61,232.31 -297.71,238.02 -411.96,522.36 -551.6,862.79l-7.16 27.9c88.84,96.42 243.22,304.11 379.36,300.3 449.17,-12.63 897.27,-423.63 1118.17,-785.03 176.57,70.16 447.73,258.99 630.54,175.13 42.09,-19.3 241.64,-135.17 258.5,-124.38 388.84,248.89 1495.98,1144.88 1943.06,997.44 -82.89,-632.67 -216.42,-927.7 -700.25,-1360.67 -390.56,-349.45 -752.87,-586.82 -1283.33,-669.09z"/>
   <path class="fil1" d="M14233.54 6161.34c-295.07,-5.36 -434.32,-60.04 -540.63,285.3 -148.29,481.59 413.67,529.32 415.81,535 136.85,360.37 84.12,828.87 371.29,1178.89 27.77,35.57 189.26,279.48 191.44,296.36 738.44,447.53 1394.07,489.87 2227.38,401.05 46.41,384.21 115.68,1106.8 337.27,1415.46 401.32,374.1 1007.94,491.18 1543.52,481.65 325.58,-5.83 599.89,-98.42 900.32,-208.22l152.69 -410.45c-183.11,-109.67 -270.94,-194.96 -330.04,-400.62 -1007.5,518.47 -1900.5,-20.2 -2468.84,-875.47l131.46 -60.27c663.27,-305.45 983.22,-636.46 1234.93,-1317.03 291.66,45.35 379.61,14.68 549.7,-225.61 -62.76,-454.9 -31.86,-315.65 -376.91,-495.68l-16.92 -9c-447.08,147.44 -1554.22,-748.55 -1943.06,-997.44 -16.86,-10.79 -216.41,105.08 -258.5,124.38 -182.81,83.86 -453.97,-104.97 -630.54,-175.13 -220.9,361.4 -669,772.4 -1118.17,785.03 -136.14,3.81 -290.52,-203.88 -379.36,-300.3l7.16 -27.9zm1518.06 341.33c292.6,239.14 120.33,629.75 -149.4,536.67 -243.96,-230.01 -205.19,-491.5 149.4,-536.67zm1893.26 287.36c176.98,215.27 116.63,549.65 -175.3,494.87 -232.11,-209.15 -163.85,-483.64 164.33,-494.55l10.97 -0.32zm-1064.64 90.38c119.31,12.97 205.15,120.77 191.1,239.98 -14.06,119.22 -122.61,204.08 -241.66,188.96 -117.53,-14.96 -201.05,-121.83 -187.18,-239.55 13.87,-117.69 119.96,-202.2 237.74,-189.39zm-554.04 495.62c81.24,156.87 134.21,275.48 253.76,408.26 56.15,0.56 195.5,3.05 245.16,-9.32 118.91,-29.58 317.08,-156.56 439.5,-121.45 6.58,97.85 -53.97,149.16 -120.34,217.09 -592.5,449.92 -1217.98,-215.73 -818.08,-494.58z"/>
   <path class="fil2" d="M15602.2 7039.34c269.73,93.08 442,-297.53 149.4,-536.67 -354.59,45.17 -393.36,306.66 -149.4,536.67z"/>
   <path class="fil3" d="M12240.64 7671.38c314.83,-542.48 -154.94,-1235.84 -771.2,-870.31 9.98,107.21 -9.04,84.58 52.07,140.1 157.33,10.41 423.16,-17.96 509.08,113.85 211.95,325.21 98.54,891.34 -402.78,791.31 -258.44,-51.6 -203.57,-81.11 -377.52,-202.32 -77.32,120.74 -112.23,425.77 -134.98,576.6 -177.71,1116.24 -144.98,2255.79 96.32,3359.97 124.39,564.89 285.87,1057.64 570.1,1558.68 969.58,1709.99 3663.41,2864.61 5518.06,2057.77 1627.23,-707.88 2003.37,-2608.89 2484.03,-4133.32 33.6,-106.59 234.8,-890.69 253.98,-911.76 10.38,-29.93 34.69,-98.42 13.55,-120.53 -176.59,-184.71 -221.83,-187.82 -331.35,-417.39 2.07,-198.83 23.26,-403.28 207.51,-522.09 87.32,-56.46 193.68,-75.35 295.06,-52.41 158.36,36.35 275.99,147.99 358.39,282.54 117.59,-252.29 -149.74,-454.58 -345.57,-551.7 -511.24,35.8 -773.61,270.11 -745.43,820.43 2.16,42.4 12.79,104.53 12.63,144.96 59.1,205.66 146.93,290.95 330.04,400.62l-152.69 410.45c-112.35,563.07 -326.64,1116.37 -475.85,1659.62 -651.26,2371.14 -2104.84,3624.14 -4620.33,2809.73 -2929.45,-948.39 -3470.33,-3372.28 -3338.78,-6184.04 8.11,-171.63 73.89,-809.05 194.85,-911.68 343.66,39.19 551.39,-10.79 800.81,-249.08z"/>
   <path class="fil2" d="M17469.56 7284.9c291.93,54.78 352.28,-279.6 175.3,-494.87l-10.97 0.32c-328.18,10.91 -396.44,285.4 -164.33,494.55z"/>
   <path class="fil1" d="M11469.44 6801.07c-160.85,90.75 -200.14,154.94 -306.13,307.82 -17.15,160.71 -55.18,368.02 55.49,501.54 9.66,11.91 20.27,23.13 31.49,33.58 173.95,121.21 119.08,150.72 377.52,202.32 501.32,100.03 614.73,-466.1 402.78,-791.31 -85.92,-131.81 -351.75,-103.44 -509.08,-113.85 -61.11,-55.52 -42.09,-32.89 -52.07,-140.1z"/>
   <path class="fil2" d="M16529.66 7309.35c119.05,15.12 227.6,-69.74 241.66,-188.96 14.05,-119.21 -71.79,-227.01 -191.1,-239.98 -117.78,-12.81 -223.87,71.7 -237.74,189.39 -13.87,117.72 69.65,224.59 187.18,239.55zm87.03 -333.08c68.55,36.95 95.02,121.9 59.58,191.26 -35.42,69.33 -119.77,97.64 -189.86,63.72 -46.7,-22.61 -77.52,-68.73 -80.55,-120.55 -3.03,-51.81 22.22,-101.23 65.97,-129.13 43.76,-27.86 99.19,-29.93 144.86,-5.3z"/>
   <path class="fil4" d="M16486.41 7231.25c70.09,33.92 154.44,5.61 189.86,-63.72 35.44,-69.36 8.97,-154.31 -59.58,-191.26 -45.67,-24.63 -101.1,-22.56 -144.86,5.3 -43.75,27.9 -69,77.32 -65.97,129.13 3.03,51.82 33.85,97.94 80.55,120.55z"/>
   <path class="fil5" d="M16279.94 7784.29c-119.55,-132.78 -172.52,-251.39 -253.76,-408.26 -399.9,278.85 225.58,944.5 818.08,494.58 66.37,-67.93 126.92,-119.24 120.34,-217.09 -122.42,-35.11 -320.59,91.87 -439.5,121.45 -49.66,12.37 -189.01,9.88 -245.16,9.32z"/>
   <path class="fil1" d="M14510.32 8671.67c-10.89,-13.53 -46.2,-46.75 -63.76,-45.5 -839.56,59.44 -1758.78,-163.96 -2205.92,-954.79 -249.42,238.29 -457.15,288.27 -800.81,249.08 233.74,231.6 226.01,418.99 406.08,630.53 499.29,586.22 1404.13,890.71 2156.79,934.88 35.38,2.08 96.26,-7.58 129.81,-14.53 109.01,-131.81 333.26,-631.91 377.81,-799.67z"/>
   <path class="fil6" d="M16898.83 8857.94c-833.31,88.82 -1488.94,46.48 -2227.38,-401.05 -104.99,59.51 -105.65,89.16 -161.13,214.78 -44.55,167.76 -268.8,667.86 -377.81,799.67 -128.35,138.5 -521.33,980.78 -597.53,1181.08 33.58,68.5 70.42,148.15 105.53,214.76 129.44,39.1 720.38,170.69 761.69,217.55 276.17,2.39 1210.01,165.93 1506.7,235.29 84.36,17.86 332.54,58.61 393.86,82.72 297.63,51.21 820.27,143.18 1108.67,160.73l41.27 31.49c264.99,-244.14 -147.27,-958.9 -212.08,-1297.27l-4.52 -24.29c-221.59,-308.66 -290.86,-1031.25 -337.27,-1415.46z"/>
   <path class="fil1" d="M20580.96 9322.07c-82.4,-134.55 -200.03,-246.19 -358.39,-282.54 -101.38,-22.94 -207.74,-4.05 -295.06,52.41 -184.25,118.81 -205.44,323.26 -207.51,522.09 109.52,229.57 154.76,232.68 331.35,417.39 21.14,22.11 -3.17,90.6 -13.55,120.53 389.71,-44.12 500.67,-199.53 607.03,-558.41 -26.87,-83.33 -45.33,-184.74 -63.87,-271.47z"/>
   <path class="fil4" d="M15908.9 11320.02c-296.69,-69.36 -1230.53,-232.9 -1506.7,-235.29 165.6,266.41 582.59,505.15 790.66,744.72 269.44,310.28 40.12,960.89 10.06,1328.11 -3.68,44.95 -50.16,197.52 -80.68,230.12 139.64,-27.43 659.04,169.85 783.6,251.55l2.5 -40.09c13.41,-17.89 93.49,-126.35 97.11,-142.4 138.6,-617.61 406.96,-1380.27 65.65,-1972.04 -48.66,-84.43 -78.06,-123.43 -162.2,-164.68z"/>
   <path class="fil4" d="M17452.7 11594.96l-41.27 -31.49c-288.4,-17.55 -811.04,-109.52 -1108.67,-160.73 -6.04,68.51 285.13,439.61 331.61,561.01 80.5,210.21 191.35,1267.63 150.13,1476.55 231.41,-36.03 571.9,-146.67 781.45,-111.81 119.28,-245.32 90.07,-1086.81 20.08,-1376.27 -27.92,-115.57 -135.79,-236.87 -133.33,-357.26z"/>
   <path class="fil7" d="M16784.5 13440.3c-26.99,97.61 10.13,268.27 49.45,352.09 160.86,343.11 1541.09,102.85 1302.39,-323.66 -59.15,-105.71 -406.75,-124.6 -570.39,-140.24 -209.55,-34.86 -550.04,75.78 -781.45,111.81z"/>
   <path class="fil7" d="M15905.84 13639.23c-124.56,-81.7 -643.96,-278.98 -783.6,-251.55 -493.03,402.57 605.94,852.1 898.23,862.07 171.4,5.87 236.66,-25.84 277.71,-181.12 -36.66,-143.24 -254.32,-381.14 -392.34,-429.4z"/>
  </g>
 </g>
 <g id="Camada_x0020_1_0">
  <metadata id="CorelCorpID_1Corel-Layer"/>
 </g>
</svg>
