<?xml version="1.0" encoding="UTF-8"?>
<!DOCTYPE svg PUBLIC "-//W3C//DTD SVG 1.1//EN" "http://www.w3.org/Graphics/SVG/1.1/DTD/svg11.dtd">
<!-- Creator: CorelDRAW -->
<svg xmlns="http://www.w3.org/2000/svg" xml:space="preserve" width="297mm" height="210mm" version="1.1" style="shape-rendering:geometricPrecision; text-rendering:geometricPrecision; image-rendering:optimizeQuality; fill-rule:evenodd; clip-rule:evenodd"
viewBox="0 0 29700 21000"
 xmlns:xlink="http://www.w3.org/1999/xlink"
 xmlns:xodm="http://www.corel.com/coreldraw/odm/2003"
 data-name="Camada 1">
 <defs>
  <style type="text/css">
   <![CDATA[
    .fil3 {fill:#340200;fill-rule:nonzero}
    .fil1 {fill:#60875E;fill-rule:nonzero}
    .fil2 {fill:#C49F7C;fill-rule:nonzero}
    .fil0 {fill:#C49F7C;fill-rule:nonzero}
    .fil6 {fill:#EEEAE9;fill-rule:nonzero}
    .fil4 {fill:#F5BE36;fill-rule:nonzero}
    .fil5 {fill:#FDFDFD;fill-rule:nonzero}
   ]]>
  </style>
 </defs>
 <g id="Camada_x0020_1">
  <metadata id="CorelCorpID_0Corel-Layer"/>
  <g id="_1713205473712">
   <path class="fil0" d="M16637.06 11038.86c76.02,20.04 155.4,38.28 239.85,55.22 53.86,10.82 144.11,6.94 237.53,3.86l-477.38 -59.08zm3767.67 685.93c332.78,-271.72 537.68,-491.65 584.43,-950.51 28.18,-276.37 -118.58,-476.48 -291.03,-676.6 -95.72,376.87 -232.68,745.73 -347.86,1116.74 -34.26,110.28 -143.99,422.85 -151.68,524.23 69.12,-0.49 137.2,-7.82 206.14,-13.86zm-2962.9 -586.31c0.26,242.1 -294.34,1016.1 -282.52,1377.85 338.68,-27.32 645.61,19.76 984.99,-49.16 478.11,-97.07 1485.43,-413.09 1764.13,-833.84 22.81,-66.08 54.43,-240.54 85.03,-339.55 121.4,-392.7 344.66,-931.24 428.07,-1317.67 -477.64,-0.76 -708.77,-20.33 -1091.79,330.27 -95.99,87.88 -376.47,387.37 -464.66,444.57 -219.17,142.21 -1010.41,449.29 -1230.13,292.5l-193.12 95.03z"/>
   <path class="fil1" d="M17159.31 12516.31c-11.84,-361.75 282.76,-1135.72 282.52,-1377.84 -77.31,-80.42 -431.91,-17.7 -564.91,-44.38 -415.27,-83.29 -708.63,-199.17 -1076.59,-393.58 -443.12,101.94 -695.77,242.46 -1202.92,225.57 -139,-4.62 -626.81,-66.49 -709.76,-56.61 -47.27,187.52 -112.86,380.94 -152.01,561.4 -54.99,253.64 -69.08,551.76 -168.77,798.14 115.46,31.34 198.76,-17.98 301.73,12.11 -51.09,125.26 -181.19,222.96 -309.75,254.24 -154.77,269.31 -295.2,548.4 -432.79,826.64 -53.68,108.58 -225.09,225.07 -192.9,345.35 40.82,34.57 70.42,59.31 114.15,89.96 125.21,73.11 223.14,202.66 330.11,300.59 195.9,179.33 464.84,466.38 676.71,617.61l4.05 32.99c101.53,31.99 584.68,490.48 691.31,593.36 384.66,-385.08 783.17,-677.77 1129.6,-1100.54 -91.85,-64.99 -229.65,-229.06 -313.2,-319.66 38.41,-187.89 359.72,-473.24 491.25,-684.1 159.38,-255.56 255.42,-488.67 403.5,-739.73 270.11,12.48 353.86,81.56 698.67,58.48z"/>
   <path class="fil2" d="M13887.65 10869.46c-122.83,-23.71 -847.37,-312.08 -936.01,-382.21 -203.7,-161.19 -343.3,-480.38 -533.52,-732.25 -13.35,-28.46 -26.5,-56.96 -39.54,-85.56 -50.22,-110.36 -99.28,-405.88 -135.47,-536.82 78.06,-254.39 321.75,-914.7 148.57,-1141.82 -225.29,-24.66 -417.23,274.62 -538.13,442.35 -24.86,-329.5 -29.78,-816.02 -258.14,-1065.3l-85.21 -25.89c-232.5,125.04 -250.1,580.31 -276.84,812.3 -136.23,-198.8 -327.93,-596.19 -600.24,-478.5 -153.82,232.16 -62.73,467.09 -28.48,748.41 -185.44,-148.42 -353.15,-314.06 -575.26,-120.72 -76.07,322.92 675.21,1239.85 838.39,1580.61 89.58,187.06 181.08,372.26 275.01,555.34 42.4,193.51 118.62,379.51 213.49,523.19 369.94,560.71 942.81,956.1 1598.29,1103.19 149.96,34.68 489.87,94.74 612.32,163.25 99.68,-246.38 113.77,-544.52 168.74,-798.15 39.18,-180.47 104.77,-373.89 152.03,-561.42z"/>
   <path class="fil3" d="M17158.52 15444.72c-190.99,-114.28 -329.21,-324.48 -458.06,-378.68 -218.83,252.39 -779.21,826.1 -1034.62,1054.24 75.21,98.23 692.82,637.92 818.92,724.68 55.86,38.43 159.38,87.39 238.08,51.88 548.22,-253.92 1080.71,-671.95 1426.65,-1170.55 74.9,-107.95 89.4,-287.97 -60.74,-339.6 -317.71,-109.28 -624.21,-70.73 -930.23,58.03z"/>
   <path class="fil0" d="M16700.46 15066.04c-54.32,-149.09 -674.69,-732.81 -821.37,-864.72 -346.43,422.77 -744.94,715.46 -1129.6,1100.54 112.91,118.51 299.76,265.86 425.49,381.7 157.5,145.07 321.6,312.02 490.86,436.72 255.41,-228.14 815.79,-801.85 1034.62,-1054.24z"/>
   <path class="fil0" d="M14058.18 14708.5l-4.05 -32.99c-211.87,-151.23 -480.81,-438.28 -676.71,-617.61 -106.97,-97.93 -204.9,-227.48 -330.11,-300.59 -24.77,86.93 -229.46,281.11 -304.6,344.78 -318.52,51.18 -428.52,-23.8 -705.73,-165.37 -81.5,126.69 -215.21,363.25 -272.57,502 -71.39,172.67 -148.24,583.24 -261.12,718.92 -47.64,-10.08 -49.82,-12.69 -91.6,-33.43 28.45,54.19 110.8,74.49 166.44,101.34 354.24,177.44 573.99,407.93 997.08,449.35 585.94,57.37 1236.64,-441.89 1482.97,-966.4z"/>
   <path class="fil3" d="M12036.98 13936.72c-33.69,-38.43 -1002.75,-592.69 -1029.41,-573.2 -258.26,189.07 -1502.45,1563.83 -1156.37,1898.24 226.14,218.54 890.78,-261.63 1142.75,-424.77 97.78,72.05 325.09,259.06 417.74,287.22 41.78,20.74 43.96,23.35 91.6,33.43 112.88,-135.68 189.73,-546.25 261.12,-718.92 57.36,-138.75 191.07,-375.31 272.57,-502z"/>
   <path class="fil4" d="M20725.82 10025.25c-206.74,646.33 -521.42,1616.02 -527.21,1713.4 -119.67,-25.21 -241.43,-51.01 -355.73,-94.97 -1.65,-54.91 445.12,-1317.19 609.75,-1846.67 68.53,-220.33 60.2,-252.04 82.21,-406.25 16.19,-113.79 -294.96,-270.9 -375.35,-371 -258.55,-321.96 -379.67,-684.24 -333.02,-1096.29 31.99,-282.78 175.42,-637.81 407.29,-816.05 30.85,-23.68 56.34,-45.44 82.58,-74.31l8.67 -9.72c150.97,-122.89 319.07,-189.45 507.31,-231.85 372.36,-108.4 861.95,-38.48 1197.14,148.93 305.64,170.87 542.54,500.99 633.67,836.1 101.58,373.67 59.4,724.78 -137.11,1057.83 -198.06,335.72 -497.61,564.87 -877.97,657.05 -217.32,53.5 -444.53,52.34 -661.31,-3.33 -19.24,-4.94 -38.38,-9.68 -57.53,-14.91 -19.56,97.24 -158.62,412.07 -203.39,552.04zm372.07 -2904.42c-305.79,36.97 -558.64,134.06 -754.4,388.94 -60.27,78.47 -164.52,253.2 -152.52,354.77 -57.61,134.88 -144.58,289.13 -81.39,439.34 33.46,79.48 88.9,129.9 155.76,180.12 24.5,171.99 114.32,298.46 252.41,401.33 52.97,39.4 115.79,71.72 175.22,99.95 1.24,0.9 2.63,1.62 3.67,2.7 41.77,45.24 69.21,81.35 126.08,108.97 247.76,120.35 579.13,140.84 836.99,42.24 279.49,-106.91 519.39,-364.24 639.65,-635.1 101.85,-229.54 81.74,-519.35 -9.76,-749.08 -101.62,-255.14 -325.14,-490.97 -578.78,-598.39 -185.22,-78.44 -421.89,-114.34 -612.93,-35.79z"/>
   <path class="fil3" d="M12745.04 7302.64c322.35,35.98 473.13,285.36 712.59,449.82 96.16,-705.5 456.36,-819.68 899.37,-1387.06 63.37,23.66 200.33,263.53 267.1,323.99 690.12,625.04 1231.5,385.05 1561.26,-359.88 395.98,583.96 664.67,827.53 1407.69,726.81 152.57,-107.57 310.75,-222.33 358.39,-408.76 212.43,147.35 398.08,1224.11 1042.09,1509.31 11.38,-11.05 41.39,-38.51 49.63,-49.95 489.56,-1284.95 172.63,-2295.6 -819,-3189.96 -664.52,-599.31 -1934.47,-863.96 -2807.2,-852.71 -1629.31,20.99 -2985.17,974.72 -2791.48,2732.45 14.05,133.69 19.17,416.29 119.56,505.94z"/>
   <path class="fil0" d="M13457.63 7752.47c-239.46,-164.47 -390.24,-413.85 -712.59,-449.83 -252.91,133.89 -513.64,169.2 -580.89,502.52 -168.59,835.08 565.19,1179.6 1249.06,1104.98 -10.59,536.97 366.31,1313.55 1561.23,1918.95 -81.36,567.47 449.32,2005.05 1403.82,335.85l884.77 -372.97c411.37,-182.32 1012.43,-559.82 1200.25,-970.72 242.82,-531.32 289.7,-142.49 741.23,-237.74 616.09,-129.96 721.8,-1034.04 196.38,-1358.75 -141.08,-87.19 -189.05,-153.79 -357.73,-117.84 -8.24,11.43 -38.25,38.89 -49.63,49.95 -643.99,-285.19 -829.67,-1361.96 -1042.09,-1509.3 -47.65,186.42 -205.81,301.19 -358.37,408.74 -743.05,100.73 -1011.73,-142.83 -1407.71,-726.79 -329.77,744.92 -871.14,984.91 -1561.27,359.87 -66.77,-60.44 -203.71,-300.33 -267.03,-323.99 -443.07,567.38 -803.27,681.56 -899.43,1387.07zm1755.41 1191.2c321.73,422.81 1003.45,864.74 1551.43,776.95l61.36 38.61c-13.3,158.11 -289.79,129.08 -402.16,114.19 -528.56,-70.15 -1137.72,-344.34 -1385.56,-842.87 -22.7,-41.78 -43.71,-88.04 -64.49,-131.29 6.07,-84.85 -7.65,-57.24 42.26,-116.45l67.48 -0.28c80.87,46.09 87.55,78.11 129.68,161.14zm1396.76 -276.6c210.43,239.36 78.07,407.61 -208.05,444.68 -216.79,-224.39 -45.85,-397.72 208.05,-444.68z"/>
   <path class="fil3" d="M16401.75 9111.76c286.12,-37.09 418.48,-205.34 208.06,-444.69 -253.92,46.97 -424.83,220.3 -208.06,444.69z"/>
   <path class="fil3" d="M15038.11 9030.54c247.85,498.54 857,772.73 1385.55,842.88 112.39,14.9 388.87,43.92 402.17,-114.19l-61.36 -38.61c-547.99,87.8 -1229.69,-354.13 -1551.42,-776.95 -42.14,-83.02 -48.85,-115.04 -129.69,-161.14l-67.49 0.28c-49.89,59.2 -36.18,31.6 -42.26,116.45 20.8,43.24 41.81,89.52 64.5,131.28z"/>
   <path class="fil5" d="M16097.7 7233.63l5.8 -29.4c-320.49,-215.26 -889.35,115.83 -964.52,461.93 37.66,125.84 35.06,66.49 -21.41,203.99l-39.72 -2.12c6.76,34.42 64.08,110.5 86.13,161.09l-64.33 18.22 25.99 -0.35c64.65,18.69 48.15,4.34 80.16,48.07 -2.47,31.24 -15.85,97.94 -12.87,122.73 -1.24,26.56 -2.71,49.48 -5.45,76.17l18.17 23.36 40.5 -28.91c43.48,11.55 47.3,15.43 75.41,50.67 -28.88,12.03 -39.05,12.07 -59.46,33.5l91.42 9.24 -26.99 28.06c60.73,117.64 432.57,175.8 555.76,136.1 178.84,-184.77 226.89,-102.95 290.69,-180.85 -17,-57.6 -32.81,-66.42 -92.53,-103.95l-5.68 -16.18c-180.44,-120.71 -213.56,-170.4 -275.38,-401.29 -39.03,-145.75 -37.8,-327.71 48.2,-457.16 80.97,-121.91 112.36,-123.42 250.11,-152.92z"/>
   <path class="fil3" d="M16074.77 8245c73.58,-14.88 225.08,47.16 307.8,-70.71 172.39,-245.48 145.14,-985.22 -284.87,-940.66 -137.75,29.5 -169.14,31.01 -250.11,152.92 -86,129.45 -87.23,311.41 -48.2,457.16 61.82,230.89 94.94,280.58 275.38,401.29z"/>
   <path class="fil5" d="M17691.22 7362.42l-33.63 -42.45c-103.55,14.92 -208.12,22.37 -310.71,43.96 -121.76,25.65 -141.01,101.32 -207.62,182.75l-32.87 -10.7c-37.3,67.02 -190.42,281.7 -189.99,317.49l23.08 4.58c2.72,74.1 -60.54,265.47 -29.77,345.38 127.81,332.32 409.33,586.7 776.63,435.65l44.58 17.28c47.93,-119.63 174.2,-126.59 216.08,-259.17 -53.79,-4.19 -153.58,10.69 -202.8,-14.94 -267.52,-139.48 -339.45,-632.05 -220.67,-885.27 42.13,-90.28 80.46,-105.18 167.69,-134.56z"/>
   <path class="fil3" d="M17947 8397.19c247.93,-43.89 237.61,-328.09 223.49,-524.2 -14.92,-209.49 -133.79,-315.58 -256.07,-482.25 -78.58,-43.85 -153.81,-21.89 -223.2,-28.32 -87.23,29.38 -125.56,44.28 -167.69,134.56 -118.78,253.22 -46.85,745.79 220.67,885.27 49.22,25.63 149.01,10.75 202.8,14.94z"/>
   <path class="fil6" d="M15192.93 8217.79c-2.98,-24.79 10.4,-91.49 12.87,-122.73 -32.01,-43.73 -15.51,-29.38 -80.16,-48.07 -19.99,72.62 -7.86,118.05 40.3,176.55l26.99 -5.75z"/>
  </g>
 </g>
 <g id="Camada_x0020_1_0">
  <metadata id="CorelCorpID_1Corel-Layer"/>
 </g>
</svg>
