<?xml version="1.0" encoding="UTF-8"?>
<!DOCTYPE svg PUBLIC "-//W3C//DTD SVG 1.1//EN" "http://www.w3.org/Graphics/SVG/1.1/DTD/svg11.dtd">
<!-- Creator: CorelDRAW -->
<svg xmlns="http://www.w3.org/2000/svg" xml:space="preserve" width="297mm" height="210mm" version="1.1" style="shape-rendering:geometricPrecision; text-rendering:geometricPrecision; image-rendering:optimizeQuality; fill-rule:evenodd; clip-rule:evenodd"
viewBox="0 0 29700 21000"
 xmlns:xlink="http://www.w3.org/1999/xlink"
 xmlns:xodm="http://www.corel.com/coreldraw/odm/2003"
 data-name="Camada 1">
 <defs>
  <style type="text/css">
   <![CDATA[
    .fil5 {fill:black;fill-rule:nonzero}
    .fil7 {fill:#009067;fill-rule:nonzero}
    .fil3 {fill:#685043;fill-rule:nonzero}
    .fil0 {fill:#876858;fill-rule:nonzero}
    .fil1 {fill:#876858;fill-rule:nonzero}
    .fil2 {fill:#FCDB55;fill-rule:nonzero}
    .fil6 {fill:#FDE8AE;fill-rule:nonzero}
    .fil4 {fill:#FEFDFD;fill-rule:nonzero}
   ]]>
  </style>
 </defs>
 <g id="Camada_x0020_1">
  <metadata id="CorelCorpID_0Corel-Layer"/>
  <g id="_1713201125056">
   <path class="fil0" d="M16996.56 9600.74l-667.12 256.06 -1447.98 -43.89c9.3,6.62 18.87,14.35 28.8,23.42 114.84,215.53 -130.04,385.66 31.72,568.91l34.74 -39.92 -14.74 13.18 19.82 -9.45c531.34,86.57 813.23,-18.91 1338.34,-18.79l23.12 -16.67c187.32,-132.81 756.03,-94.18 927.28,-375.05 21.78,-35.77 38.99,-208.31 -42.4,-289.33 -38.05,-37.86 -40.11,-82.49 -77.05,-118.08l-154.53 49.61zm-2484.04 200.99c-59.97,141.44 29.23,238.51 -4.94,418.33 -14.85,78.24 -136.88,108.85 -149.42,162.85 -15.79,68.15 28.68,46.63 1.46,155.31 -119.81,-48.3 -346.74,-114.47 -470.82,-149.26 -985.75,-276.39 -1814.59,-812.85 -2607.26,-1447.79 -177.54,-142.21 -824.61,-443.39 -867.7,-638.43 70,-162.9 204.23,-116.86 343.61,-84.77 -92.07,-143.68 -202.87,-247.32 -180.06,-413.45 116.98,-134.97 324.79,30.51 450.62,102.79 -46.1,-132.84 -155.48,-384.42 -62.01,-512.97l52.99 -8.21c188.99,75.58 318.75,338.2 418.3,510.46 21.78,-122.56 47.72,-335.06 176.38,-380.53 153.28,77.97 193.57,499.84 217.66,658.22 53.84,61.58 157.65,209.08 213.73,255.82 572.89,477.53 1241.39,829.72 1941.83,1058.36l525.62 313.27 0.01 0z"/>
   <path class="fil1" d="M17682.93 9390.96l12.66 -21.7c139.38,-235.85 310.17,-269.94 524.57,-422.63 16.07,-11.42 20.78,-66.44 20.99,-89.06 533.89,-369.33 1515.72,-1597.24 1662.64,-2255.34 87.36,-390.57 -59.91,-663.11 72.78,-1169.58 71.25,34.76 154.99,73.04 223.21,110.93 45.8,125.75 91.06,255.93 140.71,379.86 12.48,-174.21 8.73,-469.65 139.15,-589.3 77.23,-27 44.91,-28.57 119.93,6.66 112.21,140.85 49.13,349.05 131.25,443.55 101.98,-26.34 102.93,-87.56 215.95,-88.45 213.99,99.15 23,347.45 70.33,515.92 152.39,-64.95 112.07,-199.17 319.65,-188.13 63.73,39.7 41.34,12.84 67.77,84.66 -16.35,152.01 -265.64,452.8 -338.72,609.28 -444.91,953.02 -1004.67,1885.03 -1796.37,2590.63 -400.78,357.24 -800.89,561.69 -1302.57,715.78 -21.85,6.71 -77.89,112.06 -90.26,136.15l-42.32 -37.66c-49.77,-247.35 -123.63,-416.83 -115.96,-694.92l-35.39 -36.65z"/>
   <path class="fil2" d="M14359.64 10538.2c27.22,-108.65 -17.27,-87.13 -1.48,-155.29 12.53,-54 134.54,-84.63 149.41,-162.87 39.6,-208.19 -86.34,-305.42 45.55,-489.13l32.98 72.98c144.34,-4.78 210.47,-71.24 324.15,32.44 114.85,215.54 -130.05,385.67 31.73,568.91l34.74 -39.91 -14.74 13.15 19.83 -9.41c531.32,86.54 813.22,-18.96 1338.31,-18.81l23.14 -16.67c187.31,-132.8 756.05,-94.17 927.29,-375.05 33.66,-55.34 -126.93,-330.97 -119.64,-407.56 140.19,-45.39 194.52,-12.08 301.13,-125.06 50.17,-53.26 145.54,-153.34 203.85,-192.59 8.68,48.38 21.62,110.04 27.04,157.63l35.39 36.65c-7.67,278.09 66.19,447.57 115.96,694.92l42.32 37.66c5.99,30.86 10.61,40.05 31.64,63.5 -1.65,64.42 17.97,95.87 45.07,153.67l-13.62 22.54c-16.88,28.4 -19.93,36.39 -30.37,68.66 66.06,67.91 123.1,97.31 123.19,170.3 -29.82,-2.72 -59.51,-5.1 -89.36,-7.05 28.44,119.87 124.93,206.09 165.11,458.15l-51.96 8.22c21.64,38.21 21.9,36.4 55.36,65.65 -18.28,63.69 -36.97,123.01 -47.36,188.48l71.04 17.69c31.34,58.64 27.45,28.95 15.6,91.52l-71.82 56.36c53.94,75.29 45.53,-3.84 76.86,116.74 -44.93,17.74 -21.14,12.6 -75.62,0.43l15.29 32.89 84.33 19.1 19.99 49.76c-40.74,25.84 -17.27,18.27 -77.03,5.96 22.97,39.1 34.08,39.91 74.27,61.42 -17,51.19 -64.85,50.83 -60.9,59.17 150.16,317.02 153.7,819.34 90.47,1143.71 21.09,15.33 38.66,28.34 58.61,44.92 -35.95,19.81 -41.1,21.67 -80.3,34.07 35.77,118.57 105.89,105.87 100.81,124.41 -11.68,43.21 -61.11,194.19 -71.18,242.28 -13.82,65.87 27.64,56.67 64.7,85.98 -1.32,-0.87 -9.32,94.59 -11.94,105.33 -39.57,156.09 -1.22,348.14 -46.52,480.66 -2.16,6.9 -25.91,31.97 -24.78,30.68 -101.29,121.46 -777.17,139.08 -1012.15,314.08 -199.59,-75.7 -397.19,-1218.71 -636.72,-1260.25 -160.45,72.25 -57.59,139.4 -120.37,300.91 -39,-8.17 -40.67,-12.41 -77.96,-1.28 -12.97,89.26 34.72,185.1 48.78,295.28 -70.03,95.5 -83.15,72.73 -104,195.12 -24.24,142.23 -55.28,269.31 -138.56,390.16 -33.49,18.26 -49.27,29.31 -80.44,51.56 -390.2,-6.45 -467.46,-47.52 -891.12,-6.14 -58.12,-14.34 -36.44,0.81 -71.92,-38.51 -11.65,-106.74 -163.94,-515.02 -165.63,-507.22 63.07,-291.93 38.2,-194.7 -121.23,-497.07 23.07,-24.84 52.18,-24.78 91.6,-35.38 2.72,-71.9 -202.3,-254.61 -209.74,-557.5 97.71,-92.08 64.35,-69.71 18.61,-188.52 -49.68,-128.98 -156.07,-290.97 -163.56,-431.14 -3.26,-61.24 45.28,-173.19 38.77,-243.99l-92.88 -0.88c-26.25,-61.3 3.18,-90.68 33.42,-170.11 -27.33,-100.21 -22.75,-38.97 -101.44,-122.2 55.11,-54.17 65.88,-58.42 85.98,-129.7 -20.9,-101.57 -2.33,-63.08 -90.15,-145.32 -13.14,-68.19 2.67,-94.99 26.2,-160.75l8.77 -24.25c-21.53,-107.04 -40.1,-127.79 -106.62,-213.01l-19.24 -24.38c10.73,-14.4 69.52,-94.03 69.27,-94.52 -70.78,-139.52 -94.4,-155.12 -74.21,-312.18z"/>
   <path class="fil3" d="M14340.1 16018.1c22.61,-72.61 -128.92,-380.98 -140.85,-426.42 -81,-308.68 703.02,-749.51 889.41,-971.82 45.2,-53.92 85.91,-130.22 114.98,-185.03 423.66,-41.38 500.92,-0.31 891.12,6.14 188.12,254.76 -423.95,696 -547.17,919.84l-25.01 16.75c-104.59,69.31 -486.81,267.99 -595.73,358.68 -17.54,14.62 21.53,122.21 25.07,165.37 15.81,191.15 105.72,703.58 -134.74,777.64 -120.74,-34.77 -267.39,-245.68 -325.23,-352.58 -9.93,-18.33 -19.15,-37.03 -27.66,-56.08l-124.19 -252.49z"/>
   <path class="fil3" d="M17204.03 14469.47c234.98,-175 910.86,-192.62 1012.15,-314.08 123.66,264.03 -370.67,972.27 -585.83,1136.24 -45.76,56.19 -84.53,104.39 -126.53,164.01 -32.84,15.94 -334.82,270.41 -387.26,313 54.73,170.38 156.36,541.14 -0.89,680.55 -270.63,-15.96 -701.71,-1014.62 -775.09,-1269.5 3.15,-2.77 6.25,-5.57 9.4,-8.36 169.49,-69.03 497.11,-343.94 630.58,-474.42 83.34,-62.72 182.4,-132.4 223.47,-227.44z"/>
   <path class="fil4" d="M16980.56 14696.91c-133.47,130.48 -461.09,405.39 -630.58,474.42 -3.15,2.79 -6.25,5.59 -9.4,8.36 -374.07,263.54 -892.82,462.39 -1281.67,715.95 -22.73,14.81 -80.85,9.43 -106.99,5.97 -3.54,-43.16 -42.61,-150.75 -25.07,-165.37 108.92,-90.69 491.14,-289.37 595.73,-358.68l25.01 -16.75c235.26,-52.24 1231.08,-678.54 1432.97,-663.9z"/>
   <path class="fil5" d="M17416.95 6577.15c-117.14,-39.08 -188.43,-276.91 -284.25,-375.7 -323.83,-333.88 -770.08,-711.23 -1251.45,-786.53 -473.62,-74.07 -1009.23,-96.15 -1455.18,91.28 -597.38,251.05 -938.95,591.71 -1163.7,1201.62 -17.58,45.12 -110.73,253.31 -148.62,287.28 -324.27,-280.61 -1297.86,-801.63 -694.11,-1351.7 265.4,-60.53 181.37,-36.55 379.35,2.84 -0.51,-63.09 -45.53,-149.01 -68.72,-213.93 -47.88,-134.07 -74.49,-285.51 -65.42,-427.89 11.49,-191.22 100.85,-369.37 247.24,-492.9 349.53,-296.38 810.64,-40.24 1058.26,260.36 26.75,-356.07 107.01,-782.61 495.83,-918.75 314.75,-110.19 593.3,170.96 684.96,452.36 -4.79,32.62 -9.62,42.61 1.01,73.57 35.96,-20.53 109.27,-248.25 198.63,-339.98 123.38,-126.67 128.87,-128.95 284.49,-220.14 36.7,5.18 86.15,-6.82 125.14,-10.95 260.02,-27.68 516.92,170.05 613.7,401.8 43.2,103.45 40.13,242.32 60.55,354.56 226.25,-268.84 668.39,-545.58 1002.79,-292.11 428.26,324.64 194.56,588.48 -50.69,918.28 192.36,-66.81 376.94,-114.55 574.69,-63.56 240.41,62.01 511.68,349.33 417.43,611.42 -144.4,401.55 -608.57,656.09 -961.93,838.77z"/>
   <path class="fil1" d="M13113.75 6995.1c37.89,-33.97 131.04,-242.16 148.62,-287.28 224.75,-609.91 566.32,-950.57 1163.7,-1201.62 445.95,-187.43 981.56,-165.35 1455.18,-91.28 481.37,75.3 927.62,452.65 1251.45,786.53 95.82,98.79 167.11,336.62 284.25,375.7 29.78,70.38 207.98,433.36 251.58,470.35 67.43,-35.29 84.52,-16.57 176.48,-4.74 137.83,105.18 208.61,169.6 199.08,346.13 -9.68,179.13 -52.28,183.42 -199.1,258.06 42.57,299.82 107.67,486.89 89.38,794.55 -16.6,279.45 3.94,532.47 -183.3,780.82 -151.55,214.46 -415.91,276.67 -601.65,408.86 -124.41,-16.96 -141.84,69.6 -245.45,98.61 -142.4,39.85 -296.23,83.14 -440.25,114.52 -34.96,57.18 -18.46,49.48 -69.73,70.83l-23.89 -10.16c5.56,-14.35 5.23,-27.05 6.01,-42.3l-13.34 -5.66 -51.28 61.54c-126.8,-22.96 -152.77,27.93 -263.03,66.41 -29.52,10.28 -44.28,-25.31 -63.84,-39.43 -63.13,7.79 -157.87,19.5 -219.74,27.14 -16.59,25.86 -16.35,23.9 -21.64,54.01 -30.49,-19.89 -20.79,-13.05 -34.6,-56.94 -21.88,25.65 -21.91,38.15 -29.27,70.62l-16.52 -53.99 -29.83 34.78c-11.81,-23.85 -15.68,-30.04 -22.5,-55.56 -84.03,14.01 -222.41,63.39 -270.95,41.16l-29.41 -50.67c-69.63,-16.87 -76.35,-8.13 -118.39,55.58 -88.22,-21.13 -535.95,-161.06 -581.83,-158.5l1.14 8.95c-41.83,-6.31 -43.88,-25.73 -77.29,-44.07l-34.79 8.8c-362.87,-118.47 -804.49,-524.46 -1025.33,-843.52 -33.49,-48.37 -108.36,-292.72 -160.76,-361.82 -38.86,-51.27 -160.47,-26.85 -234.39,-46.61 -221.94,-59.29 -154.62,-180.74 -255.73,-319.5l-5.76 -7.75c6.86,-121 7.72,-319.32 162.94,-331.74 27.89,-2.21 41.4,-4.06 65.55,-18.63 -29.78,-17.86 -30.97,-15.83 -50.18,-44.02l129.53 -43.23c8.29,-18.7 -5.22,-153.8 -7.12,-197.4 -9.75,-224.71 -5.45,-357.51 30.73,-580.26l-51.84 -12.55 17.11 -24.72zm3147.3 -373.84c-542.08,185.26 -390.08,775.03 -61.02,650.04 118,-126.38 -145.43,-344.22 105.78,-477.71 274.05,-111.05 383.8,259.24 568.14,240.45 47.32,-30.38 31.83,-10.13 50.1,-61.23 -25.24,-111.96 -160.01,-197.59 -248.23,-258.71 -148.23,-102.67 -248.72,-83.07 -414.77,-92.84zm-1823.06 242.65c-227.72,41.27 -588.15,309.68 -554.11,554.44 45.12,62.7 139.6,82.58 178.96,10.72 96.93,-176.98 140.01,-358.62 375.65,-378.58 261.01,77.57 167.68,328.65 351.62,445.99 33.17,4.67 58.41,7.19 86.02,-18.96 273.98,-259.41 -173.58,-627.17 -438.14,-613.61zm1077.14 344.06c-32.12,29.83 -79.03,58.4 -73.55,107.87 12.66,114.04 122.79,475.87 268.03,468.28 39.78,-39.87 66.47,-51.83 62.14,-114.75 -8.84,-128.57 -140.66,-406.42 -256.62,-461.4zm969.58 412.42c-509.99,232.18 -866.63,299.12 -1428.05,285.95 -77.97,-1.85 -208.78,-10.29 -243.96,65.18 15.94,119.94 203.62,291.23 302.17,356.99 404.61,227.08 1014.61,267.38 1331.51,-197.9 70.73,-103.86 149.14,-339.34 145.05,-460.89 -3.87,-50.47 -68.17,-50.79 -106.72,-49.33z"/>
   <path class="fil5" d="M16305.81 6793.59c-251.21,133.49 12.22,351.33 -105.78,477.71 -329.06,124.99 -481.06,-464.78 61.02,-650.04 166.05,9.77 266.54,-9.83 414.77,92.84 88.22,61.12 222.99,146.75 248.23,258.71 -18.27,51.1 -2.78,30.85 -50.1,61.23 -184.34,18.79 -294.09,-351.5 -568.14,-240.45z"/>
   <path class="fil5" d="M14438.49 7050.49c-235.64,19.96 -278.72,201.6 -375.65,378.58 -39.36,71.86 -133.84,51.98 -178.96,-10.72 -34.04,-244.76 326.39,-513.17 554.11,-554.44 264.56,-13.56 712.12,354.2 438.14,613.61 -27.61,26.15 -52.85,23.63 -86.02,18.96 -183.94,-117.34 -90.61,-368.42 -351.62,-445.99z"/>
   <path class="fil5" d="M15709.61 7784.12c-145.24,7.59 -255.37,-354.24 -268.03,-468.28 -5.48,-49.47 41.43,-78.04 73.55,-107.87 115.96,54.98 247.78,332.83 256.62,461.4 4.33,62.92 -22.36,74.88 -62.14,114.75z"/>
   <path class="fil5" d="M15114.87 8328.51c-98.55,-65.76 -286.23,-237.05 -302.17,-356.99 35.18,-75.47 165.99,-67.03 243.96,-65.18 561.42,13.17 918.06,-53.77 1428.05,-285.95 38.55,-1.46 102.85,-1.14 106.72,49.33 4.09,121.55 -74.32,357.03 -145.05,460.89 -316.9,465.28 -926.9,424.98 -1331.51,197.9zm1267.52 -507.53c-71.65,27.72 -150.49,42.73 -177.69,103.86 16.79,56.3 36.86,99.26 60.4,152.48l25.3 0.49c29.69,-53.72 106.92,-200.32 91.99,-256.83zm-329.65 112l-232.12 47.81c27.53,93.58 54.58,223.11 113.8,293.45 51.45,20.46 53.04,18.66 115.42,-6.23 43.03,7.57 144.57,-63.95 190.47,-92.03 -87.4,-90.72 -84.95,-189.81 -145.13,-245.02l-42.44 2.02zm-349.29 68.92c-93.58,8 -279.03,18.46 -362.89,41.38 -1.61,54.87 38.35,58.23 33.68,88.97 -12.49,82.15 52,174.94 115.31,217.26l11.02 0.09c96.78,1.37 268.06,39.52 338.34,-8.43 -23.98,-94.23 -81.3,-245.01 -120.37,-337.07l-15.09 -2.2zm-684.78 24.21c48.17,108.25 149.6,183.13 255.81,230.83l-31.69 -209.92c-59.13,-4.37 -170.57,-9.53 -224.12,-20.91z"/>
   <path class="fil6" d="M16265.1 8077.32c-23.54,-53.22 -43.61,-96.18 -60.4,-152.48 27.2,-61.13 106.04,-76.14 177.69,-103.86 14.93,56.51 -62.3,203.11 -91.99,256.83l-25.3 -0.49z"/>
   <path class="fil6" d="M15820.62 7980.79l232.12 -47.81 42.44 -2.02c60.18,55.21 57.73,154.3 145.13,245.02 -45.9,28.08 -147.44,99.6 -190.47,92.03 -62.38,24.89 -63.97,26.69 -115.42,6.23 -59.22,-70.34 -86.27,-199.87 -113.8,-293.45z"/>
   <path class="fil6" d="M15489.55 8349.51c-63.31,-42.32 -127.8,-135.11 -115.31,-217.26 4.67,-30.74 -35.29,-34.1 -33.68,-88.97 83.86,-22.92 269.31,-33.38 362.89,-41.38l15.09 2.2c39.07,92.06 96.39,242.84 120.37,337.07 -70.28,47.95 -241.56,9.8 -338.34,8.43l-11.02 -0.09z"/>
   <path class="fil6" d="M15274.48 8256.94c-106.21,-47.7 -207.64,-122.58 -255.81,-230.83 53.55,11.38 164.99,16.54 224.12,20.91l31.69 209.92z"/>
   <path class="fil7" d="M16804.79 14717.51c314.56,317.11 509.42,724.56 836.06,1036.04 -153.18,103.81 -300.96,209.99 -445.29,325.95 78.83,214.35 334.37,754.05 234.39,975.22 -4.44,9.83 -9.96,19.13 -14.93,28.65 -63.6,5.15 -71.95,2.98 -122.5,-37.96 -204.29,-165.36 -991.25,-1286.17 -1216.23,-1593.78 212.05,-304.73 550.92,-463.22 728.5,-734.12z"/>
   <path class="fil7" d="M14567.3 14696.65c281.08,396.69 601.1,751.11 874.62,1155.24 -143.89,119.03 -335.97,213.5 -489.73,327.73 161.11,323.95 169.08,592.33 76.61,937.12 -433.86,-557.35 -855.25,-1124.3 -1263.84,-1700.43 249.37,-257.71 530.39,-486.28 802.34,-719.66z"/>
  </g>
 </g>
 <g id="Camada_x0020_1_0">
  <metadata id="CorelCorpID_1Corel-Layer"/>
 </g>
</svg>
