<?xml version="1.0" encoding="UTF-8"?>
<!DOCTYPE svg PUBLIC "-//W3C//DTD SVG 1.1//EN" "http://www.w3.org/Graphics/SVG/1.1/DTD/svg11.dtd">
<!-- Creator: CorelDRAW -->
<svg xmlns="http://www.w3.org/2000/svg" xml:space="preserve" width="297mm" height="210mm" version="1.1" style="shape-rendering:geometricPrecision; text-rendering:geometricPrecision; image-rendering:optimizeQuality; fill-rule:evenodd; clip-rule:evenodd"
viewBox="0 0 29700 21000"
 xmlns:xlink="http://www.w3.org/1999/xlink"
 xmlns:xodm="http://www.corel.com/coreldraw/odm/2003"
 data-name="Camada 1">
 <defs>
  <style type="text/css">
   <![CDATA[
    .fil11 {fill:#009067}
    .fil8 {fill:#0098DA;fill-rule:nonzero}
    .fil4 {fill:#009067;fill-rule:nonzero}
    .fil1 {fill:#023F57;fill-rule:nonzero}
    .fil10 {fill:#340200;fill-rule:nonzero}
    .fil3 {fill:#544BAF;fill-rule:nonzero}
    .fil0 {fill:#DD0152;fill-rule:nonzero}
    .fil6 {fill:#DEA03D;fill-rule:nonzero}
    .fil2 {fill:#EBC0B0;fill-rule:nonzero}
    .fil5 {fill:#EBC0B0;fill-rule:nonzero}
    .fil9 {fill:#EEEAE9;fill-rule:nonzero}
    .fil7 {fill:#FDFDFD;fill-rule:nonzero}
   ]]>
  </style>
 </defs>
 <g id="Camada_x0020_1">
  <metadata id="CorelCorpID_0Corel-Layer"/>
  <g id="_1713201161632">
   <path class="fil0" d="M12001.16 16242.11c-265.65,62.18 -1521.89,44.61 -1815.19,3.83 -9.03,-173.31 -49.59,-747.71 35.13,-875.15 153.91,-43.23 9748.76,-6.31 9945.74,60.19 164.09,158.58 105.27,585.11 -20.12,718.91 -169.9,181.42 -1155.23,37.22 -1334.81,120.31 -139.7,11.3 -500.79,-28.44 -565.03,10.18 -409.46,107.86 -2037.21,18.78 -2537.24,13.7 -1016.68,-10.3 -2144.42,-10.91 -3160.32,-45.9 -203.89,-36.73 -345.64,-49 -548.16,-6.07z"/>
   <path class="fil1" d="M12001.16 16242.11c202.52,-42.93 344.27,-30.66 548.16,6.07l6.57 323.39c246.53,234.21 482.61,526.45 282.14,881.99 -88.24,153.27 -268.98,296.88 -443.55,335.08 -360.12,78.71 -707.03,-118.98 -769.58,-494.91 -65.68,-394.76 181.01,-460.51 382.44,-726.88 64.45,-85.22 15.07,-229.97 -6.18,-324.74z"/>
   <path class="fil1" d="M18246.88 16280.38c64.24,-38.62 425.33,1.12 565.03,-10.18 6.21,137.93 14.32,275.75 24.78,413.37 79.34,61.76 172.6,131.55 248.08,195.32 120.75,352.81 123.06,349.12 6.19,692.76 -180.74,156.14 -337.09,276.2 -600.26,248.34 -188.09,-19.12 -359.14,-116.73 -470.99,-268.78 -257.37,-351.91 -75.47,-663.03 243.82,-868.03l-16.65 -402.8z"/>
   <path class="fil2" d="M14860.58 7475.3c0.75,-34.71 2.15,-74.4 2.62,-114.32l1237.65 55.73c-24.05,173.25 -49.4,415.54 -47.45,447.6 -7.13,119.84 -28.95,505.82 -69.26,565.41 -155.47,229.89 -958.32,-4.24 -1084.35,-136.97 -44.9,-85.83 -37.74,-670.17 -39.21,-817.45z"/>
   <path class="fil2" d="M13672.19 9352.65c-537.09,368.43 -1498.28,406.51 -2074.02,124.18 -484.1,-237.39 -857.65,-531.73 -1194.7,-954.91 -88.13,-110.66 -307.09,-304.82 -227.27,-446.74 142.49,-61.8 307.18,108.69 390.2,68.19 -18.51,-99.78 -206.74,-258.22 -170.44,-460.13 129.08,-154.44 359.23,139.54 466.59,226.42l23.53 -7.49c6.18,-58.97 -9.77,-145.46 -17.97,-206.66 31.4,-47.09 30.38,-33.9 98.95,-56.67l13.48 -26.95c181.37,175.6 240.58,430.33 379.1,627.86 312.34,445.42 873.87,703.92 1415.58,616.19 161.63,-26.19 399.36,-82.22 526.76,-169.94l15 -10.55c160.12,275.66 116.18,384.4 355.21,677.2z"/>
   <path class="fil3" d="M13316.98 8675.45c-29.17,-78.06 -75.01,-174.63 -64.39,-253.66 95.71,-79.88 1149.52,-531.74 1313.64,-600.19 2.21,147.29 -8.6,731.6 59.21,817.44 190.31,132.73 1402.66,366.85 1637.42,136.96 60.87,-59.58 93.84,-445.55 104.6,-565.39 236.42,110.64 893.66,445.25 1060.61,617.71 -111.57,131.91 -257.65,260.57 -352.17,386.26 -296.44,423.5 -396.96,489.67 -351.84,1042.9 3.37,41.4 9.07,206.02 -3.26,240.8l-4.38 17.02c-57.42,230.19 -30.28,500.18 -83.68,732.86 -31.83,138.71 -94.29,100.83 -198.61,129.77 -654.18,123.89 -1404.96,104.07 -2051.98,-57.46 -233.07,-58.19 -493.29,-155.97 -727.04,-231.34 -81.36,-179.95 157.1,-1657.95 93.31,-1732.51l-76.23 -3.97c-239.03,-292.8 -195.09,-401.54 -355.21,-677.2z"/>
   <path class="fil2" d="M16720.8 10498.28c12.33,-34.78 6.63,-199.4 3.26,-240.8 -45.12,-553.23 55.4,-619.4 351.84,-1042.9 147.24,335.96 288.83,663.63 522.56,951.75 34.68,42.78 67.46,87.04 96.2,134.03 72.1,25.86 107.12,42.28 163.95,95.78 87.53,47.89 163.38,88.85 253.94,130.42 406.48,84.17 798.21,41.05 1153.57,-183.78 48.06,-135.28 67.21,-177.52 150.49,-294.03 55.12,-33.3 113.97,-54.22 173.79,-78.31 95.75,76.41 93.44,48.43 190.91,-6 25.36,-5.06 59.73,-19.37 80.91,-3.23 119.08,90.61 286.47,653.68 213.67,767.5 -41,13.15 -62.48,23.17 -106.07,21.96 -57.42,24.51 -79.82,33.23 -131.53,66.93 -78.27,36.34 -154.35,57.38 -232.93,94.06 -160.72,75.01 -325.96,171.03 -489.03,237.65 -460.58,188.15 -1038.58,207 -1508.12,39.89l-223.19 -91.72c-220.58,-107.08 -542.48,-377.88 -664.22,-599.2z"/>
   <path class="fil4" d="M13507.03 12606.23c-0.05,-4.33 -0.12,-8.63 -0.17,-12.95 31.26,-92.84 8.6,-208.49 25.48,-310.08 63.65,-382.81 53.77,-818.72 122.77,-1194.07 233.75,75.37 493.97,173.15 727.04,231.34 647.02,161.53 1397.8,181.35 2051.98,57.46 65.03,67.7 77.53,549.86 94.77,694.35 9.29,91.77 17.42,273.72 36.67,349.91l-17.09 19.99c15.64,99.4 67.73,350.25 63.34,426.24 -75.37,34.08 -137.05,21.42 -181.8,42.71 -114.52,-13.12 -1062.33,-10.39 -1150.74,8.44l-12.58 -3.85c-64.88,-188.77 -79.26,-537.62 -115.98,-591.83 -40.41,45.16 -72.9,347.13 -83.26,426.17 20.82,37.73 30.06,46.99 27.26,90.36 -331.02,80.69 -1206.45,-251.96 -1587.69,-234.19z"/>
   <path class="fil3" d="M13507.03 12606.23c381.24,-17.77 1256.67,314.88 1587.69,234.19 2.8,-43.37 -6.44,-52.63 -27.26,-90.36 10.36,-79.04 42.85,-381.01 83.26,-426.17 36.72,54.21 51.1,403.06 115.98,591.83 -6.53,25.28 -7.77,54.31 -26.21,61.13 -117.94,43.61 -333.64,22.77 -455.94,32.66 -5.95,-4.56 -811.24,-156.04 -923.16,-188.3 -109.08,-17.13 -263.61,-27.99 -345.71,-91.2 -32.54,-63.38 -25.29,-35.67 -8.65,-123.78z"/>
   <path class="fil5" d="M14076.7 14889.27c170.31,112.99 495.33,231.94 559.53,405.01 -11.41,47.53 1.4,28.71 -42.95,55.92 -74.2,9.01 -184.59,-13.88 -279.18,-56.07 -385.83,-172.05 -917.64,-342.66 -1199.25,-654.12 1.57,1.76 160.39,-301.19 174.49,-321.35 68.23,-97.54 134.48,-289.14 196.06,-380.51 217.43,-322.49 250.58,-797.39 375.99,-1116.94 111.92,32.26 917.21,183.74 923.16,188.3 34.41,79.55 16.7,211.06 7.13,298 -63.77,578.57 -374.16,1122.24 -714.98,1581.76z"/>
   <path class="fil3" d="M16430.02 12911.13c44.75,-21.29 106.43,-8.63 181.8,-42.71 15.86,68.86 19.96,42.69 -11.12,99.4 -53.88,36.72 -89.06,41.07 -151.31,55.64l-38.1 20.91c-35.13,17.95 -790.73,20.9 -900.6,21.65 -130.56,-33.41 -181.28,-14.73 -231.41,-146.45 88.41,-18.83 1036.22,-21.56 1150.74,-8.44z"/>
   <path class="fil5" d="M15510.69 13066.02c109.87,-0.75 865.47,-3.7 900.6,-21.65 123.24,154.26 3.49,890.84 -9.08,1120.85 -7.86,144.08 -129.6,576.87 -114.92,701.2 141.85,77.18 543.27,47.87 663.89,204.87 10.2,62.12 15.95,34.1 -17.3,87.01 -142.49,76.48 -1338.75,-25.29 -1577.78,-39.48 -134.46,-129.4 233.38,-1446.53 150.1,-1736.43 -15.31,-53.27 -27.41,-263.1 4.49,-316.37z"/>
   <path class="fil6" d="M17289.55 3907.34c-49.01,8.84 -28.48,5.9 -65.65,26.35 -142.59,78.76 -374.54,131.64 -535.12,173.01 -157.26,-71.21 -314.38,-164.21 -470.27,-240.71 -14.75,-7.29 -61.83,53.12 -98.03,-2.38 -68.85,-105.33 -161.37,-67.07 -265.76,-42.16 -4.93,-17.49 -10.05,-34.86 -15.64,-52.18l-25.17 -0.79 -46.69 44.4c-51.17,-12.21 -44.66,-58.65 -87.15,-48.92l-14.47 23.92 -22.02 -33.02c-261.73,-1.06 -689.76,79.16 -938.01,170.29 -436.38,160.24 -931.48,567.76 -1153.28,983.2 21.18,11.52 11.29,6.67 40.29,5.95l-11.73 30.58 -8.1 1.11c-31.99,4.57 -34.14,4.4 -62.07,18.9 -11.73,37.03 -14.31,25.72 -1.29,53.21l24.24 2.59 1.42 17.19 -67.99 28.18c5.81,11.5 11.45,21.2 13.15,34.05 -17.38,19.97 -64.08,65.43 -64.15,84.96l28.7 -1.68 9.3 31.97c-19.32,26.84 -39.64,34.02 -69.34,49.83 -75.11,120.18 58.53,178.73 -64.64,287.53l39.77 21.72c-0.88,90.89 -51.12,168.94 -41.74,263.36l1.11 11.73c1.17,8.63 2.19,17.24 3.36,25.86 -23.07,19.69 -27.51,26.57 -57.88,30.84l-7.85 -37.81 -47.57 -16.93 5.59 -18.27c17.3,5.07 31.66,9.21 48.61,15.42l2.45 -21.7c-27.31,-23.76 -346.69,-117.54 -408.18,-168.58 -41.72,-34.64 -258.32,23.38 -311.18,6.57 -26.49,7.54 -72.14,25.41 -93.06,29.3 -6.68,-51.7 -46.16,-169.04 -77.91,-211.43 1.06,-33.04 -37.19,-263.54 -41.83,-308.88 -24.55,-239.7 -41.45,-458.18 16.26,-694.81 14.97,-61.34 3.49,-124.19 32.77,-206.5l32 -0.03c55.68,-121.34 134.93,-344.75 301.41,-342.82 55.72,0.65 154.45,6.5 195.47,44.7 37.44,55.9 43.96,234.73 135.15,300.86l26.32 -5.97c43.77,-228.76 101.93,-363.37 201.15,-573.19 33.17,-23.36 43.49,-27.4 64.67,-60.64 -1.03,-44.98 -5.5,-74.39 15.09,-115.08 27.35,-4.66 47.45,-8.78 74.52,-15.46 39.88,-199.57 150.8,-185.36 253.14,-304.11l-22.47 -46.72 11.01 -22.75c37.26,5.49 42.17,4.96 78.84,-3.42 28.2,-37.08 20.46,-23.54 12.77,-82.3 35.61,-21.32 31.92,-13.34 80.54,-5.26l10.69 -14.45c-9.77,-21.95 -16.05,-30.65 -13.67,-54.68l38.4 -20.34 39.28 12.78 36.98 -23.9 13.04 -62.01 19.38 -9.86 38.67 15.38 17.61 -46.82 12.43 -3.72 1.83 25.74c41.58,-8.06 82.37,-95.34 147.95,-123.05l14.3 30.88 11.62 1.94 32.21 -70.56c35.29,-0.3 45.34,-2.81 80.26,-10.03 28.79,-30.49 22.98,-51.06 44.18,-89.88l18.04 4.35c-3.4,19.97 -3.99,26.2 -4.33,46.44 36.24,-16.8 47.12,-29.61 72.23,-60.39 -0.56,25.18 -2.64,30.06 7.35,53.46 75.3,-19.13 125.86,-77.19 196.21,-116.51 0,0 32.03,27.09 32.03,27.09 72.55,-5.75 156.99,-33.03 228.37,-37.38 84.56,-5.11 89.6,7.25 149.76,61.45 20.23,-7.54 37.39,-13.48 57.91,-20.06 38.83,29.11 63.08,161.17 85.85,205.24 72,139.72 -116.88,300.71 -220.84,408.86l10.75 18.02 58.6 12.35 0.63 -28.33c48.42,-12.62 104.32,-46.43 150.35,-69.65 6.62,-3.31 0.9,-21.67 28.09,-40.08l15.49 29.37c190.95,-91.1 488.48,-240.97 698.71,-250.19l14.06 -0.51c20.25,-30.49 22.08,-33.9 49.67,-57.37l17.99 17.42c50.37,7.85 25.17,-32.89 90.63,-57.18l18.53 49.81 25.36 -5.76c134.03,-167.17 128.86,54.72 270.59,-106.57 51.04,6.61 83.2,52.07 89.51,50.57 61.4,-14.16 134.53,-35.15 200.24,-36.27l-9.94 40.1c242.51,15.52 275.27,13.69 451.2,177.65 -25.93,109.45 61.24,60.7 81.71,142.92l-43.97 0.18 5.83 30.44 29.81 4.57c-11.97,52.99 -22.2,49.26 -65.57,95.12 7.03,18.94 12.88,32.9 20.96,51.09 -132.58,108.46 -360.01,280.68 -520.72,331.87l-0.92 13.61c-8.19,7.96 -10.82,10.65 -18.24,19.58 88.24,28.82 841.1,-55.21 610.05,304.19z"/>
   <path class="fil2" d="M12453.51 5694.23c20.92,-3.89 66.57,-21.76 93.06,-29.3 52.86,16.81 269.46,-41.21 311.18,-6.57 61.49,51.04 380.87,144.82 408.18,168.58l-2.45 21.7c-16.95,-6.21 -31.31,-10.35 -48.61,-15.42l-5.59 18.27 47.57 16.93 7.85 37.81c30.37,-4.27 34.81,-11.15 57.88,-30.84 -1.17,-8.62 -2.19,-17.23 -3.36,-25.86l-1.11 -11.73c-9.38,-94.42 40.86,-172.47 41.74,-263.36l-39.77 -21.72c123.17,-108.8 -10.47,-167.35 64.64,-287.53 29.7,-15.81 50.02,-22.99 69.34,-49.83l-9.3 -31.97 -28.7 1.68c0.07,-19.53 46.77,-64.99 64.15,-84.96 -1.7,-12.85 -7.34,-22.55 -13.15,-34.05l67.99 -28.18 -1.42 -17.19 -24.24 -2.59c-13.02,-27.49 -10.44,-16.18 1.29,-53.21 27.93,-14.5 30.08,-14.33 62.07,-18.9l8.1 -1.11 11.73 -30.58c-29,0.72 -19.11,5.57 -40.29,-5.95 221.8,-415.44 716.9,-822.96 1153.28,-983.2 248.25,-91.13 676.28,-171.35 938.01,-170.29l22.02 33.02 14.47 -23.92c42.49,-9.73 35.98,36.71 87.15,48.92l46.69 -44.4 25.17 0.79c5.59,17.32 10.71,34.69 15.64,52.18 104.39,-24.91 196.91,-63.17 265.76,42.16 36.2,55.5 83.28,-4.91 98.03,2.38 155.89,76.5 313.01,169.5 470.27,240.71 12.37,37.64 407.44,344.32 458.07,445.42 1.74,3.47 291.06,473.42 284.12,468.61 16.96,-14.76 105.99,-104.56 111.32,-106.66 331.64,-132.31 577.92,-121.64 831.83,150.59 171.98,184.38 93.27,280.1 184.19,410.82 -8.82,191.3 -33.78,468.33 -202.87,555.88 -18.04,9.35 -31.53,96.79 -44.23,113.9 -139.79,142.64 -300.89,257.19 -491.92,319.61 -29.76,9.7 -221.57,52.06 -227.4,67.18 -60.71,155.04 -103.78,264.85 -194.65,408.26 -154.09,242.97 -369.99,461.45 -615.61,612.86 -79.83,48.5 -217.53,92.19 -291.43,145.98 8.17,31.32 22.7,32.65 54.66,55.57 -65.51,9.09 -73.8,8.5 -139.8,10.42 -122.17,3.58 -296.83,66.48 -421.53,91.31 -130.33,25.94 -224.12,38.8 -356.03,41.15 -45.78,0.82 -110.98,3.54 -158.53,3.79 0,0 -49.43,30.45 -49.43,30.45 -140.67,-6.35 -558.36,-108.17 -665.22,-107 -67.36,-58.44 -178.47,-77.03 -262.68,-117.67 -372.45,-179.61 -606.83,-356.8 -858.44,-689.96 -216.17,117.91 -319.28,225.62 -602.33,259.52 -660.8,79.1 -1396.08,-702.23 -975.17,-1334.45 37.64,-56.54 204.32,-154.45 264.55,-190.97 46.84,-28.4 84.14,-5.68 133.26,-57.08zm3839.65 -1167.97c-343.68,-74.14 -431.28,521.48 -313.67,735.22 56.43,102.62 184.4,65.9 242.57,84.45l-6.03 12.58c-51.61,25.04 -65.16,30.77 -84.01,75.83 44.67,68.63 90.76,6.74 218.97,171.97 96.07,43.01 401.83,28.95 461.36,-60.77l-19.33 -25.07 74.72 0.63c-14.59,-19.13 -22.81,-20.07 -45.1,-32.35 25.85,-26 29.28,-28.8 65.46,-34.29l30.18 26.97 16.76 -17.28c0.15,-21.82 0.99,-40.47 2.34,-62.06l21.31 7.04c44.12,-43.02 57.96,-78.67 48.23,-139.15l20.98 2.58 -50.39 -20.43c22.31,-38.94 75.39,-95.37 83.91,-122.6l-32.3 -1.81c-33.47,-116.16 -40.83,-68.41 0.77,-166.81 -30.09,-286.46 -460.64,-604.54 -738.81,-458.93l2.08 24.28zm-1299.68 -37.12c-56.66,-0.95 -115.53,-25.37 -182.95,3.11 -113.63,123.9 -219.13,199.14 -249.76,367.17 -28.8,157.29 -62.33,386.14 134.22,443.59 22.1,110.9 123.57,127.72 151.71,228.68l37.57 -10.02c283.56,154.67 533.7,-26.03 666.48,-283.36 31.95,-61.87 -2.23,-222.19 6.54,-281.85l19.06 -1.66c3.53,-28.9 -101.23,-216.02 -125.45,-273.51l-27.52 5.73c-46.63,-71.73 -55.49,-134.61 -151.65,-166.14 -81.03,-26.54 -164.9,-41.83 -247.29,-63.08l-30.96 31.34zm1194.5 1079.69c-87.49,22.4 -366.43,177.09 -353.47,281.49 35.71,27.39 67.12,21.59 113.69,21.68 102.71,-28.8 405.25,-184.42 248.6,-302.04l-8.82 -1.13zm393.4 631.08c-222.73,51.62 -400.6,517.23 -807.98,260.97 -74.05,-46.53 -120.98,-84.55 -190.23,-142.87 -34.35,19.36 -36.17,25.48 -51.61,62.35 9.11,49.55 7.49,63.62 57.32,86.45 142.47,238.27 568.09,277.06 781.65,108.83 94.65,-74.47 305.39,-210.64 249.44,-351.62 -18.85,-16.05 -16.89,-18.42 -38.59,-24.11z"/>
   <path class="fil7" d="M15307.03 4526.26l2.08 -24.28c-278.17,-145.61 -708.71,172.47 -738.81,458.93 41.6,98.4 34.24,50.65 0.77,166.81l-32.3 1.81c8.52,27.23 61.6,83.66 83.91,122.6l-50.39 20.43 20.98 -2.58c53.92,9.37 39.31,-0.76 69.06,31.75 0.77,25.48 -4.12,80.59 0.48,100.36 1.35,21.59 2.19,40.24 2.34,62.06l16.76 17.28 30.18 -26.97c36.18,5.49 39.61,8.29 65.46,34.29 -22.28,12.28 -30.5,13.22 -45.1,32.35l74.72 -0.63 -19.33 25.07c59.53,89.72 365.29,103.78 461.37,60.77 128.2,-165.23 174.29,-103.34 218.97,-171.97 -18.85,-45.06 -32.41,-50.79 -84.02,-75.83l-6.03 -12.58c-156.57,-81.6 -187.75,-118.83 -258.19,-300.02 -44.47,-114.36 -59.61,-261.58 -1.56,-373.85 54.66,-105.73 79.9,-109.74 188.65,-145.8z"/>
   <path class="fil8" d="M15378.13 5345.93c58.17,-18.55 186.14,18.17 242.57,-84.45 117.61,-213.74 30.01,-809.36 -313.67,-735.22 -108.75,36.06 -133.99,40.07 -188.65,145.8 -58.05,112.27 -42.91,259.49 1.56,373.85 70.44,181.19 101.62,218.42 258.19,300.02z"/>
   <path class="fil7" d="M16606.71 4489.14l-30.96 -31.34c-82.39,21.25 -166.26,36.54 -247.29,63.08 -96.16,31.53 -105.02,94.41 -151.65,166.14l-27.52 -5.73c-24.22,57.49 -128.98,244.61 -125.45,273.51l19.06 1.66c8.77,59.66 -25.41,219.98 6.55,281.85 132.78,257.33 382.92,438.03 666.47,283.36l37.57 10.02c28.14,-100.96 129.61,-117.78 151.71,-228.68 -43.85,1.39 -123.21,22.26 -165.27,5.9 -228.64,-89.05 -330.45,-480.88 -256.86,-696.13 26.05,-76.72 55.72,-92.16 123.64,-123.64z"/>
   <path class="fil8" d="M16905.2 5303.01c196.55,-57.45 163.02,-286.3 134.22,-443.59 -30.63,-168.03 -136.13,-243.27 -249.76,-367.17 -67.41,-28.48 -126.29,-4.06 -182.95,-3.11 -67.92,31.48 -97.59,46.92 -123.64,123.64 -73.59,215.25 28.22,607.08 256.86,696.13 42.06,16.36 121.42,-4.51 165.27,-5.9z"/>
   <path class="fil9" d="M14662.81 5402.09c-4.6,-19.77 0.29,-74.88 -0.48,-100.36 -29.75,-32.51 -15.14,-22.38 -69.06,-31.75 -9.73,60.48 4.11,96.13 48.23,139.15l21.31 -7.04z"/>
   <path class="fil10" d="M15948.2 5872c-46.57,-0.09 -77.98,5.71 -113.69,-21.68 -12.96,-104.4 265.98,-259.09 353.47,-281.49l8.82 1.13c156.65,117.62 -145.89,273.24 -248.6,302.04z"/>
   <path class="fil10" d="M15588.88 6466.81c-49.83,-22.83 -48.21,-36.9 -57.32,-86.45 15.44,-36.87 17.26,-42.99 51.61,-62.35 69.25,58.32 116.18,96.34 190.23,142.87 407.38,256.26 585.25,-209.35 807.98,-260.97 21.7,5.69 19.74,8.06 38.59,24.11 55.95,140.98 -154.79,277.15 -249.44,351.62 -213.56,168.23 -639.18,129.44 -781.65,-108.83z"/>
   <path class="fil11" d="M14566.23 7821.6l297.33 69.5c3.79,180.92 13.09,357.43 36.22,401.65 126.04,132.73 928.88,366.86 1084.35,136.97 20.47,-30.25 36.17,-144.61 47.6,-265.57l332.93 77.81c-13.09,144.77 -45.51,478.94 -101.8,534.06 -234.76,229.88 -1447.1,-4.25 -1637.43,-136.98 -67.8,-85.83 -56.98,-670.16 -59.2,-817.44z"/>
   <path class="fil8" d="M15112.18 14277.78c438.7,-48.19 873.62,51.74 1315.39,-9.26 -13.95,182.31 -22.74,361.89 -21.84,544.82 214.23,70.88 788.75,205.24 898.28,418.59 4.88,9.47 8.67,19.47 12.98,29.17 -35.14,52.35 -41.95,57.47 -104.7,71.37 -253.53,56.27 -1604.27,-24.58 -1980.52,-39.81 -105.21,-351.41 -19.34,-710.93 -119.59,-1014.88z"/>
   <path class="fil8" d="M13215.18 13990.69c435.28,150.56 877.26,247.11 1310.82,407.58 -45.2,171.04 -141.06,349.74 -196.51,522.52 302.75,160.71 456.89,363.05 575.81,679.64 -641.58,-190.08 -1278.84,-394.43 -1911.31,-612.91 49.98,-336.04 140.41,-667.08 221.19,-996.83z"/>
  </g>
 </g>
 <g id="Camada_x0020_1_0">
  <metadata id="CorelCorpID_1Corel-Layer"/>
 </g>
</svg>
