<?xml version="1.0" encoding="UTF-8"?>
<svg id="Camada_1" data-name="Camada 1" xmlns="http://www.w3.org/2000/svg" viewBox="0 0 3000 3000">
  <defs>
    <style>
      .cls-1 {
        fill: #000;
      }

      .cls-1, .cls-2 {
        stroke-width: 0px;
      }

      .cls-2 {
        fill: #675bff;
      }
    </style>
  </defs>
  <g>
    <g>
      <path class="cls-2" d="M384.37,545.06l303.67,237.99c5.17,4.05,12.45,4.05,17.62,0l303.67-237.99c8.41-6.59,20.81-1.95,22.83,8.54l159.85,828.9H201.69l159.85-828.9c2.02-10.49,14.42-15.13,22.83-8.54Z"/>
      <path class="cls-2" d="M1294.28,561.15h264.78c7.89,0,14.28,6.39,14.28,14.28v807.07h-293.34v-807.07c0-7.89,6.39-14.28,14.28-14.28Z"/>
      <path class="cls-2" d="M1738.44,564l374.96,369.77c9.03,8.9,24.31,2.51,24.31-10.17v-348.17c0-7.89,6.39-14.28,14.28-14.28h264.78c7.89,0,14.28,6.39,14.28,14.28v807.07h-716.92v-808.33c0-12.68,15.28-19.07,24.31-10.17Z"/>
      <path class="cls-2" d="M2586.12,561.15h264.78c7.89,0,14.28,6.39,14.28,14.28v807.07h-293.34v-807.07c0-7.89,6.39-14.28,14.28-14.28Z"/>
    </g>
    <g>
      <path class="cls-2" d="M1445.17,1712.38c0-14.91,12.08-26.99,26.99-26.99h266.35c97.39,0,359.05,11.73,359.05,289.82,0,177.64-109.1,269.08-333.62,281.7-14.3.8-25.42,12.76-25.42,27.08v195.76c0,14.91-12.08,26.99-26.99,26.99h-239.36c-14.91,0-26.99-12.08-26.99-26.99v-767.38Z"/>
      <path class="cls-2" d="M2220.74,1685.39h573.77c14.91,0,26.99,12.08,26.99,26.99v234.67c0,14.91-12.08,26.99-26.99,26.99h-285.13c-14.91,0-26.99,12.08-26.99,26.99v38.72c0,14.91,12.08,26.99,26.99,26.99h235.63c7.25,0,13.12,5.88,13.12,13.12v27.73c0,7.25-5.88,13.12-13.12,13.12h-235.63c-14.91,0-26.99,12.08-26.99,26.99v43.41c0,14.91,12.08,26.99,26.99,26.99h285.13c14.91,0,26.99,12.08,26.99,26.99v234.67c0,14.91-12.08,26.99-26.99,26.99h-573.77c-14.91,0-26.99-12.08-26.99-26.99v-767.38c0-14.91,12.08-26.99,26.99-26.99ZM2452.66,1583.83l83.84-114.99c5.08-6.97,13.18-11.09,21.81-11.09h147.99c25.06,0,36.59,31.17,17.56,47.48l-134.15,114.99c-4.89,4.19-11.12,6.5-17.56,6.5h-97.69c-22.07,0-34.81-25.05-21.81-42.89Z"/>
      <path class="cls-2" d="M272.39,2506.74h237.97c19.06,0,36.85-9.55,47.38-25.43l76.28-114.97c14.1-21.25,45.3-21.25,59.4,0l76.28,114.97c10.54,15.88,28.33,25.43,47.38,25.43h237.97c20.14,0,33.18-21.26,24.06-39.22l-391.33-770c-10-19.68-38.12-19.68-48.12,0l-391.33,770c-9.13,17.95,3.92,39.22,24.06,39.22Z"/>
    </g>
  </g>
  <g>
    <g>
      <path class="cls-1" d="M927.41,571.37l137.42,712.59H195.13l137.42-712.59,257.91,202.12c11.23,8.8,25.26,13.64,39.52,13.64s28.3-4.84,39.52-13.64l257.91-202.12M951.22,493.26c-3.02,0-6.09.96-8.76,3.05l-303.67,237.99c-2.59,2.03-5.7,3.04-8.81,3.04s-6.22-1.01-8.81-3.04l-303.67-237.99c-2.67-2.09-5.74-3.05-8.76-3.05-6.48,0-12.69,4.43-14.07,11.59l-159.85,828.9h990.32l-159.85-828.9c-1.38-7.16-7.59-11.59-14.07-11.59h0Z"/>
      <path class="cls-1" d="M1456.67,562.19v721.77h-193.75v-721.77h193.75M1492.18,512.4h-264.78c-7.89,0-14.28,6.39-14.28,14.28v807.07h293.34v-807.07c0-7.89-6.39-14.28-14.28-14.28h0Z"/>
      <path class="cls-1" d="M2314.39,562.19v721.77h-617.34v-673.64l314.52,310.16c12.08,11.91,28.03,18.48,44.89,18.48,35.39,0,64.18-28.76,64.18-64.1v-312.66h193.75M1661.64,511.11c-7.34,0-14.38,5.71-14.38,14.31v808.33h716.92v-807.07c0-7.89-6.39-14.28-14.28-14.28h-264.78c-7.89,0-14.28,6.39-14.28,14.28v348.17c0,8.6-7.04,14.31-14.38,14.31-3.48,0-7.03-1.28-9.93-4.14l-374.96-369.77c-2.9-2.86-6.45-4.14-9.93-4.14h0Z"/>
      <path class="cls-1" d="M2748.52,562.19v721.77h-193.75v-721.77h193.75M2784.03,512.4h-264.78c-7.89,0-14.28,6.39-14.28,14.28v807.07h293.34v-807.07c0-7.89-6.39-14.28-14.28-14.28h0Z"/>
    </g>
    <g>
      <path class="cls-1" d="M1671.64,1686.43c29.92,0,120.96,0,194.29,35.62,77.36,37.58,114.97,104.45,114.97,204.41,0,73.98-21.23,127.84-64.91,164.66-46.28,39.01-120.88,61.66-221.71,67.33-40.61,2.28-72.42,36.02-72.42,76.8v172.96h-193.75v-721.77h243.55M1671.64,1636.64h-266.35c-14.91,0-26.99,12.08-26.99,26.99v767.38c0,14.91,12.08,26.99,26.99,26.99h239.36c14.91,0,26.99-12.08,26.99-26.99v-195.76c0-14.32,11.12-26.28,25.42-27.08,224.52-12.62,333.63-104.06,333.63-281.7,0-278.09-261.66-289.82-359.05-289.82h0Z"/>
      <path class="cls-1" d="M2577.79,1458.8l-80.94,69.38h-44.4l50.59-69.38h74.75M2704.84,1686.43v189.06h-262.32c-42.34,0-76.78,34.44-76.78,76.78v38.72c0,21.02,8.49,40.1,22.22,53.98-13.73,13.88-22.22,32.96-22.22,53.98v43.41c0,42.34,34.44,76.78,76.78,76.78h262.32v189.06h-528.16v-721.77h528.16M2639.43,1409.01h-147.99c-8.62,0-16.73,4.12-21.81,11.09l-83.85,114.99c-13,17.83-.27,42.89,21.81,42.89h97.69c6.44,0,12.67-2.3,17.56-6.5l134.15-114.99c19.02-16.31,7.49-47.48-17.56-47.48h0ZM2727.64,1636.64h-573.77c-14.91,0-26.99,12.08-26.99,26.99v767.38c0,14.91,12.08,26.99,26.99,26.99h573.77c14.9,0,26.99-12.08,26.99-26.99v-234.67c0-14.91-12.08-26.99-26.99-26.99h-285.13c-14.9,0-26.99-12.08-26.99-26.99v-43.41c0-14.91,12.08-26.99,26.99-26.99h235.63c7.25,0,13.12-5.88,13.12-13.12v-27.73c0-7.25-5.87-13.12-13.12-13.12h-235.63c-14.9,0-26.99-12.08-26.99-26.99v-38.72c0-14.91,12.08-26.99,26.99-26.99h285.13c14.9,0,26.99-12.08,26.99-26.99v-234.67c0-14.91-12.08-26.99-26.99-26.99h0Z"/>
      <path class="cls-1" d="M596.85,1711.34l354.16,696.86h-200.8c-2.38,0-4.58-1.18-5.89-3.16l-76.28-114.97c-15.87-23.92-42.48-38.2-71.19-38.2s-55.32,14.28-71.19,38.2l-76.28,114.97c-1.31,1.98-3.52,3.16-5.89,3.16h-200.8l354.16-696.86M596.85,1634.02c-9.53,0-19.06,4.92-24.06,14.76l-391.33,770c-9.13,17.95,3.92,39.22,24.06,39.22h237.97c19.06,0,36.85-9.55,47.38-25.43l76.28-114.97c7.05-10.63,18.37-15.94,29.7-15.94s22.65,5.31,29.7,15.94l76.28,114.97c10.53,15.88,28.33,25.43,47.38,25.43h237.97c20.14,0,33.18-21.26,24.06-39.22l-391.33-770c-5-9.84-14.53-14.76-24.06-14.76h0Z"/>
    </g>
  </g>
</svg>