<svg width="159" height="45" viewBox="0 0 159 45" fill="none" xmlns="http://www.w3.org/2000/svg">
<path d="M0 5C0 2.23858 2.23858 0 5 0H154C156.761 0 159 2.23858 159 5V40C159 42.7614 156.761 45 154 45H5C2.23857 45 0 42.7614 0 40V5Z" fill="black"/>
<mask id="path-2-outside-1_1545_948" maskUnits="userSpaceOnUse" x="53" y="9" width="88" height="31" fill="black">
<rect fill="white" x="53" y="9" width="88" height="31"/>
<path d="M57.256 19V17.536H59.248C59.616 17.536 59.904 17.428 60.112 17.212C60.32 16.996 60.424 16.732 60.424 16.42C60.424 16.204 60.376 16.012 60.28 15.844C60.184 15.676 60.048 15.544 59.872 15.448C59.704 15.352 59.496 15.304 59.248 15.304H57.256V13.876H59.092C59.404 13.876 59.656 13.8 59.848 13.648C60.04 13.488 60.136 13.248 60.136 12.928C60.136 12.616 60.04 12.384 59.848 12.232C59.656 12.072 59.404 11.992 59.092 11.992H57.256V10.528H59.452C59.996 10.528 60.456 10.628 60.832 10.828C61.216 11.028 61.508 11.296 61.708 11.632C61.908 11.968 62.008 12.34 62.008 12.748C62.008 13.268 61.84 13.708 61.504 14.068C61.168 14.428 60.672 14.676 60.016 14.812L60.064 14.176C60.776 14.312 61.324 14.588 61.708 15.004C62.1 15.42 62.296 15.932 62.296 16.54C62.296 17.004 62.18 17.424 61.948 17.8C61.724 18.168 61.396 18.46 60.964 18.676C60.54 18.892 60.028 19 59.428 19H57.256ZM55.816 19V10.528H57.676V19H55.816ZM65.7715 19.12C65.2355 19.12 64.7555 18.988 64.3315 18.724C63.9155 18.46 63.5835 18.1 63.3355 17.644C63.0955 17.188 62.9755 16.668 62.9755 16.084C62.9755 15.5 63.0955 14.98 63.3355 14.524C63.5835 14.068 63.9155 13.708 64.3315 13.444C64.7555 13.18 65.2355 13.048 65.7715 13.048C66.1635 13.048 66.5155 13.124 66.8275 13.276C67.1475 13.428 67.4075 13.64 67.6075 13.912C67.8075 14.176 67.9195 14.48 67.9435 14.824V17.344C67.9195 17.688 67.8075 17.996 67.6075 18.268C67.4155 18.532 67.1595 18.74 66.8395 18.892C66.5195 19.044 66.1635 19.12 65.7715 19.12ZM66.1435 17.464C66.5355 17.464 66.8515 17.336 67.0915 17.08C67.3315 16.816 67.4515 16.484 67.4515 16.084C67.4515 15.812 67.3955 15.572 67.2835 15.364C67.1795 15.156 67.0275 14.996 66.8275 14.884C66.6355 14.764 66.4115 14.704 66.1555 14.704C65.8995 14.704 65.6715 14.764 65.4715 14.884C65.2795 14.996 65.1235 15.156 65.0035 15.364C64.8915 15.572 64.8355 15.812 64.8355 16.084C64.8355 16.348 64.8915 16.584 65.0035 16.792C65.1155 17 65.2715 17.164 65.4715 17.284C65.6715 17.404 65.8955 17.464 66.1435 17.464ZM67.3795 19V17.428L67.6555 16.012L67.3795 14.596V13.168H69.1795V19H67.3795ZM70.4722 19V13.168H72.3082V19H70.4722ZM71.3962 12.364C71.1082 12.364 70.8682 12.268 70.6762 12.076C70.4922 11.876 70.4002 11.636 70.4002 11.356C70.4002 11.068 70.4922 10.828 70.6762 10.636C70.8682 10.444 71.1082 10.348 71.3962 10.348C71.6842 10.348 71.9202 10.444 72.1042 10.636C72.2882 10.828 72.3802 11.068 72.3802 11.356C72.3802 11.636 72.2882 11.876 72.1042 12.076C71.9202 12.268 71.6842 12.364 71.3962 12.364ZM77.2131 19L75.8091 16.732L75.4131 16.48L73.1211 13.168H75.2691L76.5771 15.292L76.9611 15.532L79.3371 19H77.2131ZM73.0131 19L75.4011 15.604L76.4451 16.78L75.0171 19H73.0131ZM76.9491 16.468L75.9051 15.292L77.2251 13.168H79.2171L76.9491 16.468ZM82.3184 19.12C81.7824 19.12 81.3024 18.988 80.8784 18.724C80.4624 18.46 80.1304 18.1 79.8824 17.644C79.6424 17.188 79.5224 16.668 79.5224 16.084C79.5224 15.5 79.6424 14.98 79.8824 14.524C80.1304 14.068 80.4624 13.708 80.8784 13.444C81.3024 13.18 81.7824 13.048 82.3184 13.048C82.7104 13.048 83.0624 13.124 83.3744 13.276C83.6944 13.428 83.9544 13.64 84.1544 13.912C84.3544 14.176 84.4664 14.48 84.4904 14.824V17.344C84.4664 17.688 84.3544 17.996 84.1544 18.268C83.9624 18.532 83.7064 18.74 83.3864 18.892C83.0664 19.044 82.7104 19.12 82.3184 19.12ZM82.6904 17.464C83.0824 17.464 83.3984 17.336 83.6384 17.08C83.8784 16.816 83.9984 16.484 83.9984 16.084C83.9984 15.812 83.9424 15.572 83.8304 15.364C83.7264 15.156 83.5744 14.996 83.3744 14.884C83.1824 14.764 82.9584 14.704 82.7024 14.704C82.4464 14.704 82.2184 14.764 82.0184 14.884C81.8264 14.996 81.6704 15.156 81.5504 15.364C81.4384 15.572 81.3824 15.812 81.3824 16.084C81.3824 16.348 81.4384 16.584 81.5504 16.792C81.6624 17 81.8184 17.164 82.0184 17.284C82.2184 17.404 82.4424 17.464 82.6904 17.464ZM83.9264 19V17.428L84.2024 16.012L83.9264 14.596V13.168H85.7264V19H83.9264ZM87.0191 19V13.168H88.8551V19H87.0191ZM88.8551 15.796L88.0871 15.196C88.2391 14.516 88.4951 13.988 88.8551 13.612C89.2151 13.236 89.7151 13.048 90.3551 13.048C90.6351 13.048 90.8791 13.092 91.0871 13.18C91.3031 13.26 91.4911 13.388 91.6511 13.564L90.5591 14.944C90.4791 14.856 90.3791 14.788 90.2591 14.74C90.1391 14.692 90.0031 14.668 89.8511 14.668C89.5471 14.668 89.3031 14.764 89.1191 14.956C88.9431 15.14 88.8551 15.42 88.8551 15.796ZM98.4883 19V15.676C98.4883 15.372 98.3923 15.128 98.2003 14.944C98.0163 14.752 97.7803 14.656 97.4923 14.656C97.2923 14.656 97.1163 14.7 96.9643 14.788C96.8123 14.868 96.6923 14.988 96.6043 15.148C96.5163 15.3 96.4723 15.476 96.4723 15.676L95.7643 15.328C95.7643 14.872 95.8643 14.472 96.0643 14.128C96.2643 13.784 96.5403 13.52 96.8923 13.336C97.2523 13.144 97.6563 13.048 98.1043 13.048C98.5363 13.048 98.9163 13.152 99.2443 13.36C99.5803 13.56 99.8443 13.828 100.036 14.164C100.228 14.5 100.324 14.868 100.324 15.268V19H98.4883ZM94.6363 19V13.168H96.4723V19H94.6363ZM103.939 19.12C103.403 19.12 102.923 18.988 102.499 18.724C102.083 18.46 101.751 18.1 101.503 17.644C101.263 17.188 101.143 16.668 101.143 16.084C101.143 15.5 101.263 14.98 101.503 14.524C101.751 14.068 102.083 13.708 102.499 13.444C102.923 13.18 103.403 13.048 103.939 13.048C104.331 13.048 104.683 13.124 104.995 13.276C105.315 13.428 105.575 13.64 105.775 13.912C105.975 14.176 106.087 14.48 106.111 14.824V17.344C106.087 17.688 105.975 17.996 105.775 18.268C105.583 18.532 105.327 18.74 105.007 18.892C104.687 19.044 104.331 19.12 103.939 19.12ZM104.311 17.464C104.703 17.464 105.019 17.336 105.259 17.08C105.499 16.816 105.619 16.484 105.619 16.084C105.619 15.812 105.563 15.572 105.451 15.364C105.347 15.156 105.195 14.996 104.995 14.884C104.803 14.764 104.579 14.704 104.323 14.704C104.067 14.704 103.839 14.764 103.639 14.884C103.447 14.996 103.291 15.156 103.171 15.364C103.059 15.572 103.003 15.812 103.003 16.084C103.003 16.348 103.059 16.584 103.171 16.792C103.283 17 103.439 17.164 103.639 17.284C103.839 17.404 104.063 17.464 104.311 17.464ZM105.547 19V17.428L105.823 16.012L105.547 14.596V13.168H107.347V19H105.547ZM55.24 35L59.72 23.704H61.992L66.424 35H63.768L60.376 25.624H61.288L57.848 35H55.24ZM57.784 32.952V30.904H63.944V32.952H57.784ZM72.0003 35.16C71.4776 35.16 70.9976 35.0587 70.5603 34.856C70.1229 34.6533 69.7656 34.376 69.4883 34.024C69.2109 33.6613 69.0509 33.2507 69.0082 32.792V29.512C69.0509 29.0533 69.2109 28.6373 69.4883 28.264C69.7656 27.8907 70.1229 27.5973 70.5603 27.384C70.9976 27.1707 71.4776 27.064 72.0003 27.064C72.7363 27.064 73.3869 27.24 73.9523 27.592C74.5283 27.944 74.9763 28.424 75.2963 29.032C75.6269 29.64 75.7923 30.3333 75.7923 31.112C75.7923 31.8907 75.6269 32.584 75.2963 33.192C74.9763 33.8 74.5283 34.28 73.9523 34.632C73.3869 34.984 72.7363 35.16 72.0003 35.16ZM67.5203 38.28V27.224H69.9683V29.224L69.5683 31.112L69.9363 33V38.28H67.5203ZM71.5523 32.952C71.9043 32.952 72.2083 32.872 72.4643 32.712C72.7309 32.552 72.9389 32.3333 73.0883 32.056C73.2376 31.7787 73.3123 31.464 73.3123 31.112C73.3123 30.7493 73.2376 30.4293 73.0883 30.152C72.9389 29.8747 72.7309 29.6613 72.4643 29.512C72.2083 29.352 71.9096 29.272 71.5683 29.272C71.2269 29.272 70.9229 29.352 70.6562 29.512C70.4003 29.6613 70.1976 29.8747 70.0483 30.152C69.8989 30.4293 69.8243 30.7493 69.8243 31.112C69.8243 31.464 69.8936 31.7787 70.0323 32.056C70.1816 32.3333 70.3896 32.552 70.6562 32.712C70.9229 32.872 71.2216 32.952 71.5523 32.952ZM81.5159 35.16C80.9932 35.16 80.5132 35.0587 80.0759 34.856C79.6385 34.6533 79.2812 34.376 79.0039 34.024C78.7265 33.6613 78.5665 33.2507 78.5239 32.792V29.512C78.5665 29.0533 78.7265 28.6373 79.0039 28.264C79.2812 27.8907 79.6385 27.5973 80.0759 27.384C80.5132 27.1707 80.9932 27.064 81.5159 27.064C82.2519 27.064 82.9025 27.24 83.4679 27.592C84.0439 27.944 84.4919 28.424 84.8119 29.032C85.1425 29.64 85.3079 30.3333 85.3079 31.112C85.3079 31.8907 85.1425 32.584 84.8119 33.192C84.4919 33.8 84.0439 34.28 83.4679 34.632C82.9025 34.984 82.2519 35.16 81.5159 35.16ZM77.0359 38.28V27.224H79.4839V29.224L79.0839 31.112L79.4519 33V38.28H77.0359ZM81.0679 32.952C81.4199 32.952 81.7239 32.872 81.9799 32.712C82.2465 32.552 82.4545 32.3333 82.6039 32.056C82.7532 31.7787 82.8279 31.464 82.8279 31.112C82.8279 30.7493 82.7532 30.4293 82.6039 30.152C82.4545 29.8747 82.2465 29.6613 81.9799 29.512C81.7239 29.352 81.4252 29.272 81.0839 29.272C80.7425 29.272 80.4385 29.352 80.1719 29.512C79.9159 29.6613 79.7132 29.8747 79.5639 30.152C79.4145 30.4293 79.3399 30.7493 79.3399 31.112C79.3399 31.464 79.4092 31.7787 79.5479 32.056C79.6972 32.3333 79.9052 32.552 80.1719 32.712C80.4385 32.872 80.7372 32.952 81.0679 32.952ZM93.2144 35.176C92.2864 35.176 91.4864 35.0267 90.8144 34.728C90.153 34.4187 89.545 33.9547 88.9904 33.336L90.6224 31.72C90.985 32.136 91.385 32.4613 91.8224 32.696C92.2704 32.92 92.7877 33.032 93.3744 33.032C93.9077 33.032 94.3184 32.936 94.6064 32.744C94.905 32.552 95.0544 32.2853 95.0544 31.944C95.0544 31.6347 94.9584 31.384 94.7664 31.192C94.5744 31 94.3184 30.8347 93.9984 30.696C93.689 30.5573 93.3424 30.424 92.9584 30.296C92.585 30.168 92.2117 30.024 91.8384 29.864C91.465 29.6933 91.1184 29.4853 90.7984 29.24C90.489 28.984 90.2384 28.6693 90.0464 28.296C89.8544 27.912 89.7584 27.432 89.7584 26.856C89.7584 26.1627 89.9237 25.5653 90.2544 25.064C90.5957 24.5627 91.065 24.184 91.6624 23.928C92.2597 23.6613 92.9477 23.528 93.7264 23.528C94.5157 23.528 95.2357 23.6667 95.8864 23.944C96.5477 24.2213 97.0917 24.6 97.5184 25.08L95.8864 26.696C95.545 26.344 95.1984 26.0827 94.8464 25.912C94.505 25.7413 94.1157 25.656 93.6784 25.656C93.241 25.656 92.8944 25.7413 92.6384 25.912C92.3824 26.072 92.2544 26.3067 92.2544 26.616C92.2544 26.904 92.3504 27.1387 92.5424 27.32C92.7344 27.4907 92.985 27.64 93.2944 27.768C93.6144 27.896 93.961 28.024 94.3344 28.152C94.7184 28.28 95.097 28.4293 95.4704 28.6C95.8437 28.7707 96.185 28.9893 96.4944 29.256C96.8144 29.512 97.0704 29.8427 97.2624 30.248C97.4544 30.6427 97.5504 31.1333 97.5504 31.72C97.5504 32.7973 97.1664 33.6453 96.3984 34.264C95.6304 34.872 94.569 35.176 93.2144 35.176ZM101.497 35V23.864H104.009V35H101.497ZM97.9606 25.896V23.704H107.545V25.896H97.9606ZM113.746 35.192C112.892 35.192 112.103 35.0427 111.378 34.744C110.663 34.4453 110.034 34.0293 109.49 33.496C108.946 32.9627 108.524 32.344 108.226 31.64C107.927 30.9253 107.778 30.1573 107.778 29.336C107.778 28.504 107.927 27.736 108.226 27.032C108.524 26.328 108.94 25.7147 109.474 25.192C110.007 24.6587 110.631 24.248 111.346 23.96C112.071 23.6613 112.86 23.512 113.714 23.512C114.556 23.512 115.335 23.6613 116.05 23.96C116.775 24.248 117.404 24.6587 117.938 25.192C118.482 25.7147 118.903 26.3333 119.202 27.048C119.5 27.752 119.65 28.52 119.65 29.352C119.65 30.1733 119.5 30.9413 119.202 31.656C118.903 32.36 118.487 32.9787 117.954 33.512C117.42 34.0347 116.791 34.4453 116.066 34.744C115.351 35.0427 114.578 35.192 113.746 35.192ZM113.714 32.904C114.386 32.904 114.972 32.7547 115.474 32.456C115.986 32.1573 116.38 31.7413 116.658 31.208C116.935 30.664 117.074 30.04 117.074 29.336C117.074 28.8027 116.994 28.3227 116.834 27.896C116.674 27.4587 116.444 27.0853 116.146 26.776C115.847 26.456 115.49 26.216 115.074 26.056C114.668 25.8853 114.215 25.8 113.714 25.8C113.042 25.8 112.45 25.9493 111.938 26.248C111.436 26.536 111.047 26.9467 110.77 27.48C110.492 28.0027 110.354 28.6213 110.354 29.336C110.354 29.8693 110.434 30.3547 110.594 30.792C110.754 31.2293 110.978 31.608 111.266 31.928C111.564 32.2373 111.922 32.4773 112.338 32.648C112.754 32.8187 113.212 32.904 113.714 32.904ZM123.164 30.344V28.488H125.548C126.05 28.488 126.434 28.36 126.7 28.104C126.978 27.848 127.116 27.5013 127.116 27.064C127.116 26.6587 126.983 26.3227 126.716 26.056C126.45 25.7893 126.066 25.656 125.564 25.656H123.164V23.704H125.852C126.599 23.704 127.255 23.848 127.82 24.136C128.386 24.4133 128.828 24.8027 129.148 25.304C129.468 25.8053 129.628 26.3813 129.628 27.032C129.628 27.6933 129.468 28.2747 129.148 28.776C128.828 29.2667 128.38 29.6507 127.804 29.928C127.228 30.2053 126.551 30.344 125.772 30.344H123.164ZM121.244 35V23.704H123.756V35H121.244ZM127.388 35L123.868 30.136L126.172 29.512L130.364 35H127.388ZM131.463 35V23.704H133.975V35H131.463ZM133.383 35V32.824H139.575V35H133.383ZM133.383 30.28V28.184H139.015V30.28H133.383ZM133.383 25.864V23.704H139.495V25.864H133.383Z"/>
</mask>
<path d="M57.256 19V17.536H59.248C59.616 17.536 59.904 17.428 60.112 17.212C60.32 16.996 60.424 16.732 60.424 16.42C60.424 16.204 60.376 16.012 60.28 15.844C60.184 15.676 60.048 15.544 59.872 15.448C59.704 15.352 59.496 15.304 59.248 15.304H57.256V13.876H59.092C59.404 13.876 59.656 13.8 59.848 13.648C60.04 13.488 60.136 13.248 60.136 12.928C60.136 12.616 60.04 12.384 59.848 12.232C59.656 12.072 59.404 11.992 59.092 11.992H57.256V10.528H59.452C59.996 10.528 60.456 10.628 60.832 10.828C61.216 11.028 61.508 11.296 61.708 11.632C61.908 11.968 62.008 12.34 62.008 12.748C62.008 13.268 61.84 13.708 61.504 14.068C61.168 14.428 60.672 14.676 60.016 14.812L60.064 14.176C60.776 14.312 61.324 14.588 61.708 15.004C62.1 15.42 62.296 15.932 62.296 16.54C62.296 17.004 62.18 17.424 61.948 17.8C61.724 18.168 61.396 18.46 60.964 18.676C60.54 18.892 60.028 19 59.428 19H57.256ZM55.816 19V10.528H57.676V19H55.816ZM65.7715 19.12C65.2355 19.12 64.7555 18.988 64.3315 18.724C63.9155 18.46 63.5835 18.1 63.3355 17.644C63.0955 17.188 62.9755 16.668 62.9755 16.084C62.9755 15.5 63.0955 14.98 63.3355 14.524C63.5835 14.068 63.9155 13.708 64.3315 13.444C64.7555 13.18 65.2355 13.048 65.7715 13.048C66.1635 13.048 66.5155 13.124 66.8275 13.276C67.1475 13.428 67.4075 13.64 67.6075 13.912C67.8075 14.176 67.9195 14.48 67.9435 14.824V17.344C67.9195 17.688 67.8075 17.996 67.6075 18.268C67.4155 18.532 67.1595 18.74 66.8395 18.892C66.5195 19.044 66.1635 19.12 65.7715 19.12ZM66.1435 17.464C66.5355 17.464 66.8515 17.336 67.0915 17.08C67.3315 16.816 67.4515 16.484 67.4515 16.084C67.4515 15.812 67.3955 15.572 67.2835 15.364C67.1795 15.156 67.0275 14.996 66.8275 14.884C66.6355 14.764 66.4115 14.704 66.1555 14.704C65.8995 14.704 65.6715 14.764 65.4715 14.884C65.2795 14.996 65.1235 15.156 65.0035 15.364C64.8915 15.572 64.8355 15.812 64.8355 16.084C64.8355 16.348 64.8915 16.584 65.0035 16.792C65.1155 17 65.2715 17.164 65.4715 17.284C65.6715 17.404 65.8955 17.464 66.1435 17.464ZM67.3795 19V17.428L67.6555 16.012L67.3795 14.596V13.168H69.1795V19H67.3795ZM70.4722 19V13.168H72.3082V19H70.4722ZM71.3962 12.364C71.1082 12.364 70.8682 12.268 70.6762 12.076C70.4922 11.876 70.4002 11.636 70.4002 11.356C70.4002 11.068 70.4922 10.828 70.6762 10.636C70.8682 10.444 71.1082 10.348 71.3962 10.348C71.6842 10.348 71.9202 10.444 72.1042 10.636C72.2882 10.828 72.3802 11.068 72.3802 11.356C72.3802 11.636 72.2882 11.876 72.1042 12.076C71.9202 12.268 71.6842 12.364 71.3962 12.364ZM77.2131 19L75.8091 16.732L75.4131 16.48L73.1211 13.168H75.2691L76.5771 15.292L76.9611 15.532L79.3371 19H77.2131ZM73.0131 19L75.4011 15.604L76.4451 16.78L75.0171 19H73.0131ZM76.9491 16.468L75.9051 15.292L77.2251 13.168H79.2171L76.9491 16.468ZM82.3184 19.12C81.7824 19.12 81.3024 18.988 80.8784 18.724C80.4624 18.46 80.1304 18.1 79.8824 17.644C79.6424 17.188 79.5224 16.668 79.5224 16.084C79.5224 15.5 79.6424 14.98 79.8824 14.524C80.1304 14.068 80.4624 13.708 80.8784 13.444C81.3024 13.18 81.7824 13.048 82.3184 13.048C82.7104 13.048 83.0624 13.124 83.3744 13.276C83.6944 13.428 83.9544 13.64 84.1544 13.912C84.3544 14.176 84.4664 14.48 84.4904 14.824V17.344C84.4664 17.688 84.3544 17.996 84.1544 18.268C83.9624 18.532 83.7064 18.74 83.3864 18.892C83.0664 19.044 82.7104 19.12 82.3184 19.12ZM82.6904 17.464C83.0824 17.464 83.3984 17.336 83.6384 17.08C83.8784 16.816 83.9984 16.484 83.9984 16.084C83.9984 15.812 83.9424 15.572 83.8304 15.364C83.7264 15.156 83.5744 14.996 83.3744 14.884C83.1824 14.764 82.9584 14.704 82.7024 14.704C82.4464 14.704 82.2184 14.764 82.0184 14.884C81.8264 14.996 81.6704 15.156 81.5504 15.364C81.4384 15.572 81.3824 15.812 81.3824 16.084C81.3824 16.348 81.4384 16.584 81.5504 16.792C81.6624 17 81.8184 17.164 82.0184 17.284C82.2184 17.404 82.4424 17.464 82.6904 17.464ZM83.9264 19V17.428L84.2024 16.012L83.9264 14.596V13.168H85.7264V19H83.9264ZM87.0191 19V13.168H88.8551V19H87.0191ZM88.8551 15.796L88.0871 15.196C88.2391 14.516 88.4951 13.988 88.8551 13.612C89.2151 13.236 89.7151 13.048 90.3551 13.048C90.6351 13.048 90.8791 13.092 91.0871 13.18C91.3031 13.26 91.4911 13.388 91.6511 13.564L90.5591 14.944C90.4791 14.856 90.3791 14.788 90.2591 14.74C90.1391 14.692 90.0031 14.668 89.8511 14.668C89.5471 14.668 89.3031 14.764 89.1191 14.956C88.9431 15.14 88.8551 15.42 88.8551 15.796ZM98.4883 19V15.676C98.4883 15.372 98.3923 15.128 98.2003 14.944C98.0163 14.752 97.7803 14.656 97.4923 14.656C97.2923 14.656 97.1163 14.7 96.9643 14.788C96.8123 14.868 96.6923 14.988 96.6043 15.148C96.5163 15.3 96.4723 15.476 96.4723 15.676L95.7643 15.328C95.7643 14.872 95.8643 14.472 96.0643 14.128C96.2643 13.784 96.5403 13.52 96.8923 13.336C97.2523 13.144 97.6563 13.048 98.1043 13.048C98.5363 13.048 98.9163 13.152 99.2443 13.36C99.5803 13.56 99.8443 13.828 100.036 14.164C100.228 14.5 100.324 14.868 100.324 15.268V19H98.4883ZM94.6363 19V13.168H96.4723V19H94.6363ZM103.939 19.12C103.403 19.12 102.923 18.988 102.499 18.724C102.083 18.46 101.751 18.1 101.503 17.644C101.263 17.188 101.143 16.668 101.143 16.084C101.143 15.5 101.263 14.98 101.503 14.524C101.751 14.068 102.083 13.708 102.499 13.444C102.923 13.18 103.403 13.048 103.939 13.048C104.331 13.048 104.683 13.124 104.995 13.276C105.315 13.428 105.575 13.64 105.775 13.912C105.975 14.176 106.087 14.48 106.111 14.824V17.344C106.087 17.688 105.975 17.996 105.775 18.268C105.583 18.532 105.327 18.74 105.007 18.892C104.687 19.044 104.331 19.12 103.939 19.12ZM104.311 17.464C104.703 17.464 105.019 17.336 105.259 17.08C105.499 16.816 105.619 16.484 105.619 16.084C105.619 15.812 105.563 15.572 105.451 15.364C105.347 15.156 105.195 14.996 104.995 14.884C104.803 14.764 104.579 14.704 104.323 14.704C104.067 14.704 103.839 14.764 103.639 14.884C103.447 14.996 103.291 15.156 103.171 15.364C103.059 15.572 103.003 15.812 103.003 16.084C103.003 16.348 103.059 16.584 103.171 16.792C103.283 17 103.439 17.164 103.639 17.284C103.839 17.404 104.063 17.464 104.311 17.464ZM105.547 19V17.428L105.823 16.012L105.547 14.596V13.168H107.347V19H105.547ZM55.24 35L59.72 23.704H61.992L66.424 35H63.768L60.376 25.624H61.288L57.848 35H55.24ZM57.784 32.952V30.904H63.944V32.952H57.784ZM72.0003 35.16C71.4776 35.16 70.9976 35.0587 70.5603 34.856C70.1229 34.6533 69.7656 34.376 69.4883 34.024C69.2109 33.6613 69.0509 33.2507 69.0082 32.792V29.512C69.0509 29.0533 69.2109 28.6373 69.4883 28.264C69.7656 27.8907 70.1229 27.5973 70.5603 27.384C70.9976 27.1707 71.4776 27.064 72.0003 27.064C72.7363 27.064 73.3869 27.24 73.9523 27.592C74.5283 27.944 74.9763 28.424 75.2963 29.032C75.6269 29.64 75.7923 30.3333 75.7923 31.112C75.7923 31.8907 75.6269 32.584 75.2963 33.192C74.9763 33.8 74.5283 34.28 73.9523 34.632C73.3869 34.984 72.7363 35.16 72.0003 35.16ZM67.5203 38.28V27.224H69.9683V29.224L69.5683 31.112L69.9363 33V38.28H67.5203ZM71.5523 32.952C71.9043 32.952 72.2083 32.872 72.4643 32.712C72.7309 32.552 72.9389 32.3333 73.0883 32.056C73.2376 31.7787 73.3123 31.464 73.3123 31.112C73.3123 30.7493 73.2376 30.4293 73.0883 30.152C72.9389 29.8747 72.7309 29.6613 72.4643 29.512C72.2083 29.352 71.9096 29.272 71.5683 29.272C71.2269 29.272 70.9229 29.352 70.6562 29.512C70.4003 29.6613 70.1976 29.8747 70.0483 30.152C69.8989 30.4293 69.8243 30.7493 69.8243 31.112C69.8243 31.464 69.8936 31.7787 70.0323 32.056C70.1816 32.3333 70.3896 32.552 70.6562 32.712C70.9229 32.872 71.2216 32.952 71.5523 32.952ZM81.5159 35.16C80.9932 35.16 80.5132 35.0587 80.0759 34.856C79.6385 34.6533 79.2812 34.376 79.0039 34.024C78.7265 33.6613 78.5665 33.2507 78.5239 32.792V29.512C78.5665 29.0533 78.7265 28.6373 79.0039 28.264C79.2812 27.8907 79.6385 27.5973 80.0759 27.384C80.5132 27.1707 80.9932 27.064 81.5159 27.064C82.2519 27.064 82.9025 27.24 83.4679 27.592C84.0439 27.944 84.4919 28.424 84.8119 29.032C85.1425 29.64 85.3079 30.3333 85.3079 31.112C85.3079 31.8907 85.1425 32.584 84.8119 33.192C84.4919 33.8 84.0439 34.28 83.4679 34.632C82.9025 34.984 82.2519 35.16 81.5159 35.16ZM77.0359 38.28V27.224H79.4839V29.224L79.0839 31.112L79.4519 33V38.28H77.0359ZM81.0679 32.952C81.4199 32.952 81.7239 32.872 81.9799 32.712C82.2465 32.552 82.4545 32.3333 82.6039 32.056C82.7532 31.7787 82.8279 31.464 82.8279 31.112C82.8279 30.7493 82.7532 30.4293 82.6039 30.152C82.4545 29.8747 82.2465 29.6613 81.9799 29.512C81.7239 29.352 81.4252 29.272 81.0839 29.272C80.7425 29.272 80.4385 29.352 80.1719 29.512C79.9159 29.6613 79.7132 29.8747 79.5639 30.152C79.4145 30.4293 79.3399 30.7493 79.3399 31.112C79.3399 31.464 79.4092 31.7787 79.5479 32.056C79.6972 32.3333 79.9052 32.552 80.1719 32.712C80.4385 32.872 80.7372 32.952 81.0679 32.952ZM93.2144 35.176C92.2864 35.176 91.4864 35.0267 90.8144 34.728C90.153 34.4187 89.545 33.9547 88.9904 33.336L90.6224 31.72C90.985 32.136 91.385 32.4613 91.8224 32.696C92.2704 32.92 92.7877 33.032 93.3744 33.032C93.9077 33.032 94.3184 32.936 94.6064 32.744C94.905 32.552 95.0544 32.2853 95.0544 31.944C95.0544 31.6347 94.9584 31.384 94.7664 31.192C94.5744 31 94.3184 30.8347 93.9984 30.696C93.689 30.5573 93.3424 30.424 92.9584 30.296C92.585 30.168 92.2117 30.024 91.8384 29.864C91.465 29.6933 91.1184 29.4853 90.7984 29.24C90.489 28.984 90.2384 28.6693 90.0464 28.296C89.8544 27.912 89.7584 27.432 89.7584 26.856C89.7584 26.1627 89.9237 25.5653 90.2544 25.064C90.5957 24.5627 91.065 24.184 91.6624 23.928C92.2597 23.6613 92.9477 23.528 93.7264 23.528C94.5157 23.528 95.2357 23.6667 95.8864 23.944C96.5477 24.2213 97.0917 24.6 97.5184 25.08L95.8864 26.696C95.545 26.344 95.1984 26.0827 94.8464 25.912C94.505 25.7413 94.1157 25.656 93.6784 25.656C93.241 25.656 92.8944 25.7413 92.6384 25.912C92.3824 26.072 92.2544 26.3067 92.2544 26.616C92.2544 26.904 92.3504 27.1387 92.5424 27.32C92.7344 27.4907 92.985 27.64 93.2944 27.768C93.6144 27.896 93.961 28.024 94.3344 28.152C94.7184 28.28 95.097 28.4293 95.4704 28.6C95.8437 28.7707 96.185 28.9893 96.4944 29.256C96.8144 29.512 97.0704 29.8427 97.2624 30.248C97.4544 30.6427 97.5504 31.1333 97.5504 31.72C97.5504 32.7973 97.1664 33.6453 96.3984 34.264C95.6304 34.872 94.569 35.176 93.2144 35.176ZM101.497 35V23.864H104.009V35H101.497ZM97.9606 25.896V23.704H107.545V25.896H97.9606ZM113.746 35.192C112.892 35.192 112.103 35.0427 111.378 34.744C110.663 34.4453 110.034 34.0293 109.49 33.496C108.946 32.9627 108.524 32.344 108.226 31.64C107.927 30.9253 107.778 30.1573 107.778 29.336C107.778 28.504 107.927 27.736 108.226 27.032C108.524 26.328 108.94 25.7147 109.474 25.192C110.007 24.6587 110.631 24.248 111.346 23.96C112.071 23.6613 112.86 23.512 113.714 23.512C114.556 23.512 115.335 23.6613 116.05 23.96C116.775 24.248 117.404 24.6587 117.938 25.192C118.482 25.7147 118.903 26.3333 119.202 27.048C119.5 27.752 119.65 28.52 119.65 29.352C119.65 30.1733 119.5 30.9413 119.202 31.656C118.903 32.36 118.487 32.9787 117.954 33.512C117.42 34.0347 116.791 34.4453 116.066 34.744C115.351 35.0427 114.578 35.192 113.746 35.192ZM113.714 32.904C114.386 32.904 114.972 32.7547 115.474 32.456C115.986 32.1573 116.38 31.7413 116.658 31.208C116.935 30.664 117.074 30.04 117.074 29.336C117.074 28.8027 116.994 28.3227 116.834 27.896C116.674 27.4587 116.444 27.0853 116.146 26.776C115.847 26.456 115.49 26.216 115.074 26.056C114.668 25.8853 114.215 25.8 113.714 25.8C113.042 25.8 112.45 25.9493 111.938 26.248C111.436 26.536 111.047 26.9467 110.77 27.48C110.492 28.0027 110.354 28.6213 110.354 29.336C110.354 29.8693 110.434 30.3547 110.594 30.792C110.754 31.2293 110.978 31.608 111.266 31.928C111.564 32.2373 111.922 32.4773 112.338 32.648C112.754 32.8187 113.212 32.904 113.714 32.904ZM123.164 30.344V28.488H125.548C126.05 28.488 126.434 28.36 126.7 28.104C126.978 27.848 127.116 27.5013 127.116 27.064C127.116 26.6587 126.983 26.3227 126.716 26.056C126.45 25.7893 126.066 25.656 125.564 25.656H123.164V23.704H125.852C126.599 23.704 127.255 23.848 127.82 24.136C128.386 24.4133 128.828 24.8027 129.148 25.304C129.468 25.8053 129.628 26.3813 129.628 27.032C129.628 27.6933 129.468 28.2747 129.148 28.776C128.828 29.2667 128.38 29.6507 127.804 29.928C127.228 30.2053 126.551 30.344 125.772 30.344H123.164ZM121.244 35V23.704H123.756V35H121.244ZM127.388 35L123.868 30.136L126.172 29.512L130.364 35H127.388ZM131.463 35V23.704H133.975V35H131.463ZM133.383 35V32.824H139.575V35H133.383ZM133.383 30.28V28.184H139.015V30.28H133.383ZM133.383 25.864V23.704H139.495V25.864H133.383Z" fill="#FEFEFE"/>
<path d="M57.256 19H56.256V20H57.256V19ZM57.256 17.536V16.536H56.256V17.536H57.256ZM60.112 17.212L60.8323 17.9056H60.8323L60.112 17.212ZM59.872 15.448L59.3759 16.3162L59.3845 16.3212L59.3931 16.3259L59.872 15.448ZM57.256 15.304H56.256V16.304H57.256V15.304ZM57.256 13.876V12.876H56.256V13.876H57.256ZM59.848 13.648L60.4687 14.432L60.4785 14.4243L60.4882 14.4162L59.848 13.648ZM59.848 12.232L59.2078 13.0002L59.2175 13.0083L59.2273 13.016L59.848 12.232ZM57.256 11.992H56.256V12.992H57.256V11.992ZM57.256 10.528V9.528H56.256V10.528H57.256ZM60.832 10.828L60.3624 11.7109L60.3701 11.7149L60.832 10.828ZM61.708 11.632L60.8487 12.1435L60.8487 12.1435L61.708 11.632ZM61.504 14.068L62.2351 14.7503L62.2351 14.7503L61.504 14.068ZM60.016 14.812L59.0188 14.7367L58.9189 16.0607L60.219 15.7912L60.016 14.812ZM60.064 14.176L60.2516 13.1938L59.1512 12.9836L59.0668 14.1007L60.064 14.176ZM61.708 15.004L60.9732 15.6823L60.9802 15.6898L61.708 15.004ZM61.948 17.8L61.0969 17.2749L61.0938 17.2801L61.948 17.8ZM60.964 18.676L60.5168 17.7815L60.5101 17.785L60.964 18.676ZM55.816 19H54.816V20H55.816V19ZM55.816 10.528V9.528H54.816V10.528H55.816ZM57.676 10.528H58.676V9.528H57.676V10.528ZM57.676 19V20H58.676V19H57.676ZM57.256 19H58.256V17.536H57.256H56.256V19H57.256ZM57.256 17.536V18.536H59.248V17.536V16.536H57.256V17.536ZM59.248 17.536V18.536C59.8218 18.536 60.3945 18.3603 60.8323 17.9056L60.112 17.212L59.3917 16.5184C59.3913 16.5188 59.3923 16.5177 59.3941 16.5165C59.3958 16.5154 59.3948 16.5164 59.3889 16.5187C59.3768 16.5232 59.335 16.536 59.248 16.536V17.536ZM60.112 17.212L60.8323 17.9056C61.2276 17.4951 61.424 16.9791 61.424 16.42H60.424H59.424C59.424 16.4631 59.4172 16.4813 59.4156 16.4855C59.4142 16.4889 59.4102 16.4992 59.3917 16.5184L60.112 17.212ZM60.424 16.42H61.424C61.424 16.0507 61.3403 15.684 61.1482 15.3479L60.28 15.844L59.4118 16.3401C59.4133 16.3429 59.4155 16.3473 59.4179 16.3565C59.4203 16.3664 59.424 16.3864 59.424 16.42H60.424ZM60.28 15.844L61.1482 15.3479C60.9569 15.013 60.6833 14.7515 60.3509 14.5701L59.872 15.448L59.3931 16.3259C59.4 16.3296 59.4043 16.3325 59.4065 16.3341C59.4087 16.3357 59.4095 16.3366 59.4095 16.3366C59.4096 16.3366 59.4095 16.3366 59.4095 16.3365C59.4094 16.3364 59.4094 16.3364 59.4094 16.3365C59.4095 16.3366 59.4103 16.3376 59.4118 16.3401L60.28 15.844ZM59.872 15.448L60.3681 14.5798C60.0122 14.3764 59.622 14.304 59.248 14.304V15.304V16.304C59.37 16.304 59.3958 16.3276 59.3759 16.3162L59.872 15.448ZM59.248 15.304V14.304H57.256V15.304V16.304H59.248V15.304ZM57.256 15.304H58.256V13.876H57.256H56.256V15.304H57.256ZM57.256 13.876V14.876H59.092V13.876V12.876H57.256V13.876ZM59.092 13.876V14.876C59.5666 14.876 60.0565 14.7584 60.4687 14.432L59.848 13.648L59.2273 12.864C59.2372 12.8561 59.2408 12.8572 59.2263 12.8616C59.2094 12.8667 59.1678 12.876 59.092 12.876V13.876ZM59.848 13.648L60.4882 14.4162C60.9692 14.0154 61.136 13.4549 61.136 12.928H60.136H59.136C59.136 12.9901 59.1265 12.9992 59.1355 12.9766C59.1402 12.9648 59.1487 12.9478 59.1625 12.9287C59.1763 12.9095 59.1921 12.8929 59.2078 12.8798L59.848 13.648ZM60.136 12.928H61.136C61.136 12.4018 60.9638 11.8399 60.4687 11.448L59.848 12.232L59.2273 13.016C59.2092 13.0018 59.1907 12.9832 59.174 12.961C59.1574 12.9389 59.1466 12.9182 59.14 12.9024C59.1272 12.8716 59.136 12.8724 59.136 12.928H60.136ZM59.848 12.232L60.4882 11.4638C60.0753 11.1197 59.5781 10.992 59.092 10.992V11.992V12.992C59.1633 12.992 59.2001 13.0012 59.2124 13.0051C59.2222 13.0082 59.217 13.0079 59.2078 13.0002L59.848 12.232ZM59.092 11.992V10.992H57.256V11.992V12.992H59.092V11.992ZM57.256 11.992H58.256V10.528H57.256H56.256V11.992H57.256ZM57.256 10.528V11.528H59.452V10.528V9.528H57.256V10.528ZM59.452 10.528V11.528C59.8765 11.528 60.1656 11.6062 60.3624 11.7109L60.832 10.828L61.3016 9.94513C60.7464 9.64982 60.1155 9.528 59.452 9.528V10.528ZM60.832 10.828L60.3701 11.7149C60.6075 11.8386 60.7537 11.9839 60.8487 12.1435L61.708 11.632L62.5673 11.1205C62.2623 10.6081 61.8245 10.2174 61.2939 9.94109L60.832 10.828ZM61.708 11.632L60.8487 12.1435C60.9525 12.3179 61.008 12.5119 61.008 12.748H62.008H63.008C63.008 12.1681 62.8635 11.6181 62.5673 11.1205L61.708 11.632ZM62.008 12.748H61.008C61.008 13.0303 60.9258 13.2219 60.7729 13.3857L61.504 14.068L62.2351 14.7503C62.7542 14.1941 63.008 13.5057 63.008 12.748H62.008ZM61.504 14.068L60.7729 13.3857C60.6208 13.5487 60.338 13.724 59.813 13.8328L60.016 14.812L60.219 15.7912C61.006 15.628 61.7152 15.3073 62.2351 14.7503L61.504 14.068ZM60.016 14.812L61.0132 14.8873L61.0612 14.2513L60.064 14.176L59.0668 14.1007L59.0188 14.7367L60.016 14.812ZM60.064 14.176L59.8764 15.1582C60.4374 15.2654 60.7705 15.4627 60.9732 15.6823L61.708 15.004L62.4428 14.3257C61.8775 13.7133 61.1146 13.3586 60.2516 13.1938L60.064 14.176ZM61.708 15.004L60.9802 15.6898C61.1855 15.9077 61.296 16.1691 61.296 16.54H62.296H63.296C63.296 15.6949 63.0145 14.9323 62.4358 14.3182L61.708 15.004ZM62.296 16.54H61.296C61.296 16.8283 61.2266 17.0648 61.097 17.2749L61.948 17.8L62.799 18.3251C63.1334 17.7832 63.296 17.1797 63.296 16.54H62.296ZM61.948 17.8L61.0938 17.2801C60.9791 17.4685 60.8016 17.6392 60.5168 17.7816L60.964 18.676L61.4112 19.5704C61.9904 19.2808 62.4689 18.8675 62.8022 18.3199L61.948 17.8ZM60.964 18.676L60.5101 17.785C60.2585 17.9131 59.9104 18 59.428 18V19V20C60.1456 20 60.8215 19.8709 61.4179 19.567L60.964 18.676ZM59.428 19V18H57.256V19V20H59.428V19ZM55.816 19H56.816V10.528H55.816H54.816V19H55.816ZM55.816 10.528V11.528H57.676V10.528V9.528H55.816V10.528ZM57.676 10.528H56.676V19H57.676H58.676V10.528H57.676ZM57.676 19V18H55.816V19V20H57.676V19ZM64.3315 18.724L63.7957 19.5684L63.8029 19.5729L64.3315 18.724ZM63.3355 17.644L62.4505 18.1098L62.457 18.1218L63.3355 17.644ZM63.3355 14.524L62.4569 14.0462L62.4506 14.0583L63.3355 14.524ZM64.3315 13.444L63.8029 12.5951L63.7957 12.5997L64.3315 13.444ZM66.8275 13.276L66.3895 14.175L66.3984 14.1793L66.8275 13.276ZM67.6075 13.912L66.8018 14.5044L66.8061 14.5102L66.8104 14.5159L67.6075 13.912ZM67.9435 14.824H68.9435V14.7892L68.9411 14.7544L67.9435 14.824ZM67.9435 17.344L68.9411 17.4136L68.9435 17.3788V17.344H67.9435ZM67.6075 18.268L66.8018 17.6756L66.7988 17.6798L67.6075 18.268ZM66.8395 18.892L66.4104 17.9887L66.8395 18.892ZM67.0915 17.08L67.821 17.7639L67.8263 17.7583L67.8314 17.7527L67.0915 17.08ZM67.2835 15.364L66.3891 15.8112L66.3958 15.8248L66.403 15.8381L67.2835 15.364ZM66.8275 14.884L66.2975 15.732L66.3179 15.7448L66.3389 15.7565L66.8275 14.884ZM65.4715 14.884L65.9754 15.7478L65.986 15.7415L65.4715 14.884ZM65.0035 15.364L64.1373 14.8643L64.13 14.877L64.123 14.8899L65.0035 15.364ZM65.0035 16.792L64.123 17.2661V17.2661L65.0035 16.792ZM67.3795 19H66.3795V20H67.3795V19ZM67.3795 17.428L66.398 17.2367L66.3795 17.3315V17.428H67.3795ZM67.6555 16.012L68.637 16.2033L68.6743 16.012L68.637 15.8207L67.6555 16.012ZM67.3795 14.596H66.3795V14.6925L66.398 14.7873L67.3795 14.596ZM67.3795 13.168V12.168H66.3795V13.168H67.3795ZM69.1795 13.168H70.1795V12.168H69.1795V13.168ZM69.1795 19V20H70.1795V19H69.1795ZM65.7715 19.12V18.12C65.4081 18.12 65.1138 18.0331 64.8601 17.8751L64.3315 18.724L63.8029 19.5729C64.3972 19.9429 65.0629 20.12 65.7715 20.12V19.12ZM64.3315 18.724L64.8673 17.8797C64.6026 17.7117 64.3853 17.4812 64.214 17.1662L63.3355 17.644L62.457 18.1218C62.7817 18.7188 63.2284 19.2083 63.7957 19.5683L64.3315 18.724ZM63.3355 17.644L64.2204 17.1783C64.0656 16.884 63.9755 16.5276 63.9755 16.084H62.9755H61.9755C61.9755 16.8084 62.1254 17.492 62.4506 18.1097L63.3355 17.644ZM62.9755 16.084H63.9755C63.9755 15.6404 64.0656 15.284 64.2204 14.9897L63.3355 14.524L62.4506 14.0583C62.1254 14.676 61.9755 15.3596 61.9755 16.084H62.9755ZM63.3355 14.524L64.214 15.0018C64.3853 14.6868 64.6026 14.4563 64.8673 14.2883L64.3315 13.444L63.7957 12.5997C63.2284 12.9597 62.7817 13.4492 62.457 14.0462L63.3355 14.524ZM64.3315 13.444L64.8601 14.2929C65.1138 14.1349 65.4081 14.048 65.7715 14.048V13.048V12.048C65.0629 12.048 64.3972 12.2251 63.8029 12.5951L64.3315 13.444ZM65.7715 13.048V14.048C66.0315 14.048 66.2307 14.0976 66.3895 14.175L66.8275 13.276L67.2655 12.377C66.8003 12.1504 66.2955 12.048 65.7715 12.048V13.048ZM66.8275 13.276L66.3984 14.1793C66.5768 14.264 66.7046 14.3722 66.8018 14.5044L67.6075 13.912L68.4132 13.3196C68.1104 12.9078 67.7182 12.592 67.2566 12.3727L66.8275 13.276ZM67.6075 13.912L66.8104 14.5159C66.8881 14.6184 66.9349 14.735 66.9459 14.8936L67.9435 14.824L68.9411 14.7544C68.9041 14.225 68.7269 13.7336 68.4046 13.3081L67.6075 13.912ZM67.9435 14.824H66.9435V17.344H67.9435H68.9435V14.824H67.9435ZM67.9435 17.344L66.9459 17.2744C66.9348 17.4338 66.8872 17.5596 66.8018 17.6756L67.6075 18.268L68.4132 18.8604C68.7278 18.4324 68.9042 17.9422 68.9411 17.4136L67.9435 17.344ZM67.6075 18.268L66.7988 17.6798C66.7133 17.7974 66.5927 17.9021 66.4104 17.9887L66.8395 18.892L67.2686 19.7953C67.7263 19.5779 68.1177 19.2666 68.4162 18.8562L67.6075 18.268ZM66.8395 18.892L66.4104 17.9887C66.2382 18.0705 66.031 18.12 65.7715 18.12V19.12V20.12C66.296 20.12 66.8008 20.0175 67.2686 19.7953L66.8395 18.892ZM66.1435 17.464V18.464C66.7761 18.464 67.3688 18.2463 67.821 17.7639L67.0915 17.08L66.362 16.3961C66.3342 16.4257 66.2949 16.464 66.1435 16.464V17.464ZM67.0915 17.08L67.8314 17.7527C68.2594 17.2819 68.4515 16.7003 68.4515 16.084H67.4515H66.4515C66.4515 16.2677 66.4036 16.3501 66.3516 16.4073L67.0915 17.08ZM67.4515 16.084H68.4515C68.4515 15.6718 68.3656 15.2643 68.164 14.8899L67.2835 15.364L66.403 15.8381C66.4254 15.8797 66.4515 15.9522 66.4515 16.084H67.4515ZM67.2835 15.364L68.1779 14.9168C67.9857 14.5323 67.6936 14.2229 67.3161 14.0115L66.8275 14.884L66.3389 15.7565C66.3614 15.7691 66.3733 15.7797 66.3891 15.8112L67.2835 15.364ZM66.8275 14.884L67.3575 14.036C66.9865 13.8041 66.5738 13.704 66.1555 13.704V14.704V15.704C66.2492 15.704 66.2845 15.7239 66.2975 15.732L66.8275 14.884ZM66.1555 14.704V13.704C65.7365 13.704 65.3274 13.8043 64.957 14.0265L65.4715 14.884L65.986 15.7415C66.0156 15.7237 66.0625 15.704 66.1555 15.704V14.704ZM65.4715 14.884L64.9676 14.0202C64.6132 14.227 64.3371 14.5179 64.1373 14.8643L65.0035 15.364L65.8697 15.8637C65.9099 15.7941 65.9458 15.765 65.9754 15.7478L65.4715 14.884ZM65.0035 15.364L64.123 14.8899C63.9214 15.2643 63.8355 15.6718 63.8355 16.084H64.8355H65.8355C65.8355 15.9522 65.8616 15.8797 65.884 15.8381L65.0035 15.364ZM64.8355 16.084H63.8355C63.8355 16.4937 63.9237 16.8959 64.123 17.2661L65.0035 16.792L65.884 16.3179C65.8593 16.2721 65.8355 16.2023 65.8355 16.084H64.8355ZM65.0035 16.792L64.123 17.2661C64.3192 17.6303 64.6007 17.9277 64.957 18.1415L65.4715 17.284L65.986 16.4265C65.9423 16.4003 65.9118 16.3697 65.884 16.3179L65.0035 16.792ZM65.4715 17.284L64.957 18.1415C65.3223 18.3607 65.7262 18.464 66.1435 18.464V17.464V16.464C66.0648 16.464 66.0207 16.4473 65.986 16.4265L65.4715 17.284ZM67.3795 19H68.3795V17.428H67.3795H66.3795V19H67.3795ZM67.3795 17.428L68.361 17.6193L68.637 16.2033L67.6555 16.012L66.674 15.8207L66.398 17.2367L67.3795 17.428ZM67.6555 16.012L68.637 15.8207L68.361 14.4047L67.3795 14.596L66.398 14.7873L66.674 16.2033L67.6555 16.012ZM67.3795 14.596H68.3795V13.168H67.3795H66.3795V14.596H67.3795ZM67.3795 13.168V14.168H69.1795V13.168V12.168H67.3795V13.168ZM69.1795 13.168H68.1795V19H69.1795H70.1795V13.168H69.1795ZM69.1795 19V18H67.3795V19V20H69.1795V19ZM70.4722 19H69.4722V20H70.4722V19ZM70.4722 13.168V12.168H69.4722V13.168H70.4722ZM72.3082 13.168H73.3082V12.168H72.3082V13.168ZM72.3082 19V20H73.3082V19H72.3082ZM70.6762 12.076L69.9403 12.7531L69.9544 12.7684L69.9691 12.7831L70.6762 12.076ZM70.6762 10.636L69.9691 9.92889L69.9616 9.93641L69.9542 9.94409L70.6762 10.636ZM72.1042 12.076L72.8262 12.7679L72.8333 12.7606L72.8402 12.7531L72.1042 12.076ZM70.4722 19H71.4722V13.168H70.4722H69.4722V19H70.4722ZM70.4722 13.168V14.168H72.3082V13.168V12.168H70.4722V13.168ZM72.3082 13.168H71.3082V19H72.3082H73.3082V13.168H72.3082ZM72.3082 19V18H70.4722V19V20H72.3082V19ZM71.3962 12.364V11.364C71.3799 11.364 71.371 11.3626 71.3681 11.3621C71.3655 11.3616 71.3671 11.3617 71.3716 11.3635C71.3762 11.3653 71.3806 11.3677 71.3839 11.3699C71.3872 11.3721 71.3869 11.3725 71.3833 11.3689L70.6762 12.076L69.9691 12.7831C70.3609 13.1749 70.8609 13.364 71.3962 13.364V12.364ZM70.6762 12.076L71.4121 11.3989C71.4057 11.3919 71.4031 11.3879 71.4026 11.3871C71.4022 11.3864 71.4025 11.387 71.403 11.3881C71.4034 11.3891 71.4029 11.3883 71.4022 11.3843C71.4014 11.3801 71.4002 11.3711 71.4002 11.356H70.4002H69.4002C69.4002 11.8784 69.5809 12.3624 69.9403 12.7531L70.6762 12.076ZM70.4002 11.356H71.4002C71.4002 11.3373 71.4017 11.3259 71.4026 11.3207C71.4035 11.3156 71.404 11.3151 71.403 11.3179C71.4019 11.3208 71.4001 11.3243 71.3982 11.3274C71.3962 11.3304 71.3957 11.3306 71.3982 11.3279L70.6762 10.636L69.9542 9.94409C69.5762 10.3385 69.4002 10.8336 69.4002 11.356H70.4002ZM70.6762 10.636L71.3833 11.3431C71.3869 11.3395 71.3872 11.3399 71.3839 11.3421C71.3806 11.3443 71.3762 11.3467 71.3716 11.3485C71.3671 11.3503 71.3655 11.3503 71.3681 11.3499C71.371 11.3494 71.3799 11.348 71.3962 11.348V10.348V9.348C70.8609 9.348 70.3609 9.5371 69.9691 9.92889L70.6762 10.636ZM71.3962 10.348V11.348C71.4126 11.348 71.4208 11.3494 71.4223 11.3496C71.4235 11.3499 71.4196 11.3492 71.4124 11.3463C71.4051 11.3433 71.3976 11.3393 71.3909 11.3347C71.3844 11.3303 71.3816 11.3272 71.3822 11.3279L72.1042 10.636L72.8262 9.94409C72.4369 9.53785 71.9317 9.348 71.3962 9.348V10.348ZM72.1042 10.636L71.3822 11.3279C71.3848 11.3306 71.3842 11.3304 71.3823 11.3274C71.3803 11.3243 71.3786 11.3208 71.3775 11.3179C71.3764 11.3151 71.3769 11.3156 71.3778 11.3207C71.3787 11.3259 71.3802 11.3373 71.3802 11.356H72.3802H73.3802C73.3802 10.8336 73.2042 10.3385 72.8262 9.94409L72.1042 10.636ZM72.3802 11.356H71.3802C71.3802 11.3711 71.379 11.3801 71.3783 11.3843C71.3776 11.3883 71.3771 11.3891 71.3775 11.3881C71.3779 11.387 71.3783 11.3864 71.3778 11.3871C71.3773 11.3879 71.3748 11.3919 71.3683 11.3989L72.1042 12.076L72.8402 12.7531C73.1996 12.3624 73.3802 11.8784 73.3802 11.356H72.3802ZM72.1042 12.076L71.3822 11.3841C71.3816 11.3848 71.3844 11.3817 71.3909 11.3773C71.3976 11.3727 71.4051 11.3687 71.4124 11.3657C71.4196 11.3628 71.4235 11.3621 71.4223 11.3624C71.4208 11.3626 71.4126 11.364 71.3962 11.364V12.364V13.364C71.9317 13.364 72.4369 13.1742 72.8262 12.7679L72.1042 12.076ZM77.2131 19L76.3629 19.5264L76.6561 20H77.2131V19ZM75.8091 16.732L76.6594 16.2056L76.539 16.0111L76.346 15.8883L75.8091 16.732ZM75.4131 16.48L74.5908 17.0491L74.7058 17.2152L74.8762 17.3237L75.4131 16.48ZM73.1211 13.168V12.168H71.213L72.2988 13.7371L73.1211 13.168ZM75.2691 13.168L76.1206 12.6436L75.8277 12.168H75.2691V13.168ZM76.5771 15.292L75.7256 15.8164L75.8485 16.0158L76.0471 16.14L76.5771 15.292ZM76.9611 15.532L77.7861 14.9668L77.6681 14.7946L77.4911 14.684L76.9611 15.532ZM79.3371 19V20H81.2344L80.1621 18.4348L79.3371 19ZM73.0131 19L72.1951 18.4248L71.0875 20H73.0131V19ZM75.4011 15.604L76.149 14.9401L75.31 13.9951L74.5831 15.0288L75.4011 15.604ZM76.4451 16.78L77.2862 17.321L77.6964 16.6832L77.193 16.1161L76.4451 16.78ZM75.0171 19V20H75.5629L75.8582 19.541L75.0171 19ZM76.9491 16.468L76.2013 17.1319L77.0496 18.0874L77.7733 17.0344L76.9491 16.468ZM75.9051 15.292L75.0558 14.7642L74.6619 15.3979L75.1573 15.9559L75.9051 15.292ZM77.2251 13.168V12.168H76.6692L76.3758 12.6402L77.2251 13.168ZM79.2171 13.168L80.0413 13.7344L81.1178 12.168H79.2171V13.168ZM77.2131 19L78.0634 18.4736L76.6594 16.2056L75.8091 16.732L74.9589 17.2584L76.3629 19.5264L77.2131 19ZM75.8091 16.732L76.346 15.8883L75.95 15.6363L75.4131 16.48L74.8762 17.3237L75.2722 17.5757L75.8091 16.732ZM75.4131 16.48L76.2354 15.9109L73.9434 12.5989L73.1211 13.168L72.2988 13.7371L74.5908 17.0491L75.4131 16.48ZM73.1211 13.168V14.168H75.2691V13.168V12.168H73.1211V13.168ZM75.2691 13.168L74.4176 13.6924L75.7256 15.8164L76.5771 15.292L77.4286 14.7676L76.1206 12.6436L75.2691 13.168ZM76.5771 15.292L76.0471 16.14L76.4311 16.38L76.9611 15.532L77.4911 14.684L77.1071 14.444L76.5771 15.292ZM76.9611 15.532L76.1362 16.0972L78.5122 19.5652L79.3371 19L80.1621 18.4348L77.7861 14.9668L76.9611 15.532ZM79.3371 19V18H77.2131V19V20H79.3371V19ZM73.0131 19L73.8311 19.5752L76.2191 16.1792L75.4011 15.604L74.5831 15.0288L72.1951 18.4248L73.0131 19ZM75.4011 15.604L74.6533 16.2679L75.6973 17.4439L76.4451 16.78L77.193 16.1161L76.149 14.9401L75.4011 15.604ZM76.4451 16.78L75.6041 16.239L74.1761 18.459L75.0171 19L75.8582 19.541L77.2862 17.321L76.4451 16.78ZM75.0171 19V18H73.0131V19V20H75.0171V19ZM76.9491 16.468L77.697 15.8041L76.653 14.6281L75.9051 15.292L75.1573 15.9559L76.2013 17.1319L76.9491 16.468ZM75.9051 15.292L76.7545 15.8198L78.0745 13.6958L77.2251 13.168L76.3758 12.6402L75.0558 14.7642L75.9051 15.292ZM77.2251 13.168V14.168H79.2171V13.168V12.168H77.2251V13.168ZM79.2171 13.168L78.393 12.6016L76.125 15.9016L76.9491 16.468L77.7733 17.0344L80.0413 13.7344L79.2171 13.168ZM80.8784 18.724L80.3425 19.5684L80.3498 19.5729L80.8784 18.724ZM79.8824 17.644L78.9974 18.1098L79.0039 18.1218L79.8824 17.644ZM79.8824 14.524L79.0038 14.0462L78.9975 14.0583L79.8824 14.524ZM80.8784 13.444L80.3498 12.5951L80.3426 12.5997L80.8784 13.444ZM83.3744 13.276L82.9364 14.175L82.9453 14.1793L83.3744 13.276ZM84.1544 13.912L83.3487 14.5044L83.353 14.5102L83.3573 14.5159L84.1544 13.912ZM84.4904 14.824H85.4904V14.7892L85.4879 14.7544L84.4904 14.824ZM84.4904 17.344L85.4879 17.4136L85.4904 17.3788V17.344H84.4904ZM84.1544 18.268L83.3487 17.6756L83.3456 17.6798L84.1544 18.268ZM83.3864 18.892L82.9573 17.9887L83.3864 18.892ZM83.6384 17.08L84.3679 17.7639L84.3732 17.7583L84.3783 17.7527L83.6384 17.08ZM83.8304 15.364L82.9359 15.8112L82.9427 15.8248L82.9499 15.8381L83.8304 15.364ZM83.3744 14.884L82.8444 15.732L82.8648 15.7448L82.8858 15.7565L83.3744 14.884ZM82.0184 14.884L82.5223 15.7478L82.5329 15.7415L82.0184 14.884ZM81.5504 15.364L80.6842 14.8643L80.6769 14.877L80.6699 14.8899L81.5504 15.364ZM81.5504 16.792L80.6699 17.2661V17.2661L81.5504 16.792ZM83.9264 19H82.9264V20H83.9264V19ZM83.9264 17.428L82.9448 17.2367L82.9264 17.3315V17.428H83.9264ZM84.2024 16.012L85.1839 16.2033L85.2212 16.012L85.1839 15.8207L84.2024 16.012ZM83.9264 14.596H82.9264V14.6925L82.9448 14.7873L83.9264 14.596ZM83.9264 13.168V12.168H82.9264V13.168H83.9264ZM85.7264 13.168H86.7264V12.168H85.7264V13.168ZM85.7264 19V20H86.7264V19H85.7264ZM82.3184 19.12V18.12C81.955 18.12 81.6607 18.0331 81.4069 17.8751L80.8784 18.724L80.3498 19.5729C80.9441 19.9429 81.6098 20.12 82.3184 20.12V19.12ZM80.8784 18.724L81.4142 17.8797C81.1495 17.7117 80.9322 17.4812 80.7609 17.1662L79.8824 17.644L79.0039 18.1218C79.3286 18.7188 79.7753 19.2083 80.3426 19.5683L80.8784 18.724ZM79.8824 17.644L80.7673 17.1783C80.6124 16.884 80.5224 16.5276 80.5224 16.084H79.5224H78.5224C78.5224 16.8084 78.6723 17.492 78.9975 18.1097L79.8824 17.644ZM79.5224 16.084H80.5224C80.5224 15.6404 80.6124 15.284 80.7673 14.9897L79.8824 14.524L78.9975 14.0583C78.6723 14.676 78.5224 15.3596 78.5224 16.084H79.5224ZM79.8824 14.524L80.7609 15.0018C80.9322 14.6868 81.1495 14.4563 81.4142 14.2883L80.8784 13.444L80.3426 12.5997C79.7753 12.9597 79.3286 13.4492 79.0039 14.0462L79.8824 14.524ZM80.8784 13.444L81.4069 14.2929C81.6607 14.1349 81.955 14.048 82.3184 14.048V13.048V12.048C81.6098 12.048 80.9441 12.2251 80.3498 12.5951L80.8784 13.444ZM82.3184 13.048V14.048C82.5784 14.048 82.7776 14.0976 82.9364 14.175L83.3744 13.276L83.8123 12.377C83.3472 12.1504 82.8424 12.048 82.3184 12.048V13.048ZM83.3744 13.276L82.9453 14.1793C83.1236 14.264 83.2515 14.3722 83.3487 14.5044L84.1544 13.912L84.96 13.3196C84.6572 12.9078 84.2651 12.592 83.8034 12.3727L83.3744 13.276ZM84.1544 13.912L83.3573 14.5159C83.435 14.6184 83.4817 14.735 83.4928 14.8936L84.4904 14.824L85.4879 14.7544C85.451 14.225 85.2738 13.7336 84.9515 13.3081L84.1544 13.912ZM84.4904 14.824H83.4904V17.344H84.4904H85.4904V14.824H84.4904ZM84.4904 17.344L83.4928 17.2744C83.4817 17.4338 83.434 17.5596 83.3487 17.6756L84.1544 18.268L84.96 18.8604C85.2747 18.4324 85.4511 17.9422 85.4879 17.4136L84.4904 17.344ZM84.1544 18.268L83.3456 17.6798C83.2601 17.7974 83.1396 17.9021 82.9573 17.9887L83.3864 18.892L83.8154 19.7953C84.2731 19.5779 84.6646 19.2666 84.9631 18.8562L84.1544 18.268ZM83.3864 18.892L82.9573 17.9887C82.7851 18.0705 82.5779 18.12 82.3184 18.12V19.12V20.12C82.8428 20.12 83.3476 20.0175 83.8154 19.7953L83.3864 18.892ZM82.6904 17.464V18.464C83.323 18.464 83.9157 18.2463 84.3679 17.7639L83.6384 17.08L82.9088 16.3961C82.881 16.4257 82.8417 16.464 82.6904 16.464V17.464ZM83.6384 17.08L84.3783 17.7527C84.8063 17.2819 84.9984 16.7003 84.9984 16.084H83.9984H82.9984C82.9984 16.2677 82.9505 16.3501 82.8984 16.4073L83.6384 17.08ZM83.9984 16.084H84.9984C84.9984 15.6718 84.9125 15.2643 84.7108 14.8899L83.8304 15.364L82.9499 15.8381C82.9723 15.8797 82.9984 15.9522 82.9984 16.084H83.9984ZM83.8304 15.364L84.7248 14.9168C84.5326 14.5323 84.2405 14.2229 83.863 14.0115L83.3744 14.884L82.8858 15.7565C82.9083 15.7691 82.9202 15.7797 82.9359 15.8112L83.8304 15.364ZM83.3744 14.884L83.9044 14.036C83.5334 13.8041 83.1207 13.704 82.7024 13.704V14.704V15.704C82.7961 15.704 82.8314 15.7239 82.8444 15.732L83.3744 14.884ZM82.7024 14.704V13.704C82.2834 13.704 81.8742 13.8043 81.5039 14.0265L82.0184 14.884L82.5329 15.7415C82.5625 15.7237 82.6094 15.704 82.7024 15.704V14.704ZM82.0184 14.884L81.5145 14.0202C81.1601 14.227 80.884 14.5179 80.6842 14.8643L81.5504 15.364L82.4166 15.8637C82.4568 15.7941 82.4926 15.765 82.5222 15.7478L82.0184 14.884ZM81.5504 15.364L80.6699 14.8899C80.4683 15.2643 80.3824 15.6718 80.3824 16.084H81.3824H82.3824C82.3824 15.9522 82.4085 15.8797 82.4308 15.8381L81.5504 15.364ZM81.3824 16.084H80.3824C80.3824 16.4937 80.4706 16.8959 80.6699 17.2661L81.5504 16.792L82.4308 16.3179C82.4062 16.2721 82.3824 16.2023 82.3824 16.084H81.3824ZM81.5504 16.792L80.6699 17.2661C80.866 17.6303 81.1475 17.9277 81.5039 18.1415L82.0184 17.284L82.5329 16.4265C82.4892 16.4003 82.4587 16.3697 82.4308 16.3179L81.5504 16.792ZM82.0184 17.284L81.5039 18.1415C81.8692 18.3607 82.2731 18.464 82.6904 18.464V17.464V16.464C82.6117 16.464 82.5675 16.4473 82.5329 16.4265L82.0184 17.284ZM83.9264 19H84.9264V17.428H83.9264H82.9264V19H83.9264ZM83.9264 17.428L84.9079 17.6193L85.1839 16.2033L84.2024 16.012L83.2208 15.8207L82.9448 17.2367L83.9264 17.428ZM84.2024 16.012L85.1839 15.8207L84.9079 14.4047L83.9264 14.596L82.9448 14.7873L83.2208 16.2033L84.2024 16.012ZM83.9264 14.596H84.9264V13.168H83.9264H82.9264V14.596H83.9264ZM83.9264 13.168V14.168H85.7264V13.168V12.168H83.9264V13.168ZM85.7264 13.168H84.7264V19H85.7264H86.7264V13.168H85.7264ZM85.7264 19V18H83.9264V19V20H85.7264V19ZM87.0191 19H86.0191V20H87.0191V19ZM87.0191 13.168V12.168H86.0191V13.168H87.0191ZM88.8551 13.168H89.8551V12.168H88.8551V13.168ZM88.8551 19V20H89.8551V19H88.8551ZM88.8551 15.796L88.2394 16.584L89.8551 17.8462V15.796H88.8551ZM88.0871 15.196L87.1112 14.9779L86.9733 15.5948L87.4715 15.984L88.0871 15.196ZM88.8551 13.612L89.5774 14.3036L88.8551 13.612ZM91.0871 13.18L90.6975 14.101L90.7184 14.1098L90.7398 14.1177L91.0871 13.18ZM91.6511 13.564L92.4353 14.1845L92.9618 13.5192L92.391 12.8913L91.6511 13.564ZM90.5591 14.944L89.8192 15.6167L90.6119 16.4887L91.3433 15.5645L90.5591 14.944ZM90.2591 14.74L89.8877 15.6685V15.6685L90.2591 14.74ZM89.1191 14.956L88.3971 14.2641L88.3965 14.2648L89.1191 14.956ZM87.0191 19H88.0191V13.168H87.0191H86.0191V19H87.0191ZM87.0191 13.168V14.168H88.8551V13.168V12.168H87.0191V13.168ZM88.8551 13.168H87.8551V19H88.8551H89.8551V13.168H88.8551ZM88.8551 19V18H87.0191V19V20H88.8551V19ZM88.8551 15.796L89.4707 15.008L88.7027 14.408L88.0871 15.196L87.4715 15.984L88.2394 16.584L88.8551 15.796ZM88.0871 15.196L89.063 15.4141C89.1883 14.8537 89.3793 14.5104 89.5774 14.3036L88.8551 13.612L88.1328 12.9204C87.6109 13.4656 87.2899 14.1783 87.1112 14.9779L88.0871 15.196ZM88.8551 13.612L89.5774 14.3036C89.707 14.1682 89.9209 14.048 90.3551 14.048V13.048V12.048C89.5093 12.048 88.7232 12.3038 88.1328 12.9204L88.8551 13.612ZM90.3551 13.048V14.048C90.5323 14.048 90.6385 14.076 90.6975 14.101L91.0871 13.18L91.4767 12.259C91.1197 12.108 90.7378 12.048 90.3551 12.048V13.048ZM91.0871 13.18L90.7398 14.1177C90.8006 14.1403 90.8553 14.1752 90.9112 14.2367L91.6511 13.564L92.391 12.8913C92.1269 12.6008 91.8056 12.3797 91.4344 12.2423L91.0871 13.18ZM91.6511 13.564L90.8669 12.9435L89.7749 14.3235L90.5591 14.944L91.3433 15.5645L92.4353 14.1845L91.6511 13.564ZM90.5591 14.944L91.299 14.2713C91.1085 14.0618 90.8787 13.9108 90.6305 13.8115L90.2591 14.74L89.8877 15.6685C89.8852 15.6675 89.8755 15.6633 89.8618 15.6539C89.8478 15.6444 89.833 15.6319 89.8192 15.6167L90.5591 14.944ZM90.2591 14.74L90.6305 13.8115C90.3735 13.7087 90.1083 13.668 89.8511 13.668V14.668V15.668C89.8979 15.668 89.9047 15.6753 89.8877 15.6685L90.2591 14.74ZM89.8511 14.668V13.668C89.3172 13.668 88.7973 13.8465 88.3971 14.2641L89.1191 14.956L89.8411 15.6479C89.8391 15.6499 89.8343 15.6545 89.8266 15.6597C89.8189 15.6648 89.8116 15.6684 89.8062 15.6706C89.801 15.6726 89.8006 15.6721 89.8069 15.671C89.8134 15.6699 89.8277 15.668 89.8511 15.668V14.668ZM89.1191 14.956L88.3965 14.2648C87.9733 14.7071 87.8551 15.2837 87.8551 15.796H88.8551H89.8551C89.8551 15.6826 89.8688 15.624 89.8751 15.6038C89.8801 15.5879 89.875 15.6125 89.8417 15.6472L89.1191 14.956ZM98.4883 19H97.4883V20H98.4883V19ZM98.2003 14.944L97.4783 15.6359L97.493 15.6513L97.5084 15.666L98.2003 14.944ZM96.9643 14.788L97.43 15.6729L97.4479 15.6635L97.4653 15.6534L96.9643 14.788ZM96.6043 15.148L97.4697 15.649L97.4752 15.6395L97.4805 15.6299L96.6043 15.148ZM96.4723 15.676L96.0312 16.5734L97.4723 17.2818V15.676H96.4723ZM95.7643 15.328H94.7643V15.9507L95.3232 16.2254L95.7643 15.328ZM96.8923 13.336L97.3556 14.2223L97.3629 14.2184L96.8923 13.336ZM99.2443 13.36L98.7087 14.2045L98.7207 14.2121L98.7328 14.2193L99.2443 13.36ZM100.324 19V20H101.324V19H100.324ZM94.6363 19H93.6363V20H94.6363V19ZM94.6363 13.168V12.168H93.6363V13.168H94.6363ZM96.4723 13.168H97.4723V12.168H96.4723V13.168ZM96.4723 19V20H97.4723V19H96.4723ZM98.4883 19H99.4883V15.676H98.4883H97.4883V19H98.4883ZM98.4883 15.676H99.4883C99.4883 15.1421 99.3098 14.6222 98.8922 14.222L98.2003 14.944L97.5084 15.666C97.5063 15.664 97.5018 15.6592 97.4966 15.6515C97.4914 15.6438 97.4878 15.6365 97.4857 15.6311C97.4837 15.6259 97.4842 15.6255 97.4853 15.6318C97.4864 15.6384 97.4883 15.6526 97.4883 15.676H98.4883ZM98.2003 14.944L98.9223 14.2521C98.5329 13.8458 98.0277 13.656 97.4923 13.656V14.656V15.656C97.5087 15.656 97.5169 15.6574 97.5183 15.6576C97.5196 15.6579 97.5157 15.6572 97.5085 15.6543C97.5012 15.6513 97.4936 15.6473 97.487 15.6427C97.4805 15.6383 97.4777 15.6352 97.4783 15.6359L98.2003 14.944ZM97.4923 14.656V13.656C97.1412 13.656 96.7876 13.7348 96.4632 13.9226L96.9643 14.788L97.4653 15.6534C97.462 15.6553 97.4588 15.6569 97.4561 15.6579C97.4534 15.659 97.4522 15.6593 97.4528 15.6591C97.4539 15.6589 97.4658 15.656 97.4923 15.656V14.656ZM96.9643 14.788L96.4985 13.9031C96.1621 14.0802 95.9042 14.3458 95.7281 14.6661L96.6043 15.148L97.4805 15.6299C97.4825 15.6263 97.479 15.6335 97.4674 15.6451C97.4555 15.657 97.4419 15.6667 97.43 15.6729L96.9643 14.788ZM96.6043 15.148L95.7389 14.647C95.551 14.9714 95.4723 15.3249 95.4723 15.676H96.4723H97.4723C97.4723 15.6495 97.4752 15.6376 97.4754 15.6365C97.4756 15.6359 97.4753 15.6372 97.4742 15.6398C97.4731 15.6425 97.4716 15.6457 97.4697 15.649L96.6043 15.148ZM96.4723 15.676L96.9134 14.7786L96.2054 14.4306L95.7643 15.328L95.3232 16.2254L96.0312 16.5734L96.4723 15.676ZM95.7643 15.328H96.7643C96.7643 15.0224 96.8298 14.8008 96.9288 14.6306L96.0643 14.128L95.1998 13.6254C94.8987 14.1432 94.7643 14.7216 94.7643 15.328H95.7643ZM96.0643 14.128L96.9288 14.6306C97.0341 14.4495 97.1711 14.3186 97.3555 14.2222L96.8923 13.336L96.429 12.4498C95.9094 12.7214 95.4945 13.1185 95.1998 13.6254L96.0643 14.128ZM96.8923 13.336L97.3629 14.2184C97.5642 14.111 97.804 14.048 98.1043 14.048V13.048V12.048C97.5086 12.048 96.9404 12.177 96.4217 12.4536L96.8923 13.336ZM98.1043 13.048V14.048C98.3686 14.048 98.5585 14.1092 98.7087 14.2045L99.2443 13.36L99.7798 12.5155C99.2741 12.1948 98.7039 12.048 98.1043 12.048V13.048ZM99.2443 13.36L98.7328 14.2193C98.9222 14.332 99.0626 14.4756 99.168 14.6601L100.036 14.164L100.905 13.6679C100.626 13.1804 100.238 12.788 99.7558 12.5007L99.2443 13.36ZM100.036 14.164L99.168 14.6601C99.2707 14.8398 99.3243 15.0359 99.3243 15.268H100.324H101.324C101.324 14.7001 101.186 14.1602 100.905 13.6679L100.036 14.164ZM100.324 15.268H99.3243V19H100.324H101.324V15.268H100.324ZM100.324 19V18H98.4883V19V20H100.324V19ZM94.6363 19H95.6363V13.168H94.6363H93.6363V19H94.6363ZM94.6363 13.168V14.168H96.4723V13.168V12.168H94.6363V13.168ZM96.4723 13.168H95.4723V19H96.4723H97.4723V13.168H96.4723ZM96.4723 19V18H94.6363V19V20H96.4723V19ZM102.499 18.724L101.964 19.5684L101.971 19.5729L102.499 18.724ZM101.503 17.644L100.618 18.1098L100.625 18.1218L101.503 17.644ZM101.503 14.524L100.625 14.0462L100.619 14.0583L101.503 14.524ZM102.499 13.444L101.971 12.5951L101.964 12.5997L102.499 13.444ZM104.995 13.276L104.557 14.175L104.566 14.1793L104.995 13.276ZM105.775 13.912L104.97 14.5044L104.974 14.5102L104.978 14.5159L105.775 13.912ZM106.111 14.824H107.111V14.7892L107.109 14.7544L106.111 14.824ZM106.111 17.344L107.109 17.4136L107.111 17.3788V17.344H106.111ZM105.775 18.268L104.97 17.6756L104.967 17.6798L105.775 18.268ZM105.007 18.892L104.578 17.9887L105.007 18.892ZM105.259 17.08L105.989 17.7639L105.994 17.7583L105.999 17.7527L105.259 17.08ZM105.451 15.364L104.557 15.8112L104.564 15.8248L104.571 15.8381L105.451 15.364ZM104.995 14.884L104.465 15.732L104.486 15.7448L104.507 15.7565L104.995 14.884ZM103.639 14.884L104.143 15.7478L104.154 15.7415L103.639 14.884ZM103.171 15.364L102.305 14.8643L102.298 14.877L102.291 14.8899L103.171 15.364ZM103.171 16.792L102.291 17.2661V17.2661L103.171 16.792ZM105.547 19H104.547V20H105.547V19ZM105.547 17.428L104.566 17.2367L104.547 17.3315V17.428H105.547ZM105.823 16.012L106.805 16.2033L106.842 16.012L106.805 15.8207L105.823 16.012ZM105.547 14.596H104.547V14.6925L104.566 14.7873L105.547 14.596ZM105.547 13.168V12.168H104.547V13.168H105.547ZM107.347 13.168H108.347V12.168H107.347V13.168ZM107.347 19V20H108.347V19H107.347ZM103.939 19.12V18.12C103.576 18.12 103.282 18.0331 103.028 17.8751L102.499 18.724L101.971 19.5729C102.565 19.9429 103.231 20.12 103.939 20.12V19.12ZM102.499 18.724L103.035 17.8797C102.771 17.7117 102.553 17.4812 102.382 17.1662L101.503 17.644L100.625 18.1218C100.95 18.7188 101.396 19.2083 101.964 19.5683L102.499 18.724ZM101.503 17.644L102.388 17.1783C102.234 16.884 102.143 16.5276 102.143 16.084H101.143H100.143C100.143 16.8084 100.293 17.492 100.619 18.1097L101.503 17.644ZM101.143 16.084H102.143C102.143 15.6404 102.234 15.284 102.388 14.9897L101.503 14.524L100.619 14.0583C100.293 14.676 100.143 15.3596 100.143 16.084H101.143ZM101.503 14.524L102.382 15.0018C102.553 14.6868 102.771 14.4563 103.035 14.2883L102.499 13.444L101.964 12.5997C101.396 12.9597 100.95 13.4492 100.625 14.0462L101.503 14.524ZM102.499 13.444L103.028 14.2929C103.282 14.1349 103.576 14.048 103.939 14.048V13.048V12.048C103.231 12.048 102.565 12.2251 101.971 12.5951L102.499 13.444ZM103.939 13.048V14.048C104.199 14.048 104.399 14.0976 104.557 14.175L104.995 13.276L105.433 12.377C104.968 12.1504 104.463 12.048 103.939 12.048V13.048ZM104.995 13.276L104.566 14.1793C104.745 14.264 104.873 14.3722 104.97 14.5044L105.775 13.912L106.581 13.3196C106.278 12.9078 105.886 12.592 105.425 12.3727L104.995 13.276ZM105.775 13.912L104.978 14.5159C105.056 14.6184 105.103 14.735 105.114 14.8936L106.111 14.824L107.109 14.7544C107.072 14.225 106.895 13.7336 106.573 13.3081L105.775 13.912ZM106.111 14.824H105.111V17.344H106.111H107.111V14.824H106.111ZM106.111 17.344L105.114 17.2744C105.103 17.4338 105.055 17.5596 104.97 17.6756L105.775 18.268L106.581 18.8604C106.896 18.4324 107.072 17.9422 107.109 17.4136L106.111 17.344ZM105.775 18.268L104.967 17.6798C104.881 17.7974 104.761 17.9021 104.578 17.9887L105.007 18.892L105.437 19.7953C105.894 19.5779 106.286 19.2666 106.584 18.8562L105.775 18.268ZM105.007 18.892L104.578 17.9887C104.406 18.0705 104.199 18.12 103.939 18.12V19.12V20.12C104.464 20.12 104.969 20.0175 105.437 19.7953L105.007 18.892ZM104.311 17.464V18.464C104.944 18.464 105.537 18.2463 105.989 17.7639L105.259 17.08L104.53 16.3961C104.502 16.4257 104.463 16.464 104.311 16.464V17.464ZM105.259 17.08L105.999 17.7527C106.427 17.2819 106.619 16.7003 106.619 16.084H105.619H104.619C104.619 16.2677 104.572 16.3501 104.52 16.4073L105.259 17.08ZM105.619 16.084H106.619C106.619 15.6718 106.534 15.2643 106.332 14.8899L105.451 15.364L104.571 15.8381C104.593 15.8797 104.619 15.9522 104.619 16.084H105.619ZM105.451 15.364L106.346 14.9168C106.154 14.5323 105.862 14.2229 105.484 14.0115L104.995 14.884L104.507 15.7565C104.529 15.7691 104.541 15.7797 104.557 15.8112L105.451 15.364ZM104.995 14.884L105.525 14.036C105.154 13.8041 104.742 13.704 104.323 13.704V14.704V15.704C104.417 15.704 104.452 15.7239 104.465 15.732L104.995 14.884ZM104.323 14.704V13.704C103.904 13.704 103.495 13.8043 103.125 14.0265L103.639 14.884L104.154 15.7415C104.184 15.7237 104.23 15.704 104.323 15.704V14.704ZM103.639 14.884L103.136 14.0202C102.781 14.227 102.505 14.5179 102.305 14.8643L103.171 15.364L104.038 15.8637C104.078 15.7941 104.114 15.765 104.143 15.7478L103.639 14.884ZM103.171 15.364L102.291 14.8899C102.089 15.2643 102.003 15.6718 102.003 16.084H103.003H104.003C104.003 15.9522 104.03 15.8797 104.052 15.8381L103.171 15.364ZM103.003 16.084H102.003C102.003 16.4937 102.092 16.8959 102.291 17.2661L103.171 16.792L104.052 16.3179C104.027 16.2721 104.003 16.2023 104.003 16.084H103.003ZM103.171 16.792L102.291 17.2661C102.487 17.6303 102.769 17.9277 103.125 18.1415L103.639 17.284L104.154 16.4265C104.11 16.4003 104.08 16.3697 104.052 16.3179L103.171 16.792ZM103.639 17.284L103.125 18.1415C103.49 18.3607 103.894 18.464 104.311 18.464V17.464V16.464C104.233 16.464 104.189 16.4473 104.154 16.4265L103.639 17.284ZM105.547 19H106.547V17.428H105.547H104.547V19H105.547ZM105.547 17.428L106.529 17.6193L106.805 16.2033L105.823 16.012L104.842 15.8207L104.566 17.2367L105.547 17.428ZM105.823 16.012L106.805 15.8207L106.529 14.4047L105.547 14.596L104.566 14.7873L104.842 16.2033L105.823 16.012ZM105.547 14.596H106.547V13.168H105.547H104.547V14.596H105.547ZM105.547 13.168V14.168H107.347V13.168V12.168H105.547V13.168ZM107.347 13.168H106.347V19H107.347H108.347V13.168H107.347ZM107.347 19V18H105.547V19V20H107.347V19ZM55.24 35L54.3104 34.6313L53.7676 36H55.24V35ZM59.72 23.704V22.704H59.0408L58.7904 23.3353L59.72 23.704ZM61.992 23.704L62.9229 23.3388L62.6739 22.704H61.992V23.704ZM66.424 35V36H67.8906L67.3549 34.6348L66.424 35ZM63.768 35L62.8276 35.3402L63.0663 36H63.768V35ZM60.376 25.624V24.624H58.9508L59.4356 25.9642L60.376 25.624ZM61.288 25.624L62.2268 25.9684L62.7201 24.624H61.288V25.624ZM57.848 35V36H58.5463L58.7868 35.3444L57.848 35ZM57.784 32.952H56.784V33.952H57.784V32.952ZM57.784 30.904V29.904H56.784V30.904H57.784ZM63.944 30.904H64.944V29.904H63.944V30.904ZM63.944 32.952V33.952H64.944V32.952H63.944ZM55.24 35L56.1696 35.3687L60.6496 24.0727L59.72 23.704L58.7904 23.3353L54.3104 34.6313L55.24 35ZM59.72 23.704V24.704H61.992V23.704V22.704H59.72V23.704ZM61.992 23.704L61.0611 24.0692L65.4931 35.3652L66.424 35L67.3549 34.6348L62.9229 23.3388L61.992 23.704ZM66.424 35V34H63.768V35V36H66.424V35ZM63.768 35L64.7084 34.6598L61.3164 25.2838L60.376 25.624L59.4356 25.9642L62.8276 35.3402L63.768 35ZM60.376 25.624V26.624H61.288V25.624V24.624H60.376V25.624ZM61.288 25.624L60.3492 25.2796L56.9092 34.6556L57.848 35L58.7868 35.3444L62.2268 25.9684L61.288 25.624ZM57.848 35V34H55.24V35V36H57.848V35ZM57.784 32.952H58.784V30.904H57.784H56.784V32.952H57.784ZM57.784 30.904V31.904H63.944V30.904V29.904H57.784V30.904ZM63.944 30.904H62.944V32.952H63.944H64.944V30.904H63.944ZM63.944 32.952V31.952H57.784V32.952V33.952H63.944V32.952ZM70.5603 34.856L70.9807 33.9487L70.5603 34.856ZM69.4882 34.024L68.6939 34.6315L68.6983 34.6372L68.7028 34.6429L69.4882 34.024ZM69.0083 32.792H68.0083V32.8384L68.0125 32.8846L69.0083 32.792ZM69.0083 29.512L68.0125 29.4194L68.0083 29.4656V29.512H69.0083ZM69.4882 28.264L68.6855 27.6677H68.6855L69.4882 28.264ZM70.5603 27.384L70.9987 28.2828H70.9987L70.5603 27.384ZM73.9523 27.592L73.4237 28.4409L73.4308 28.4453L73.9523 27.592ZM75.2962 29.032L74.4112 29.4978L74.4178 29.5098L75.2962 29.032ZM75.2962 33.192L74.4177 32.7142L74.4113 32.7263L75.2962 33.192ZM73.9523 34.632L73.4308 33.7787L73.4237 33.7831L73.9523 34.632ZM67.5203 38.28H66.5203V39.28H67.5203V38.28ZM67.5203 27.224V26.224H66.5203V27.224H67.5203ZM69.9683 27.224H70.9683V26.224H69.9683V27.224ZM69.9683 29.224L70.9465 29.4313L70.9683 29.3288V29.224H69.9683ZM69.5683 31.112L68.59 30.9047L68.5478 31.1037L68.5867 31.3033L69.5683 31.112ZM69.9363 33H70.9363V32.9035L70.9178 32.8087L69.9363 33ZM69.9363 38.28V39.28H70.9363V38.28H69.9363ZM72.4643 32.712L71.9498 31.8545L71.942 31.8592L71.9342 31.864L72.4643 32.712ZM73.0882 32.056L72.2078 31.5819V31.5819L73.0882 32.056ZM73.0882 30.152L72.2078 30.6261V30.6261L73.0882 30.152ZM72.4643 29.512L71.9343 30.36L71.9547 30.3727L71.9756 30.3845L72.4643 29.512ZM70.6562 29.512L71.1602 30.3758L71.1707 30.3695L70.6562 29.512ZM70.0483 30.152L70.9287 30.6261V30.6261L70.0483 30.152ZM70.0323 32.056L69.1378 32.5032L69.1446 32.5168L69.1518 32.5301L70.0323 32.056ZM70.6562 32.712L70.1418 33.5695V33.5695L70.6562 32.712ZM72.0002 35.16V34.16C71.6104 34.16 71.2755 34.0853 70.9807 33.9487L70.5603 34.856L70.1398 35.7633C70.7197 36.0321 71.3448 36.16 72.0002 36.16V35.16ZM70.5603 34.856L70.9807 33.9487C70.675 33.807 70.4465 33.6244 70.2737 33.4051L69.4882 34.024L68.7028 34.6429C69.0847 35.1276 69.5708 35.4996 70.1398 35.7633L70.5603 34.856ZM69.4882 34.024L70.2826 33.4165C70.1205 33.2046 70.0294 32.9727 70.004 32.6994L69.0083 32.792L68.0125 32.8846C68.0725 33.5286 68.3013 34.1181 68.6939 34.6315L69.4882 34.024ZM69.0083 32.792H70.0083V29.512H69.0083H68.0083V32.792H69.0083ZM69.0083 29.512L70.004 29.6046C70.0295 29.3302 70.1218 29.0881 70.291 28.8603L69.4882 28.264L68.6855 27.6677C68.3 28.1866 68.0724 28.7765 68.0125 29.4194L69.0083 29.512ZM69.4882 28.264L70.291 28.8603C70.4684 28.6215 70.6984 28.4293 70.9987 28.2828L70.5603 27.384L70.1218 26.4852C69.5475 26.7654 69.0628 27.1598 68.6855 27.6677L69.4882 28.264ZM70.5603 27.384L70.9987 28.2828C71.2895 28.1409 71.618 28.064 72.0002 28.064V27.064V26.064C71.3371 26.064 70.7057 26.2004 70.1218 26.4852L70.5603 27.384ZM72.0002 27.064V28.064C72.5697 28.064 73.0334 28.1979 73.4237 28.4409L73.9523 27.592L74.4808 26.7431C73.7405 26.2821 72.9028 26.064 72.0002 26.064V27.064ZM73.9523 27.592L73.4308 28.4453C73.8501 28.7015 74.1738 29.0463 74.4113 29.4977L75.2962 29.032L76.1812 28.5663C75.7787 27.8017 75.2064 27.1865 74.4737 26.7387L73.9523 27.592ZM75.2962 29.032L74.4178 29.5098C74.6591 29.9536 74.7923 30.479 74.7923 31.112H75.7923H76.7923C76.7923 30.1876 76.5947 29.3264 76.1747 28.5542L75.2962 29.032ZM75.7923 31.112H74.7923C74.7923 31.745 74.6591 32.2704 74.4178 32.7142L75.2962 33.192L76.1747 33.6698C76.5947 32.8976 76.7923 32.0364 76.7923 31.112H75.7923ZM75.2962 33.192L74.4113 32.7263C74.1738 33.1777 73.8501 33.5225 73.4308 33.7787L73.9523 34.632L74.4737 35.4853C75.2064 35.0375 75.7787 34.4223 76.1812 33.6577L75.2962 33.192ZM73.9523 34.632L73.4237 33.7831C73.0334 34.0261 72.5697 34.16 72.0002 34.16V35.16V36.16C72.9028 36.16 73.7405 35.9419 74.4808 35.4809L73.9523 34.632ZM67.5203 38.28H68.5203V27.224H67.5203H66.5203V38.28H67.5203ZM67.5203 27.224V28.224H69.9683V27.224V26.224H67.5203V27.224ZM69.9683 27.224H68.9683V29.224H69.9683H70.9683V27.224H69.9683ZM69.9683 29.224L68.99 29.0167L68.59 30.9047L69.5683 31.112L70.5465 31.3193L70.9465 29.4313L69.9683 29.224ZM69.5683 31.112L68.5867 31.3033L68.9547 33.1913L69.9363 33L70.9178 32.8087L70.5498 30.9207L69.5683 31.112ZM69.9363 33H68.9363V38.28H69.9363H70.9363V33H69.9363ZM69.9363 38.28V37.28H67.5203V38.28V39.28H69.9363V38.28ZM71.5522 32.952V33.952C72.06 33.952 72.5545 33.8349 72.9942 33.56L72.4643 32.712L71.9342 31.864C71.862 31.9091 71.7485 31.952 71.5522 31.952V32.952ZM72.4643 32.712L72.9787 33.5695C73.4017 33.3157 73.7353 32.9637 73.9687 32.5301L73.0882 32.056L72.2078 31.5819C72.1426 31.703 72.0601 31.7883 71.9498 31.8545L72.4643 32.712ZM73.0882 32.056L73.9687 32.5301C74.2054 32.0906 74.3123 31.6097 74.3123 31.112H73.3123H72.3123C72.3123 31.3183 72.2698 31.4667 72.2078 31.5819L73.0882 32.056ZM73.3123 31.112H74.3123C74.3123 30.6091 74.2077 30.1217 73.9687 29.6779L73.0882 30.152L72.2078 30.6261C72.2675 30.737 72.3123 30.8896 72.3123 31.112H73.3123ZM73.0882 30.152L73.9687 29.6779C73.7322 29.2386 73.3906 28.8846 72.9529 28.6395L72.4643 29.512L71.9756 30.3845C72.0712 30.438 72.1456 30.5107 72.2078 30.6261L73.0882 30.152ZM72.4643 29.512L72.9942 28.664C72.5593 28.3921 72.0719 28.272 71.5683 28.272V29.272V30.272C71.7473 30.272 71.8572 30.3119 71.9343 30.36L72.4643 29.512ZM71.5683 29.272V28.272C71.0639 28.272 70.5788 28.3923 70.1418 28.6545L70.6562 29.512L71.1707 30.3695C71.2671 30.3117 71.3899 30.272 71.5683 30.272V29.272ZM70.6562 29.512L70.1524 28.6482C69.7273 28.8962 69.3987 29.2491 69.1678 29.6779L70.0483 30.152L70.9287 30.6261C70.9965 30.5002 71.0732 30.4265 71.1601 30.3758L70.6562 29.512ZM70.0483 30.152L69.1678 29.6779C68.9288 30.1217 68.8243 30.6091 68.8243 31.112H69.8243H70.8243C70.8243 30.8896 70.869 30.737 70.9287 30.6261L70.0483 30.152ZM69.8243 31.112H68.8243C68.8243 31.5981 68.9209 32.0693 69.1378 32.5032L70.0323 32.056L70.9267 31.6088C70.8663 31.488 70.8243 31.3299 70.8243 31.112H69.8243ZM70.0323 32.056L69.1518 32.5301C69.3852 32.9637 69.7188 33.3157 70.1418 33.5695L70.6562 32.712L71.1707 31.8545C71.0604 31.7883 70.9779 31.703 70.9127 31.5819L70.0323 32.056ZM70.6562 32.712L70.1418 33.5695C70.5738 33.8287 71.0523 33.952 71.5522 33.952V32.952V31.952C71.3909 31.952 71.2721 31.9153 71.1707 31.8545L70.6562 32.712ZM80.0759 34.856L80.4963 33.9487L80.0759 34.856ZM79.0039 34.024L78.2095 34.6315L78.2139 34.6372L78.2184 34.6429L79.0039 34.024ZM78.5239 32.792H77.5239V32.8384L77.5282 32.8846L78.5239 32.792ZM78.5239 29.512L77.5282 29.4194L77.5239 29.4656V29.512H78.5239ZM79.0039 28.264L78.2011 27.6677H78.2011L79.0039 28.264ZM80.0759 27.384L80.5143 28.2828H80.5143L80.0759 27.384ZM83.4679 27.592L82.9393 28.4409L82.9464 28.4453L83.4679 27.592ZM84.8119 29.032L83.9269 29.4978L83.9334 29.5098L84.8119 29.032ZM84.8119 33.192L83.9333 32.7142L83.927 32.7263L84.8119 33.192ZM83.4679 34.632L82.9464 33.7787L82.9393 33.7831L83.4679 34.632ZM77.0359 38.28H76.0359V39.28H77.0359V38.28ZM77.0359 27.224V26.224H76.0359V27.224H77.0359ZM79.4839 27.224H80.4839V26.224H79.4839V27.224ZM79.4839 29.224L80.4622 29.4313L80.4839 29.3288V29.224H79.4839ZM79.0839 31.112L78.1056 30.9047L78.0634 31.1037L78.1023 31.3033L79.0839 31.112ZM79.4519 33H80.4519V32.9035L80.4334 32.8087L79.4519 33ZM79.4519 38.28V39.28H80.4519V38.28H79.4519ZM81.9799 32.712L81.4654 31.8545L81.4576 31.8592L81.4499 31.864L81.9799 32.712ZM82.6039 32.056L81.7234 31.5819V31.5819L82.6039 32.056ZM82.6039 30.152L81.7234 30.6261V30.6261L82.6039 30.152ZM81.9799 29.512L81.4499 30.36L81.4703 30.3727L81.4913 30.3845L81.9799 29.512ZM80.1719 29.512L80.6758 30.3758L80.6864 30.3695L80.1719 29.512ZM79.5639 30.152L80.4443 30.6261V30.6261L79.5639 30.152ZM79.5479 32.056L78.6534 32.5032L78.6602 32.5168L78.6674 32.5301L79.5479 32.056ZM80.1719 32.712L79.6574 33.5695V33.5695L80.1719 32.712ZM81.5159 35.16V34.16C81.126 34.16 80.7911 34.0853 80.4963 33.9487L80.0759 34.856L79.6554 35.7633C80.2353 36.0321 80.8604 36.16 81.5159 36.16V35.16ZM80.0759 34.856L80.4963 33.9487C80.1906 33.807 79.9621 33.6244 79.7894 33.4051L79.0039 34.024L78.2184 34.6429C78.6003 35.1276 79.0865 35.4996 79.6554 35.7633L80.0759 34.856ZM79.0039 34.024L79.7982 33.4165C79.6361 33.2046 79.545 32.9727 79.5196 32.6994L78.5239 32.792L77.5282 32.8846C77.5881 33.5286 77.8169 34.1181 78.2095 34.6315L79.0039 34.024ZM78.5239 32.792H79.5239V29.512H78.5239H77.5239V32.792H78.5239ZM78.5239 29.512L79.5196 29.6046C79.5451 29.3302 79.6374 29.0881 79.8066 28.8603L79.0039 28.264L78.2011 27.6677C77.8157 28.1866 77.588 28.7765 77.5282 29.4194L78.5239 29.512ZM79.0039 28.264L79.8066 28.8603C79.984 28.6215 80.214 28.4293 80.5143 28.2828L80.0759 27.384L79.6375 26.4852C79.0631 26.7654 78.5784 27.1598 78.2011 27.6677L79.0039 28.264ZM80.0759 27.384L80.5143 28.2828C80.8051 28.1409 81.1336 28.064 81.5159 28.064V27.064V26.064C80.8528 26.064 80.2213 26.2004 79.6375 26.4852L80.0759 27.384ZM81.5159 27.064V28.064C82.0853 28.064 82.549 28.1979 82.9393 28.4409L83.4679 27.592L83.9964 26.7431C83.2561 26.2821 82.4184 26.064 81.5159 26.064V27.064ZM83.4679 27.592L82.9464 28.4453C83.3657 28.7015 83.6894 29.0463 83.927 29.4977L84.8119 29.032L85.6968 28.5663C85.2944 27.8017 84.7221 27.1865 83.9893 26.7387L83.4679 27.592ZM84.8119 29.032L83.9334 29.5098C84.1748 29.9536 84.3079 30.479 84.3079 31.112H85.3079H86.3079C86.3079 30.1876 86.1103 29.3264 85.6904 28.5542L84.8119 29.032ZM85.3079 31.112H84.3079C84.3079 31.745 84.1748 32.2704 83.9334 32.7142L84.8119 33.192L85.6904 33.6698C86.1103 32.8976 86.3079 32.0364 86.3079 31.112H85.3079ZM84.8119 33.192L83.927 32.7263C83.6894 33.1777 83.3657 33.5225 82.9464 33.7787L83.4679 34.632L83.9893 35.4853C84.7221 35.0375 85.2944 34.4223 85.6968 33.6577L84.8119 33.192ZM83.4679 34.632L82.9393 33.7831C82.549 34.0261 82.0853 34.16 81.5159 34.16V35.16V36.16C82.4184 36.16 83.2561 35.9419 83.9964 35.4809L83.4679 34.632ZM77.0359 38.28H78.0359V27.224H77.0359H76.0359V38.28H77.0359ZM77.0359 27.224V28.224H79.4839V27.224V26.224H77.0359V27.224ZM79.4839 27.224H78.4839V29.224H79.4839H80.4839V27.224H79.4839ZM79.4839 29.224L78.5056 29.0167L78.1056 30.9047L79.0839 31.112L80.0622 31.3193L80.4622 29.4313L79.4839 29.224ZM79.0839 31.112L78.1023 31.3033L78.4703 33.1913L79.4519 33L80.4334 32.8087L80.0654 30.9207L79.0839 31.112ZM79.4519 33H78.4519V38.28H79.4519H80.4519V33H79.4519ZM79.4519 38.28V37.28H77.0359V38.28V39.28H79.4519V38.28ZM81.0679 32.952V33.952C81.5756 33.952 82.0701 33.8349 82.5099 33.56L81.9799 32.712L81.4499 31.864C81.3777 31.9091 81.2641 31.952 81.0679 31.952V32.952ZM81.9799 32.712L82.4944 33.5695C82.9174 33.3157 83.2509 32.9637 83.4843 32.5301L82.6039 32.056L81.7234 31.5819C81.6582 31.703 81.5757 31.7883 81.4654 31.8545L81.9799 32.712ZM82.6039 32.056L83.4843 32.5301C83.721 32.0906 83.8279 31.6097 83.8279 31.112H82.8279H81.8279C81.8279 31.3183 81.7854 31.4667 81.7234 31.5819L82.6039 32.056ZM82.8279 31.112H83.8279C83.8279 30.6091 83.7233 30.1217 83.4843 29.6779L82.6039 30.152L81.7234 30.6261C81.7831 30.737 81.8279 30.8896 81.8279 31.112H82.8279ZM82.6039 30.152L83.4843 29.6779C83.2478 29.2386 82.9062 28.8846 82.4685 28.6395L81.9799 29.512L81.4913 30.3845C81.5868 30.438 81.6613 30.5107 81.7234 30.6261L82.6039 30.152ZM81.9799 29.512L82.5099 28.664C82.0749 28.3921 81.5875 28.272 81.0839 28.272V29.272V30.272C81.2629 30.272 81.3729 30.3119 81.4499 30.36L81.9799 29.512ZM81.0839 29.272V28.272C80.5795 28.272 80.0944 28.3923 79.6574 28.6545L80.1719 29.512L80.6864 30.3695C80.7827 30.3117 80.9055 30.272 81.0839 30.272V29.272ZM80.1719 29.512L79.668 28.6482C79.2429 28.8962 78.9143 29.2491 78.6834 29.6779L79.5639 30.152L80.4443 30.6261C80.5121 30.5002 80.5889 30.4265 80.6757 30.3758L80.1719 29.512ZM79.5639 30.152L78.6834 29.6779C78.4445 30.1217 78.3399 30.6091 78.3399 31.112H79.3399H80.3399C80.3399 30.8896 80.3846 30.737 80.4443 30.6261L79.5639 30.152ZM79.3399 31.112H78.3399C78.3399 31.5981 78.4365 32.0693 78.6534 32.5032L79.5479 32.056L80.4423 31.6088C80.3819 31.488 80.3399 31.3299 80.3399 31.112H79.3399ZM79.5479 32.056L78.6674 32.5301C78.9009 32.9637 79.2344 33.3157 79.6574 33.5695L80.1719 32.712L80.6864 31.8545C80.576 31.7883 80.4935 31.703 80.4283 31.5819L79.5479 32.056ZM80.1719 32.712L79.6574 33.5695C80.0894 33.8287 80.5679 33.952 81.0679 33.952V32.952V31.952C80.9065 31.952 80.7877 31.9153 80.6864 31.8545L80.1719 32.712ZM90.8144 34.728L90.3907 35.6338L90.3994 35.6379L90.4082 35.6418L90.8144 34.728ZM88.9904 33.336L88.2868 32.6254L87.6106 33.295L88.2458 34.0035L88.9904 33.336ZM90.6224 31.72L91.3761 31.0629L90.6759 30.2597L89.9188 31.0094L90.6224 31.72ZM91.8224 32.696L91.3496 33.5772L91.3623 33.584L91.3752 33.5904L91.8224 32.696ZM94.6064 32.744L94.0656 31.9028L94.0586 31.9073L94.0517 31.9119L94.6064 32.744ZM94.7664 31.192L94.0593 31.8991V31.8991L94.7664 31.192ZM93.9984 30.696L93.5893 31.6086L93.6008 31.6136L93.9984 30.696ZM92.9584 30.296L92.634 31.242L92.6421 31.2447L92.9584 30.296ZM91.8384 29.864L91.4226 30.7735L91.4335 30.7784L91.4445 30.7831L91.8384 29.864ZM90.7984 29.24L90.1608 30.0104L90.1752 30.0223L90.1899 30.0336L90.7984 29.24ZM90.0464 28.296L89.1519 28.7432L89.1571 28.7533L90.0464 28.296ZM90.2544 25.064L89.4278 24.5012L89.4236 24.5073L89.4196 24.5134L90.2544 25.064ZM91.6624 23.928L92.0563 24.8471L92.0632 24.8442L92.07 24.8411L91.6624 23.928ZM95.8864 23.944L95.4943 24.8639L95.4996 24.8662L95.8864 23.944ZM97.5184 25.08L98.222 25.7906L98.8953 25.1239L98.2658 24.4156L97.5184 25.08ZM95.8864 26.696L95.1685 27.3921L95.8719 28.1176L96.59 27.4066L95.8864 26.696ZM94.8464 25.912L94.3991 26.8065L94.4101 26.8118L94.8464 25.912ZM92.6384 25.912L93.1684 26.76L93.1808 26.7522L93.1931 26.744L92.6384 25.912ZM92.5424 27.32L91.8558 28.047L91.8667 28.0574L91.878 28.0674L92.5424 27.32ZM93.2944 27.768L92.912 28.6921L92.923 28.6965L93.2944 27.768ZM94.3344 28.152L94.01 29.098L94.0181 29.1007L94.3344 28.152ZM95.4704 28.6L95.8861 27.6905V27.6905L95.4704 28.6ZM96.4944 29.256L95.8414 30.0134L95.8553 30.0254L95.8697 30.0369L96.4944 29.256ZM97.2624 30.248L96.3586 30.6761L96.3631 30.6855L97.2624 30.248ZM96.3984 34.264L97.0191 35.0481L97.0257 35.0428L96.3984 34.264ZM93.2144 35.176V34.176C92.3909 34.176 91.7358 34.0432 91.2205 33.8142L90.8144 34.728L90.4082 35.6418C91.2369 36.0101 92.1819 36.176 93.2144 36.176V35.176ZM90.8144 34.728L91.2381 33.8222C90.7143 33.5772 90.2121 33.2007 89.7349 32.6685L88.9904 33.336L88.2458 34.0035C88.878 34.7086 89.5917 35.2601 90.3907 35.6338L90.8144 34.728ZM88.9904 33.336L89.694 34.0466L91.326 32.4306L90.6224 31.72L89.9188 31.0094L88.2868 32.6254L88.9904 33.336ZM90.6224 31.72L89.8686 32.3771C90.3018 32.874 90.7946 33.2794 91.3496 33.5772L91.8224 32.696L92.2952 31.8148C91.9755 31.6433 91.6683 31.398 91.3761 31.0629L90.6224 31.72ZM91.8224 32.696L91.3752 33.5904C91.9839 33.8948 92.659 34.032 93.3744 34.032V33.032V32.032C92.9164 32.032 92.5568 31.9452 92.2696 31.8016L91.8224 32.696ZM93.3744 33.032V34.032C94.006 34.032 94.6422 33.922 95.1611 33.576L94.6064 32.744L94.0517 31.9119C93.9946 31.95 93.8094 32.032 93.3744 32.032V33.032ZM94.6064 32.744L95.1471 33.5852C95.7181 33.2181 96.0544 32.6418 96.0544 31.944H95.0544H94.0544C94.0544 31.9561 94.0531 31.9562 94.0552 31.9475C94.0575 31.9382 94.0622 31.9252 94.0699 31.9114C94.0775 31.8978 94.0846 31.8897 94.087 31.8873C94.0889 31.8853 94.0836 31.8913 94.0656 31.9028L94.6064 32.744ZM95.0544 31.944H96.0544C96.0544 31.4096 95.8796 30.891 95.4735 30.4849L94.7664 31.192L94.0593 31.8991C94.0595 31.8993 94.0572 31.897 94.0542 31.8923C94.0511 31.8877 94.0493 31.8836 94.0485 31.8816C94.0467 31.8768 94.0544 31.8932 94.0544 31.944H95.0544ZM94.7664 31.192L95.4735 30.4849C95.1711 30.1826 94.8001 29.9536 94.396 29.7784L93.9984 30.696L93.6008 31.6136C93.8366 31.7158 93.9776 31.8174 94.0593 31.8991L94.7664 31.192ZM93.9984 30.696L94.4074 29.7835C94.0626 29.6289 93.6843 29.4839 93.2746 29.3473L92.9584 30.296L92.6421 31.2447C93.0005 31.3641 93.3154 31.4857 93.5893 31.6085L93.9984 30.696ZM92.9584 30.296L93.2827 29.3501C92.9336 29.2304 92.5834 29.0953 92.2323 28.9449L91.8384 29.864L91.4445 30.7831C91.84 30.9527 92.2365 31.1056 92.634 31.2419L92.9584 30.296ZM91.8384 29.864L92.2541 28.9545C91.9479 28.8145 91.6661 28.6452 91.4068 28.4464L90.7984 29.24L90.1899 30.0336C90.5707 30.3255 90.9821 30.5721 91.4226 30.7735L91.8384 29.864ZM90.7984 29.24L91.4359 28.4696C91.2356 28.3038 91.0687 28.0973 90.9357 27.8387L90.0464 28.296L89.1571 28.7533C89.4081 29.2414 89.7425 29.6642 90.1608 30.0104L90.7984 29.24ZM90.0464 28.296L90.9408 27.8488C90.8378 27.6427 90.7584 27.3274 90.7584 26.856H89.7584H88.7584C88.7584 27.5366 88.871 28.1813 89.1519 28.7432L90.0464 28.296ZM89.7584 26.856H90.7584C90.7584 26.3274 90.8822 25.9284 91.0891 25.6146L90.2544 25.064L89.4196 24.5134C88.9653 25.2022 88.7584 25.9979 88.7584 26.856H89.7584ZM90.2544 25.064L91.081 25.6268C91.3073 25.2944 91.6211 25.0336 92.0563 24.8471L91.6624 23.928L91.2685 23.0089C90.509 23.3344 89.8842 23.8309 89.4278 24.5012L90.2544 25.064ZM91.6624 23.928L92.07 24.8411C92.517 24.6416 93.0619 24.528 93.7264 24.528V23.528V22.528C92.8336 22.528 92.0024 22.6811 91.2547 23.0149L91.6624 23.928ZM93.7264 23.528V24.528C94.3966 24.528 94.9812 24.6452 95.4943 24.8639L95.8864 23.944L96.2785 23.0241C95.4902 22.6881 94.6348 22.528 93.7264 22.528V23.528ZM95.8864 23.944L95.4996 24.8662C96.0392 25.0925 96.4548 25.3887 96.771 25.7444L97.5184 25.08L98.2658 24.4156C97.7286 23.8113 97.0562 23.3502 96.2731 23.0218L95.8864 23.944ZM97.5184 25.08L96.8148 24.3694L95.1828 25.9854L95.8864 26.696L96.59 27.4066L98.222 25.7906L97.5184 25.08ZM95.8864 26.696L96.6043 25.9999C96.2014 25.5844 95.7625 25.2448 95.2826 25.0122L94.8464 25.912L94.4101 26.8118C94.6342 26.9205 94.8887 27.1036 95.1685 27.3921L95.8864 26.696ZM94.8464 25.912L95.2936 25.0176C94.7944 24.768 94.2482 24.656 93.6784 24.656V25.656V26.656C93.9832 26.656 94.2157 26.7147 94.3992 26.8064L94.8464 25.912ZM93.6784 25.656V24.656C93.1233 24.656 92.5596 24.7626 92.0837 25.08L92.6384 25.912L93.1931 26.744C93.2291 26.72 93.3588 26.656 93.6784 26.656V25.656ZM92.6384 25.912L92.1084 25.064C91.5513 25.4122 91.2544 25.9722 91.2544 26.616H92.2544H93.2544C93.2544 26.6022 93.2562 26.6357 93.2283 26.6869C93.2154 26.7104 93.2006 26.7295 93.1871 26.7434C93.174 26.7568 93.166 26.7615 93.1684 26.76L92.6384 25.912ZM92.2544 26.616H91.2544C91.2544 27.1514 91.4445 27.6586 91.8558 28.047L92.5424 27.32L93.229 26.593C93.2293 26.5933 93.2333 26.5972 93.2386 26.6048C93.2439 26.6125 93.2485 26.6211 93.2519 26.6294C93.2552 26.6375 93.2561 26.6421 93.2559 26.6413C93.2557 26.6403 93.2544 26.6324 93.2544 26.616H92.2544ZM92.5424 27.32L91.878 28.0674C92.1745 28.3309 92.5291 28.5335 92.912 28.692L93.2944 27.768L93.6767 26.844C93.441 26.7465 93.2943 26.6504 93.2067 26.5726L92.5424 27.32ZM93.2944 27.768L92.923 28.6965C93.2606 28.8315 93.6231 28.9653 94.0101 29.0979L94.3344 28.152L94.6587 27.2061C94.299 27.0827 93.9682 26.9605 93.6658 26.8395L93.2944 27.768ZM94.3344 28.152L94.0181 29.1007C94.3678 29.2172 94.7133 29.3534 95.0546 29.5095L95.4704 28.6L95.8861 27.6905C95.4808 27.5052 95.0689 27.3428 94.6506 27.2033L94.3344 28.152ZM95.4704 28.6L95.0546 29.5095C95.3426 29.6411 95.604 29.8087 95.8414 30.0134L96.4944 29.256L97.1473 28.4986C96.7661 28.17 96.3449 27.9002 95.8861 27.6905L95.4704 28.6ZM96.4944 29.256L95.8697 30.0369C96.0602 30.1893 96.2254 30.3948 96.3586 30.6761L97.2624 30.248L98.1661 29.8199C97.9153 29.2905 97.5685 28.8347 97.1191 28.4751L96.4944 29.256ZM97.2624 30.248L96.3631 30.6855C96.4704 30.906 96.5504 31.2362 96.5504 31.72H97.5504H98.5504C98.5504 31.0304 98.4383 30.3794 98.1616 29.8105L97.2624 30.248ZM97.5504 31.72H96.5504C96.5504 32.5267 96.2796 33.0756 95.771 33.4852L96.3984 34.264L97.0257 35.0428C98.0531 34.2151 98.5504 33.068 98.5504 31.72H97.5504ZM96.3984 34.264L95.7777 33.48C95.2432 33.9031 94.4289 34.176 93.2144 34.176V35.176V36.176C94.7092 36.176 96.0176 35.8409 97.0191 35.048L96.3984 34.264ZM101.497 35H100.497V36H101.497V35ZM101.497 23.864V22.864H100.497V23.864H101.497ZM104.009 23.864H105.009V22.864H104.009V23.864ZM104.009 35V36H105.009V35H104.009ZM97.9606 25.896H96.9606V26.896H97.9606V25.896ZM97.9606 23.704V22.704H96.9606V23.704H97.9606ZM107.545 23.704H108.545V22.704H107.545V23.704ZM107.545 25.896V26.896H108.545V25.896H107.545ZM101.497 35H102.497V23.864H101.497H100.497V35H101.497ZM101.497 23.864V24.864H104.009V23.864V22.864H101.497V23.864ZM104.009 23.864H103.009V35H104.009H105.009V23.864H104.009ZM104.009 35V34H101.497V35V36H104.009V35ZM97.9606 25.896H98.9606V23.704H97.9606H96.9606V25.896H97.9606ZM97.9606 23.704V24.704H107.545V23.704V22.704H97.9606V23.704ZM107.545 23.704H106.545V25.896H107.545H108.545V23.704H107.545ZM107.545 25.896V24.896H97.9606V25.896V26.896H107.545V25.896ZM111.378 34.744L110.992 35.6667L110.997 35.6687L111.378 34.744ZM109.49 33.496L110.19 32.7819V32.7819L109.49 33.496ZM108.226 31.64L107.303 32.0256L107.305 32.0306L108.226 31.64ZM108.226 27.032L107.305 26.6414V26.6414L108.226 27.032ZM109.474 25.192L110.174 25.9062L110.181 25.8991L109.474 25.192ZM111.346 23.96L111.719 24.8875L111.726 24.8847L111.346 23.96ZM116.05 23.96L115.664 24.8827L115.672 24.8861L115.681 24.8894L116.05 23.96ZM117.938 25.192L117.231 25.8991L117.238 25.9062L117.245 25.9131L117.938 25.192ZM119.202 27.048L118.279 27.4336L118.281 27.4385L119.202 27.048ZM119.202 31.656L120.122 32.0466L120.124 32.0416L119.202 31.656ZM117.954 33.512L118.654 34.2262L118.661 34.2191L117.954 33.512ZM116.066 34.744L115.685 33.8193L115.68 33.8213L116.066 34.744ZM115.474 32.456L114.97 31.5922L114.962 31.5969L115.474 32.456ZM116.658 31.208L117.545 31.6694L117.549 31.6622L116.658 31.208ZM116.834 27.896L115.894 28.2396L115.897 28.2471L116.834 27.896ZM116.146 26.776L115.415 27.4583L115.42 27.4645L115.426 27.4706L116.146 26.776ZM115.074 26.056L114.686 26.9776L114.7 26.9837L114.715 26.9893L115.074 26.056ZM111.938 26.248L112.436 27.1151L112.441 27.1118L111.938 26.248ZM110.77 27.48L111.653 27.9487L111.657 27.9414L110.77 27.48ZM110.594 30.792L109.655 31.1356V31.1356L110.594 30.792ZM111.266 31.928L110.522 32.597L110.534 32.61L110.546 32.6226L111.266 31.928ZM112.338 32.648L111.958 33.5732V33.5732L112.338 32.648ZM113.746 35.192V34.192C113.011 34.192 112.353 34.064 111.758 33.8193L111.378 34.744L110.997 35.6687C111.853 36.0213 112.773 36.192 113.746 36.192V35.192ZM111.378 34.744L111.763 33.8213C111.164 33.5708 110.642 33.2249 110.19 32.7819L109.49 33.496L108.79 34.2101C109.426 34.8338 110.162 35.3199 110.992 35.6667L111.378 34.744ZM109.49 33.496L110.19 32.7819C109.74 32.3412 109.394 31.8326 109.146 31.2495L108.226 31.64L107.305 32.0306C107.655 32.8554 108.151 33.5841 108.79 34.2101L109.49 33.496ZM108.226 31.64L109.148 31.2544C108.904 30.6692 108.778 30.0331 108.778 29.336H107.778H106.778C106.778 30.2816 106.95 31.1815 107.303 32.0256L108.226 31.64ZM107.778 29.336H108.778C108.778 28.6263 108.904 27.9925 109.146 27.4226L108.226 27.032L107.305 26.6414C106.95 27.4795 106.778 28.3817 106.778 29.336H107.778ZM108.226 27.032L109.146 27.4226C109.395 26.8369 109.737 26.3343 110.174 25.9062L109.474 25.192L108.774 24.4778C108.144 25.095 107.654 25.8191 107.305 26.6414L108.226 27.032ZM109.474 25.192L110.181 25.8991C110.617 25.463 111.127 25.1263 111.719 24.8875L111.346 23.96L110.972 23.0325C110.135 23.3697 109.397 23.8543 108.767 24.4849L109.474 25.192ZM111.346 23.96L111.726 24.8847C112.321 24.64 112.979 24.512 113.714 24.512V23.512V22.512C112.741 22.512 111.821 22.6827 110.965 23.0353L111.346 23.96ZM113.714 23.512V24.512C114.436 24.512 115.082 24.6394 115.664 24.8827L116.05 23.96L116.435 23.0373C115.588 22.6833 114.677 22.512 113.714 22.512V23.512ZM116.05 23.96L115.681 24.8894C116.284 25.1289 116.797 25.4655 117.231 25.8991L117.938 25.192L118.645 24.4849C118.012 23.8518 117.266 23.3671 116.419 23.0306L116.05 23.96ZM117.938 25.192L117.245 25.9131C117.687 26.3383 118.032 26.8419 118.279 27.4336L119.202 27.048L120.124 26.6624C119.774 25.8248 119.276 25.091 118.63 24.4709L117.938 25.192ZM119.202 27.048L118.281 27.4385C118.523 28.0085 118.65 28.6423 118.65 29.352H119.65H120.65C120.65 28.3977 120.478 27.4955 120.122 26.6574L119.202 27.048ZM119.65 29.352H118.65C118.65 30.0491 118.524 30.6852 118.279 31.2704L119.202 31.656L120.124 32.0416C120.477 31.1975 120.65 30.2976 120.65 29.352H119.65ZM119.202 31.656L118.281 31.2654C118.032 31.8529 117.688 32.3637 117.247 32.8049L117.954 33.512L118.661 34.2191C119.286 33.5937 119.774 32.8671 120.122 32.0466L119.202 31.656ZM117.954 33.512L117.254 32.7978C116.817 33.2259 116.297 33.5671 115.685 33.8193L116.066 34.744L116.446 35.6687C117.285 35.3235 118.024 34.8434 118.654 34.2262L117.954 33.512ZM116.066 34.744L115.68 33.8213C115.096 34.0653 114.455 34.192 113.746 34.192V35.192V36.192C114.7 36.192 115.606 36.0201 116.451 35.6667L116.066 34.744ZM113.714 32.904V33.904C114.538 33.904 115.307 33.7192 115.985 33.3151L115.474 32.456L114.962 31.5969C114.638 31.7901 114.233 31.904 113.714 31.904V32.904ZM115.474 32.456L115.977 33.3198C116.655 32.9245 117.182 32.3678 117.545 31.6694L116.658 31.208L115.77 30.7466C115.579 31.1148 115.316 31.3902 114.97 31.5922L115.474 32.456ZM116.658 31.208L117.549 31.6622C117.908 30.9574 118.074 30.1737 118.074 29.336H117.074H116.074C116.074 29.9063 115.962 30.3706 115.767 30.7538L116.658 31.208ZM117.074 29.336H118.074C118.074 28.7028 117.979 28.1012 117.77 27.5449L116.834 27.896L115.897 28.2471C116.009 28.5442 116.074 28.9025 116.074 29.336H117.074ZM116.834 27.896L117.773 27.5524C117.569 26.995 117.268 26.4992 116.865 26.0814L116.146 26.776L115.426 27.4706C115.62 27.6714 115.778 27.9223 115.895 28.2396L116.834 27.896ZM116.146 26.776L116.877 26.0937C116.473 25.6608 115.987 25.336 115.433 25.1227L115.074 26.056L114.715 26.9893C114.992 27.096 115.221 27.2512 115.415 27.4583L116.146 26.776ZM115.074 26.056L115.462 25.1344C114.918 24.9052 114.33 24.8 113.714 24.8V25.8V26.8C114.1 26.8 114.419 26.8654 114.686 26.9776L115.074 26.056ZM113.714 25.8V24.8C112.889 24.8 112.118 24.9849 111.434 25.3842L111.938 26.248L112.441 27.1118C112.781 26.9137 113.195 26.8 113.714 26.8V25.8ZM111.938 26.248L111.439 25.3809C110.766 25.7681 110.244 26.3227 109.882 27.0186L110.77 27.48L111.657 27.9414C111.85 27.5706 112.107 27.3039 112.436 27.1151L111.938 26.248ZM110.77 27.48L109.886 27.0113C109.518 27.7054 109.354 28.4916 109.354 29.336H110.354H111.354C111.354 28.7511 111.467 28.2999 111.653 27.9487L110.77 27.48ZM110.354 29.336H109.354C109.354 29.9697 109.449 30.5734 109.655 31.1356L110.594 30.792L111.533 30.4484C111.418 30.1359 111.354 29.7689 111.354 29.336H110.354ZM110.594 30.792L109.655 31.1356C109.855 31.683 110.142 32.1745 110.522 32.597L111.266 31.928L112.009 31.259C111.813 31.0415 111.652 30.7756 111.533 30.4484L110.594 30.792ZM111.266 31.928L110.546 32.6226C110.945 33.036 111.42 33.3524 111.958 33.5732L112.338 32.648L112.717 31.7228C112.423 31.6022 112.183 31.4387 111.985 31.2334L111.266 31.928ZM112.338 32.648L111.958 33.5732C112.508 33.7986 113.097 33.904 113.714 33.904V32.904V31.904C113.328 31.904 113 31.8387 112.717 31.7228L112.338 32.648ZM123.164 30.344H122.164V31.344H123.164V30.344ZM123.164 28.488V27.488H122.164V28.488H123.164ZM126.7 28.104L126.022 27.3692L126.015 27.3758L126.008 27.3826L126.7 28.104ZM126.716 26.056L126.009 26.7631V26.7631L126.716 26.056ZM123.164 25.656H122.164V26.656H123.164V25.656ZM123.164 23.704V22.704H122.164V23.704H123.164ZM127.82 24.136L127.366 25.027L127.373 25.0305L127.38 25.0338L127.82 24.136ZM129.148 25.304L129.991 24.766V24.766L129.148 25.304ZM129.148 28.776L129.986 29.3223L129.991 29.314L129.148 28.776ZM127.804 29.928L128.238 30.829V30.829L127.804 29.928ZM121.244 35H120.244V36H121.244V35ZM121.244 23.704V22.704H120.244V23.704H121.244ZM123.756 23.704H124.756V22.704H123.756V23.704ZM123.756 35V36H124.756V35H123.756ZM127.388 35L126.578 35.5863L126.878 36H127.388V35ZM123.868 30.136L123.607 29.1708L122.209 29.5493L123.058 30.7223L123.868 30.136ZM126.172 29.512L126.967 28.905L126.559 28.3712L125.911 28.5468L126.172 29.512ZM130.364 35V36H132.386L131.159 34.393L130.364 35ZM123.164 30.344H124.164V28.488H123.164H122.164V30.344H123.164ZM123.164 28.488V29.488H125.548V28.488V27.488H123.164V28.488ZM125.548 28.488V29.488C126.214 29.488 126.882 29.316 127.393 28.8254L126.7 28.104L126.008 27.3826C125.985 27.404 125.885 27.488 125.548 27.488V28.488ZM126.7 28.104L127.379 28.8388C127.894 28.3629 128.116 27.7319 128.116 27.064H127.116H126.116C126.116 27.2708 126.061 27.3331 126.022 27.3692L126.7 28.104ZM127.116 27.064H128.116C128.116 26.4154 127.893 25.8181 127.423 25.3489L126.716 26.056L126.009 26.7631C126.073 26.8273 126.116 26.9019 126.116 27.064H127.116ZM126.716 26.056L127.423 25.3489C126.914 24.8392 126.24 24.656 125.564 24.656V25.656V26.656C125.891 26.656 125.985 26.7394 126.009 26.7631L126.716 26.056ZM125.564 25.656V24.656H123.164V25.656V26.656H125.564V25.656ZM123.164 25.656H124.164V23.704H123.164H122.164V25.656H123.164ZM123.164 23.704V24.704H125.852V23.704V22.704H123.164V23.704ZM125.852 23.704V24.704C126.469 24.704 126.964 24.8223 127.366 25.027L127.82 24.136L128.274 23.245C127.545 22.8737 126.729 22.704 125.852 22.704V23.704ZM127.82 24.136L127.38 25.0338C127.791 25.2353 128.09 25.5045 128.305 25.842L129.148 25.304L129.991 24.766C129.567 24.1009 128.981 23.5913 128.261 23.2382L127.82 24.136ZM129.148 25.304L128.305 25.842C128.513 26.1677 128.628 26.5534 128.628 27.032H129.628H130.628C130.628 26.2093 130.423 25.443 129.991 24.766L129.148 25.304ZM129.628 27.032H128.628C128.628 27.5247 128.511 27.915 128.305 28.238L129.148 28.776L129.991 29.314C130.425 28.6344 130.628 27.8619 130.628 27.032H129.628ZM129.148 28.776L128.311 28.2297C128.099 28.5537 127.798 28.8214 127.37 29.027L127.804 29.928L128.238 30.829C128.963 30.48 129.557 29.9796 129.986 29.3223L129.148 28.776ZM127.804 29.928L127.37 29.027C126.956 29.2265 126.433 29.344 125.772 29.344V30.344V31.344C126.669 31.344 127.5 31.1841 128.238 30.829L127.804 29.928ZM125.772 30.344V29.344H123.164V30.344V31.344H125.772V30.344ZM121.244 35H122.244V23.704H121.244H120.244V35H121.244ZM121.244 23.704V24.704H123.756V23.704V22.704H121.244V23.704ZM123.756 23.704H122.756V35H123.756H124.756V23.704H123.756ZM123.756 35V34H121.244V35V36H123.756V35ZM127.388 35L128.198 34.4137L124.678 29.5497L123.868 30.136L123.058 30.7223L126.578 35.5863L127.388 35ZM123.868 30.136L124.13 31.1012L126.434 30.4772L126.172 29.512L125.911 28.5468L123.607 29.1708L123.868 30.136ZM126.172 29.512L125.378 30.119L129.57 35.607L130.364 35L131.159 34.393L126.967 28.905L126.172 29.512ZM130.364 35V34H127.388V35V36H130.364V35ZM131.463 35H130.463V36H131.463V35ZM131.463 23.704V22.704H130.463V23.704H131.463ZM133.975 23.704H134.975V22.704H133.975V23.704ZM133.975 35V36H134.975V35H133.975ZM133.383 35H132.383V36H133.383V35ZM133.383 32.824V31.824H132.383V32.824H133.383ZM139.575 32.824H140.575V31.824H139.575V32.824ZM139.575 35V36H140.575V35H139.575ZM133.383 30.28H132.383V31.28H133.383V30.28ZM133.383 28.184V27.184H132.383V28.184H133.383ZM139.015 28.184H140.015V27.184H139.015V28.184ZM139.015 30.28V31.28H140.015V30.28H139.015ZM133.383 25.864H132.383V26.864H133.383V25.864ZM133.383 23.704V22.704H132.383V23.704H133.383ZM139.495 23.704H140.495V22.704H139.495V23.704ZM139.495 25.864V26.864H140.495V25.864H139.495ZM131.463 35H132.463V23.704H131.463H130.463V35H131.463ZM131.463 23.704V24.704H133.975V23.704V22.704H131.463V23.704ZM133.975 23.704H132.975V35H133.975H134.975V23.704H133.975ZM133.975 35V34H131.463V35V36H133.975V35ZM133.383 35H134.383V32.824H133.383H132.383V35H133.383ZM133.383 32.824V33.824H139.575V32.824V31.824H133.383V32.824ZM139.575 32.824H138.575V35H139.575H140.575V32.824H139.575ZM139.575 35V34H133.383V35V36H139.575V35ZM133.383 30.28H134.383V28.184H133.383H132.383V30.28H133.383ZM133.383 28.184V29.184H139.015V28.184V27.184H133.383V28.184ZM139.015 28.184H138.015V30.28H139.015H140.015V28.184H139.015ZM139.015 30.28V29.28H133.383V30.28V31.28H139.015V30.28ZM133.383 25.864H134.383V23.704H133.383H132.383V25.864H133.383ZM133.383 23.704V24.704H139.495V23.704V22.704H133.383V23.704ZM139.495 23.704H138.495V25.864H139.495H140.495V23.704H139.495ZM139.495 25.864V24.864H133.383V25.864V26.864H139.495V25.864Z" fill="black" mask="url(#path-2-outside-1_1545_948)"/>
<path d="M43.222 16.232C41.9235 14.4181 39.813 13.48 37.6152 13.3358C36.0812 13.225 34.6913 13.7294 33.5744 14.1493C32.9979 14.3654 32.3674 14.6647 31.7396 14.6647C31.0828 14.6647 30.4315 14.3682 29.8273 14.1382C28.7603 13.7349 27.6711 13.3622 26.5153 13.4037C23.9808 13.4938 21.6694 14.8865 20.3571 17.0676C17.1213 22.4303 20.1478 30.4868 24.4409 34.328C25.2349 35.0388 26.119 35.5197 27.1265 35.492C28.8822 35.4158 30.365 34.2892 32.1526 34.2892C33.9402 34.2892 35.4354 35.4823 37.2106 35.4435C40.7941 35.3853 43.0252 30.4411 44.0008 27.6516C41.5854 26.6705 39.9377 24.4326 39.9072 21.7831C39.8795 19.4718 41.275 17.3877 43.222 16.232Z" stroke="#FEFEFE" stroke-width="2"/>
<path d="M32.9338 10.5336H33.0031C33.9219 10.5336 34.8031 10.1686 35.4528 9.5189C36.1025 8.86922 36.4675 7.98807 36.4675 7.06929V7H36.3982C35.4794 7 34.5982 7.36499 33.9485 8.01466C33.2988 8.66434 32.9338 9.54549 32.9338 10.4643V10.5336Z" stroke="#FEFEFE" stroke-width="2"/>
</svg>
