<?xml version="1.0" encoding="UTF-8"?>
<svg id="Camada_1" data-name="Camada 1" xmlns="http://www.w3.org/2000/svg" viewBox="0 0 3000 3000">
  <defs>
    <style>
      .cls-1 {
        fill: #807cb6;
      }

      .cls-1, .cls-2, .cls-3, .cls-4, .cls-5 {
        stroke-width: 0px;
      }

      .cls-2 {
        fill: #000;
      }

      .cls-3 {
        fill: #55a0ff;
      }

      .cls-4 {
        fill: #bca3ff;
      }

      .cls-5 {
        fill: #675bff;
      }
    </style>
  </defs>
  <path class="cls-1" d="M1315.53,2826.84H252.42c-53,0-95.97-42.97-95.97-95.97v-1063.11c0-53,42.97-95.97,95.97-95.97h631.13c291.58,0,527.95,236.37,527.95,527.95v631.13c0,53-42.97,95.97-95.97,95.97Z"/>
  <path class="cls-3" d="M1592.4,228.74h1063.11c53,0,95.97,42.97,95.97,95.97v1063.11c0,53-42.97,95.97-95.97,95.97h-631.13c-291.58,0-527.95-236.37-527.95-527.95V324.71c0-53,42.97-95.97,95.97-95.97Z"/>
  <path class="cls-4" d="M1592.4,2826.84h1063.11c53,0,95.97-42.97,95.97-95.97v-1063.11c0-53-42.97-95.97-95.97-95.97h-1051.46c-59.44,0-107.62,48.18-107.62,107.62v1051.46c0,53,42.97,95.97,95.97,95.97Z"/>
  <path class="cls-2" d="M344.49,1571.92h631.13c128.2,0,248.73,49.92,339.38,140.58,90.65,90.65,140.58,211.18,140.58,339.38v631.13c0,26.46-21.52,47.98-47.98,47.98H344.49c-26.46,0-47.98-21.52-47.98-47.98v-1063.11c0-26.46,21.52-47.98,47.98-47.98M344.49,1523.93c-53,0-95.97,42.97-95.97,95.97v1063.11c0,53,42.97,95.97,95.97,95.97h1063.11c53,0,95.97-42.97,95.97-95.97v-631.13c0-291.58-236.37-527.95-527.94-527.95H344.49Z"/>
  <path class="cls-2" d="M1684.47,228.86h1063.11c26.46,0,47.98,21.52,47.98,47.98v1063.11c0,26.46-21.52,47.98-47.98,47.98h-631.13c-128.2,0-248.73-49.92-339.38-140.58-90.65-90.65-140.58-211.18-140.58-339.38V276.85c0-26.46,21.52-47.98,47.98-47.98M1684.47,180.88c-53,0-95.97,42.97-95.97,95.97v631.13c0,291.58,236.37,527.95,527.95,527.95h631.13c53,0,95.97-42.97,95.97-95.97V276.85c0-53-42.97-95.97-95.97-95.97h-1063.11Z"/>
  <path class="cls-2" d="M1696.12,1571.92h1051.46c26.46,0,47.98,21.52,47.98,47.98v1063.11c0,26.46-21.52,47.98-47.98,47.98h-1063.11c-26.46,0-47.98-21.52-47.98-47.98v-1051.46c0-32.88,26.75-59.63,59.63-59.63M1696.12,1523.93c-59.44,0-107.62,48.18-107.62,107.62v1051.46c0,53,42.97,95.97,95.97,95.97h1063.11c53,0,95.97-42.97,95.97-95.97v-1063.11c0-53-42.97-95.97-95.97-95.97h-1051.46Z"/>
  <path class="cls-5" d="M252.42,1476.07h1063.11c53,0,95.97-42.97,95.97-95.97V316.99c0-53-42.97-95.97-95.97-95.97H264.07c-59.44,0-107.62,48.18-107.62,107.62v1051.46c0,53,42.97,95.97,95.97,95.97Z"/>
  <path class="cls-2" d="M356.14,221.14h1051.46c26.46,0,47.98,21.52,47.98,47.98v1063.11c0,26.46-21.52,47.98-47.98,47.98H344.49c-26.46,0-47.98-21.52-47.98-47.98V280.77c0-32.88,26.75-59.63,59.63-59.63M356.14,173.16c-59.44,0-107.62,48.18-107.62,107.62v1051.46c0,53,42.97,95.97,95.97,95.97h1063.11c53,0,95.97-42.97,95.97-95.97V269.12c0-53-42.97-95.97-95.97-95.97H356.14Z"/>
  <g>
    <g>
      <circle class="cls-2" cx="1921.12" cy="623.93" r="94.84"/>
      <circle class="cls-2" cx="2415.61" cy="623.93" r="94.84"/>
    </g>
    <path class="cls-2" d="M2168.36,1072.27c-104.61,0-209.18-39.81-288.82-119.44l57.58-57.58c127.51,127.5,334.96,127.49,462.47,0l57.58,57.59c-79.62,79.61-184.24,119.44-288.82,119.44Z"/>
  </g>
</svg>