<?xml version="1.0" encoding="UTF-8"?>
<svg id="Camada_1" data-name="Camada 1" xmlns="http://www.w3.org/2000/svg" viewBox="0 0 3000 1500">
  <defs>
    <style>
      .cls-1 {
        fill: #807cb6;
      }

      .cls-1, .cls-2, .cls-3, .cls-4, .cls-5 {
        stroke-width: 0px;
      }

      .cls-2 {
        fill: #000;
      }

      .cls-3 {
        fill: #55a0ff;
      }

      .cls-4 {
        fill: #bca3ff;
      }

      .cls-5 {
        fill: #675bff;
      }
    </style>
  </defs>
  <g>
    <path class="cls-1" d="M627.96,1237.59H237.71c-19.46,0-35.23-15.77-35.23-35.23v-390.24c0-19.46,15.77-35.23,35.23-35.23h231.67c107.03,0,193.8,86.77,193.8,193.8v231.67c0,19.46-15.77,35.23-35.23,35.23Z"/>
    <path class="cls-3" d="M729.59,283.9h390.24c19.46,0,35.23,15.77,35.23,35.23v390.24c0,19.46-15.77,35.23-35.23,35.23h-231.67c-107.03,0-193.8-86.77-193.8-193.8v-231.67c0-19.46,15.77-35.23,35.23-35.23Z"/>
    <path class="cls-4" d="M729.59,1237.59h390.24c19.46,0,35.23-15.77,35.23-35.23v-390.24c0-19.46-15.77-35.23-35.23-35.23h-385.96c-21.82,0-39.5,17.69-39.5,39.5v385.96c0,19.46,15.77,35.23,35.23,35.23Z"/>
    <path class="cls-2" d="M271.51,776.94h231.67c47.06,0,91.3,18.33,124.58,51.6,33.28,33.28,51.6,77.52,51.6,124.58v231.67c0,9.71-7.9,17.61-17.61,17.61h-390.24c-9.71,0-17.61-7.9-17.61-17.61v-390.24c0-9.71,7.9-17.61,17.61-17.61M271.51,759.33c-19.46,0-35.23,15.77-35.23,35.23v390.24c0,19.46,15.77,35.23,35.23,35.23h390.24c19.46,0,35.23-15.77,35.23-35.23v-231.67c0-107.03-86.77-193.8-193.79-193.8h-231.67Z"/>
    <path class="cls-2" d="M763.39,283.94h390.24c9.71,0,17.61,7.9,17.61,17.61v390.24c0,9.71-7.9,17.61-17.61,17.61h-231.67c-47.06,0-91.3-18.33-124.58-51.6-33.28-33.28-51.6-77.52-51.6-124.58v-231.67c0-9.71,7.9-17.61,17.61-17.61M763.39,266.32c-19.46,0-35.23,15.77-35.23,35.23v231.67c0,107.03,86.77,193.8,193.8,193.8h231.67c19.46,0,35.23-15.77,35.23-35.23v-390.24c0-19.46-15.77-35.23-35.23-35.23h-390.24Z"/>
    <path class="cls-2" d="M767.66,776.94h385.96c9.71,0,17.61,7.9,17.61,17.61v390.24c0,9.71-7.9,17.61-17.61,17.61h-390.24c-9.71,0-17.61-7.9-17.61-17.61v-385.96c0-12.07,9.82-21.89,21.89-21.89M767.66,759.33c-21.82,0-39.5,17.69-39.5,39.5v385.96c0,19.46,15.77,35.23,35.23,35.23h390.24c19.46,0,35.23-15.77,35.23-35.23v-390.24c0-19.46-15.77-35.23-35.23-35.23h-385.96Z"/>
    <path class="cls-5" d="M237.72,741.76h390.24c19.46,0,35.23-15.77,35.23-35.23v-390.24c0-19.46-15.77-35.23-35.23-35.23H241.99c-21.82,0-39.5,17.69-39.5,39.5v385.96c0,19.46,15.77,35.23,35.23,35.23Z"/>
    <path class="cls-2" d="M275.79,281.1h385.96c9.71,0,17.61,7.9,17.61,17.61v390.24c0,9.71-7.9,17.61-17.61,17.61h-390.24c-9.71,0-17.61-7.9-17.61-17.61v-385.96c0-12.07,9.82-21.89,21.89-21.89M275.79,263.49c-21.82,0-39.5,17.69-39.5,39.5v385.96c0,19.46,15.77,35.23,35.23,35.23h390.24c19.46,0,35.23-15.77,35.23-35.23v-390.24c0-19.46-15.77-35.23-35.23-35.23h-385.96Z"/>
    <g>
      <g>
        <circle class="cls-2" cx="850.25" cy="428.96" r="34.81"/>
        <circle class="cls-2" cx="1031.77" cy="428.96" r="34.81"/>
      </g>
      <path class="cls-2" d="M941.01,593.53c-38.4,0-76.79-14.61-106.02-43.85l21.14-21.14c46.81,46.8,122.96,46.8,169.76,0l21.14,21.14c-29.23,29.22-67.63,43.84-106.02,43.84Z"/>
    </g>
  </g>
  <g>
    <g>
      <g>
        <path class="cls-5" d="M1555.05,279.61l149.86,117.45c2.55,2,6.14,2,8.7,0l149.87-117.45c4.15-3.25,10.27-.96,11.27,4.21l78.89,409.07h-488.73l78.89-409.07c1-5.18,7.12-7.46,11.27-4.21Z"/>
        <path class="cls-5" d="M2004.1,287.55h130.67c3.89,0,7.05,3.16,7.05,7.05v398.3h-144.77v-398.3c0-3.89,3.16-7.05,7.05-7.05Z"/>
        <path class="cls-5" d="M2223.3,288.96l185.05,182.48c4.45,4.39,12,1.24,12-5.02v-171.83c0-3.89,3.16-7.05,7.05-7.05h130.67c3.89,0,7.05,3.16,7.05,7.05v398.3h-353.81v-398.92c0-6.26,7.54-9.41,12-5.02Z"/>
        <path class="cls-5" d="M2641.64,287.55h130.67c3.89,0,7.05,3.16,7.05,7.05v398.3h-144.77v-398.3c0-3.89,3.16-7.05,7.05-7.05Z"/>
      </g>
      <g>
        <path class="cls-5" d="M2078.57,855.69c0-7.36,5.96-13.32,13.32-13.32h131.45c48.06,0,177.19,5.79,177.19,143.03,0,87.67-53.84,132.79-164.65,139.02-7.06.4-12.55,6.3-12.55,13.37v96.61c0,7.36-5.96,13.32-13.32,13.32h-118.13c-7.36,0-13.32-5.96-13.32-13.32v-378.71Z"/>
        <path class="cls-5" d="M2461.32,842.37h283.16c7.36,0,13.32,5.96,13.32,13.32v115.81c0,7.36-5.96,13.32-13.32,13.32h-140.71c-7.36,0-13.32,5.96-13.32,13.32v19.11c0,7.36,5.96,13.32,13.32,13.32h116.29c3.58,0,6.48,2.9,6.48,6.48v13.69c0,3.58-2.9,6.48-6.48,6.48h-116.29c-7.36,0-13.32,5.96-13.32,13.32v21.42c0,7.36,5.96,13.32,13.32,13.32h140.71c7.36,0,13.32,5.96,13.32,13.32v115.81c0,7.36-5.96,13.32-13.32,13.32h-283.16c-7.36,0-13.32-5.96-13.32-13.32v-378.71c0-7.36,5.96-13.32,13.32-13.32ZM2575.77,792.26l41.38-56.75c2.51-3.44,6.51-5.47,10.76-5.47h73.04c12.37,0,18.06,15.38,8.67,23.43l-66.21,56.75c-2.41,2.07-5.49,3.21-8.67,3.21h-48.21c-10.89,0-17.18-12.36-10.76-21.17Z"/>
        <path class="cls-5" d="M1499.79,1247.72h117.44c9.41,0,18.18-4.71,23.38-12.55l37.64-56.74c6.96-10.49,22.36-10.49,29.32,0l37.64,56.74c5.2,7.84,13.98,12.55,23.38,12.55h117.44c9.94,0,16.38-10.49,11.87-19.35l-193.13-380c-4.94-9.71-18.81-9.71-23.75,0l-193.12,380c-4.5,8.86,1.93,19.35,11.87,19.35Z"/>
      </g>
    </g>
    <g>
      <g>
        <path class="cls-2" d="M1823.05,292.59l67.82,351.67h-429.2l67.82-351.67,127.28,99.75c5.54,4.34,12.47,6.73,19.5,6.73s13.97-2.39,19.51-6.73l127.28-99.75M1834.8,254.05c-1.49,0-3.01.47-4.32,1.51l-149.87,117.45c-1.28,1-2.81,1.5-4.35,1.5s-3.07-.5-4.35-1.5l-149.86-117.45c-1.32-1.03-2.83-1.51-4.32-1.51-3.2,0-6.26,2.19-6.94,5.72l-78.89,409.07h488.73l-78.89-409.07c-.68-3.53-3.75-5.72-6.94-5.72h0Z"/>
        <path class="cls-2" d="M2084.24,288.06v356.2h-95.62v-356.2h95.62M2101.77,263.49h-130.67c-3.89,0-7.05,3.16-7.05,7.05v398.3h144.77v-398.3c0-3.89-3.16-7.05-7.05-7.05h0Z"/>
        <path class="cls-2" d="M2507.53,288.06v356.2h-304.66v-332.45l155.22,153.07c5.96,5.88,13.83,9.12,22.15,9.12,17.46,0,31.67-14.19,31.67-31.64v-154.3h95.62M2185.4,262.85c-3.62,0-7.1,2.82-7.1,7.06v398.92h353.81v-398.3c0-3.89-3.16-7.05-7.05-7.05h-130.67c-3.89,0-7.05,3.16-7.05,7.05v171.83c0,4.25-3.47,7.06-7.1,7.06-1.72,0-3.47-.63-4.9-2.04l-185.05-182.48c-1.43-1.41-3.18-2.04-4.9-2.04h0Z"/>
        <path class="cls-2" d="M2721.78,288.06v356.2h-95.62v-356.2h95.62M2739.31,263.49h-130.67c-3.89,0-7.05,3.16-7.05,7.05v398.3h144.77v-398.3c0-3.89-3.16-7.05-7.05-7.05h0Z"/>
      </g>
      <g>
        <path class="cls-2" d="M2190.33,842.89c14.77,0,59.7,0,95.88,17.58,38.18,18.55,56.74,51.55,56.74,100.88,0,36.51-10.48,63.09-32.04,81.26-22.84,19.25-59.65,30.43-109.42,33.23-20.04,1.13-35.74,17.77-35.74,37.9v85.36h-95.62v-356.2h120.19M2190.33,818.32h-131.45c-7.36,0-13.32,5.96-13.32,13.32v378.71c0,7.36,5.96,13.32,13.32,13.32h118.13c7.36,0,13.32-5.96,13.32-13.32v-96.61c0-7.07,5.49-12.97,12.55-13.37,110.8-6.23,164.65-51.35,164.65-139.02,0-137.24-129.13-143.03-177.19-143.03h0Z"/>
        <path class="cls-2" d="M2637.52,730.55l-39.94,34.24h-21.91l24.97-34.24h36.89M2700.22,842.89v93.3h-129.46c-20.89,0-37.89,17-37.89,37.89v19.11c0,10.37,4.19,19.79,10.97,26.64-6.78,6.85-10.97,16.26-10.97,26.64v21.42c0,20.89,17,37.89,37.89,37.89h129.46v93.3h-260.65v-356.2h260.65M2667.95,705.98h-73.04c-4.26,0-8.26,2.03-10.76,5.47l-41.38,56.75c-6.42,8.8-.13,21.17,10.76,21.17h48.21c3.18,0,6.25-1.14,8.67-3.21l66.21-56.75c9.39-8.05,3.7-23.43-8.67-23.43h0ZM2711.48,818.32h-283.16c-7.36,0-13.32,5.96-13.32,13.32v378.71c0,7.36,5.96,13.32,13.32,13.32h283.16c7.36,0,13.32-5.96,13.32-13.32v-115.81c0-7.36-5.96-13.32-13.32-13.32h-140.71c-7.36,0-13.32-5.96-13.32-13.32v-21.42c0-7.36,5.96-13.32,13.32-13.32h116.29c3.58,0,6.48-2.9,6.48-6.48v-13.69c0-3.58-2.9-6.48-6.48-6.48h-116.29c-7.36,0-13.32-5.96-13.32-13.32v-19.11c0-7.36,5.96-13.32,13.32-13.32h140.71c7.36,0,13.32-5.96,13.32-13.32v-115.81c0-7.36-5.96-13.32-13.32-13.32h0Z"/>
        <path class="cls-2" d="M1659.91,855.18l174.78,343.91h-99.1c-1.17,0-2.26-.58-2.91-1.56l-37.64-56.74c-7.83-11.81-20.97-18.85-35.13-18.85s-27.3,7.05-35.13,18.85l-37.64,56.74c-.65.98-1.74,1.56-2.91,1.56h-99.1l174.78-343.91M1659.91,817.02c-4.7,0-9.41,2.43-11.87,7.28l-193.12,380c-4.5,8.86,1.93,19.35,11.87,19.35h117.44c9.41,0,18.18-4.71,23.38-12.55l37.64-56.74c3.48-5.24,9.07-7.87,14.66-7.87s11.18,2.62,14.66,7.87l37.64,56.74c5.2,7.84,13.98,12.55,23.38,12.55h117.44c9.94,0,16.38-10.49,11.87-19.35l-193.13-380c-2.47-4.86-7.17-7.28-11.87-7.28h0Z"/>
      </g>
    </g>
  </g>
</svg>